<svg width="400" height="93" viewBox="0 0 400 93" fill="none" xmlns="http://www.w3.org/2000/svg">
<path d="M51.2 75.24C52.2133 74.44 53.08 74.1067 53.8 74.24C54.52 74.3733 54.88 75.08 54.88 76.36C54.88 76.6267 54.8267 76.9067 54.72 77.2C54.6133 77.4933 54.4933 77.76 54.36 78C54.2267 78.24 54.0267 78.4933 53.76 78.76C53.4933 79.0267 53.2533 79.2667 53.04 79.48C52.8267 79.6933 52.56 79.92 52.24 80.16C51.92 80.4 51.6533 80.5867 51.44 80.72C51.2267 80.8533 50.96 81.0267 50.64 81.24C50.32 81.4533 50.08 81.6133 49.92 81.72C48.9067 82.4133 47.84 83 46.72 83.48C46.6133 83.5333 45.9733 83.8533 44.8 84.44L44.4 84.92C42.96 86.3067 40.88 87.16 38.16 87.48C36.4533 87.6933 35.1333 87.7067 34.2 87.52C33.2667 87.3333 31.9733 86.8667 30.32 86.12C27.8667 84.9467 26.24 83.9867 25.44 83.24C24.9067 82.8133 24.4533 82.6267 24.08 82.68C23.7067 82.7333 23.0133 83.16 22 83.96C18.7467 86.3067 14.8667 87.6267 10.36 87.92C5.85333 88.2133 2.90667 87.32 1.52 85.24C0.666667 83.9067 0.28 81.32 0.36 77.48C0.44 73.64 0.933333 70.8933 1.84 69.24C2.64 67.8 3.25333 66.7333 3.68 66.04C4.16 65.3467 4.61333 64.7067 5.04 64.12C5.46667 63.48 6.18667 62.5467 7.2 61.32C10.56 57.16 13.2 54.3067 15.12 52.76C16.6133 51.5867 18.3733 50.5867 20.4 49.76C22.4267 48.9333 24.5467 48.3867 26.76 48.12C28.9733 47.8533 30.9333 48.1467 32.64 49C34.72 50.0667 36 51.8933 36.48 54.48C36.96 57.0667 36.9067 59.5733 36.32 62C35.7333 64.4267 34.9067 66.7067 33.84 68.84C32.9333 70.8667 32.2533 73.08 31.8 75.48C31.3467 77.88 31.36 79.4533 31.84 80.2C32.8533 82.2267 36.1867 82.36 41.84 80.6C42.0533 80.5467 42.2667 80.52 42.48 80.52C42.8 80.4133 43.04 80.3067 43.2 80.2C46.6133 78.44 49.28 76.7867 51.2 75.24ZM27.04 60.2C27.6267 59.88 27.9467 59.6133 28 59.4C28.0533 59.1867 27.92 58.92 27.6 58.6C26.96 57.9067 26.0533 57.4533 24.88 57.24C23.7067 57.0267 22.56 57.08 21.44 57.4C20.32 57.6667 18.6267 58.7333 16.36 60.6C14.0933 62.4667 12.56 64.0667 11.76 65.4C10.6933 66.9467 9.78667 68.3333 9.04 69.56C8.13333 70.84 7.52 72.7067 7.2 75.16C6.88 77.6133 7.01333 79.2133 7.6 79.96C8.13333 80.6 9.30667 80.92 11.12 80.92C12.9333 80.92 14.64 80.6267 16.24 80.04C17.7867 79.2933 18.9333 78.1733 19.68 76.68C20.96 74.1733 22 72.1467 22.8 70.6C24.1867 68.2 24.88 66.5733 24.88 65.72C24.88 65.1867 25.1067 64.64 25.56 64.08C26.0133 63.52 26.1333 62.92 25.92 62.28C25.6533 61.4267 26.0267 60.7333 27.04 60.2ZM100.24 69.48C100.293 69.8 100.32 70.4133 100.32 71.32C100.32 73.3467 99.4533 74.68 97.72 75.32C95.9867 75.96 92.8 76.1467 88.16 75.88L80.4 75.48L77.84 80.36C76.1333 83.6667 74.24 86.08 72.16 87.6C70.08 89.12 67.3067 90.1733 63.84 90.76C60.2133 91.3467 57.28 91.2133 55.04 90.36C53.28 89.6667 51.7733 88.6267 50.52 87.24C49.2667 85.8533 48.3733 84.32 47.84 82.64C47.3067 80.96 46.96 79.16 46.8 77.24C46.64 75.32 46.7467 73.48 47.12 71.72C47.6 68.7333 48.56 64.4267 50 58.8C51.44 53.1733 52.4267 49.0533 52.96 46.44C53.76 41.9067 54.72 38.4133 55.84 35.96C57.3867 32.44 58.6133 29.72 59.52 27.8C60.3733 25.9867 61.44 23.8533 62.72 21.4C63.4133 20.0667 64.24 18.0933 65.2 15.48C65.84 13.7733 66.36 12.4933 66.76 11.64C67.16 10.7867 67.7333 9.70666 68.48 8.4C69.2267 7.09333 70.12 6 71.16 5.12C72.2 4.23999 73.4133 3.45333 74.8 2.76C76.2933 2.01333 77.7733 1.62666 79.24 1.6C80.7067 1.57333 82.0533 2.06666 83.28 3.08C84.56 4.41333 85.28 6.27999 85.44 8.68C85.6 11.08 85.4533 13.2533 85 15.2C84.5467 17.1467 83.9467 19.08 83.2 21C81.0667 26.3333 79.6533 30.28 78.96 32.84C78.3733 35.1333 77.6267 37.08 76.72 38.68C72.56 46.04 70.4 49.88 70.24 50.2C68 54.2 65.0133 58.7067 61.28 63.72C59.2533 66.4933 57.9467 69.7067 57.36 73.36C56.7733 77.0133 57.2533 79.16 58.8 79.8C58.8533 79.9067 59.12 80.0667 59.6 80.28C60.08 80.4933 60.5333 80.7067 60.96 80.92C61.44 81.1333 61.8667 81.3733 62.24 81.64C63.04 82.0667 63.72 82.2533 64.28 82.2C64.84 82.1467 65.6 81.8267 66.56 81.24C67.5733 80.4933 68.92 78.5067 70.6 75.28C72.28 72.0533 73.12 69.72 73.12 68.28C73.12 67 73.6533 65.7733 74.72 64.6C75.7867 63.4267 76.9067 62.84 78.08 62.84C79.52 62.84 81.3867 64.0667 83.68 66.52C84.8533 67.6933 85.8667 68.5067 86.72 68.96C87.5733 69.4133 88.2533 69.64 88.76 69.64C89.2667 69.64 90.2667 69.5333 91.76 69.32C93.2 69.1067 94.5867 68.9733 95.92 68.92C97.36 68.76 98.4133 68.7333 99.08 68.84C99.7467 68.9467 100.133 69.16 100.24 69.48ZM62.24 40.12C61.1733 43.2133 60.48 45.76 60.16 47.76C59.84 49.76 59.92 50.92 60.4 51.24C60.9333 51.24 61.84 49.8 63.12 46.92C63.76 45.64 65.1867 42.7733 67.4 38.32C69.6133 33.8667 71.0667 30.84 71.76 29.24C73.84 24.1733 74.88 21.3467 74.88 20.76C74.88 19.0533 73.4133 19.8 70.48 23C68.6133 25.24 67.68 26.68 67.68 27.32C67.68 28.3333 66.96 30.0667 65.52 32.52C64.4 34.4933 63.3067 37.0267 62.24 40.12ZM141.878 69.64C142.678 70.0667 143.078 71 143.078 72.44C143.131 74.0933 142.198 75.64 140.278 77.08C139.585 77.56 138.785 78.04 137.878 78.52C137.718 78.5733 137.531 78.68 137.318 78.84C136.571 79.2667 135.931 79.5067 135.398 79.56C133.798 79.6667 132.251 79.0267 130.758 77.64C130.385 77.32 129.985 76.76 129.558 75.96L129.318 75.56C128.838 74.76 128.385 74.2533 127.958 74.04C127.531 73.8267 126.998 73.88 126.358 74.2C125.558 74.6267 124.651 75.9333 123.638 78.12C123.158 79.24 122.758 80.0133 122.438 80.44C121.425 81.9333 120.545 82.7867 119.798 83C118.838 83.48 117.531 84.2267 115.878 85.24C113.851 86.4667 111.931 87.1333 110.118 87.24C108.038 87.4 106.491 87.6133 105.478 87.88C105.211 87.9333 104.945 87.96 104.678 87.96C104.091 87.96 103.585 87.8533 103.158 87.64C102.518 87.3733 101.585 86.6533 100.358 85.48C99.0248 84.2533 98.1181 83.1733 97.6381 82.24C97.1581 81.3067 96.6781 79.6667 96.1981 77.32C95.3981 73.48 95.2115 70.4 95.6381 68.08C96.0648 65.76 97.2381 63.0533 99.1581 59.96C101.611 56.0133 103.931 53.16 106.118 51.4C108.305 49.64 110.998 48.3867 114.198 47.64C115.745 47.32 117.105 46.76 118.278 45.96C120.145 44.7333 121.798 44.28 123.238 44.6C124.625 44.8667 126.225 45.96 128.038 47.88C128.998 48.9467 129.691 49.8 130.118 50.44C130.545 51.08 130.838 51.6933 130.998 52.28C131.158 52.8667 131.238 53.72 131.238 54.84C131.238 59.5867 131.398 63.2667 131.718 65.88C131.878 67.4267 132.238 68.6133 132.798 69.44C133.358 70.2667 134.331 71.2667 135.718 72.44L135.958 72.28C136.918 71.64 137.611 71.1333 138.038 70.76C139.638 69.5333 140.918 69.16 141.878 69.64ZM123.398 55.88C123.398 53.8 123.185 52.6533 122.758 52.44C122.651 52.5467 122.545 52.68 122.438 52.84C122.171 53.32 122.198 54.4133 122.518 56.12C122.731 57.3467 122.945 58.12 123.158 58.44C123.318 58.0133 123.398 57.16 123.398 55.88ZM121.078 68.2C121.291 66.9733 121.265 66.0933 120.998 65.56C120.785 65.0267 120.118 64.2 118.998 63.08C117.238 61.3733 116.358 59.96 116.358 58.84C116.358 58.0933 116.118 57.2133 115.638 56.2C115.158 55.1867 114.678 54.52 114.198 54.2C113.825 53.9333 113.505 53.8 113.238 53.8C113.025 53.8 112.838 53.8533 112.678 53.96C112.145 54.2267 111.051 55.2133 109.398 56.92C107.958 58.36 106.611 60.2 105.358 62.44C104.105 64.68 103.185 66.7867 102.598 68.76C102.011 70.6267 101.905 71.9867 102.278 72.84C102.705 73.64 102.945 75 102.998 76.92C103.158 78.36 103.371 79.4267 103.638 80.12C103.905 80.7067 104.305 81.1067 104.838 81.32C105.425 81.5867 106.385 81.72 107.718 81.72C108.358 81.72 108.891 81.6933 109.318 81.64C109.745 81.64 110.145 81.5867 110.518 81.48C110.891 81.3733 111.238 81.24 111.558 81.08C111.931 80.8667 112.305 80.6267 112.678 80.36C113.051 80.0933 113.505 79.7467 114.038 79.32C116.065 77.72 117.211 76.44 117.478 75.48C117.798 74.4667 118.438 73.4 119.398 72.28C120.251 71.3733 120.811 70.0133 121.078 68.2ZM193.314 74.28C194.487 73.32 195.514 72.92 196.394 73.08C197.274 73.24 197.714 74.0933 197.714 75.64C197.714 76.12 197.607 76.6 197.394 77.08C197.18 77.56 196.94 77.96 196.674 78.28C196.407 78.6 196.007 78.9867 195.474 79.44C194.94 79.8933 194.527 80.2267 194.234 80.44C193.94 80.6533 193.487 80.96 192.874 81.36C192.26 81.76 191.874 82.0133 191.714 82.12C187.927 84.7333 185.98 86.12 185.874 86.28C185.554 86.6 184.767 86.9467 183.514 87.32C182.26 87.6933 181.287 87.88 180.594 87.88C179.687 88.1467 178.887 88.28 178.194 88.28C177.5 88.28 176.714 88.16 175.834 87.92C174.954 87.68 174.314 87.48 173.914 87.32C173.514 87.16 173.18 87.0267 172.914 86.92C171.474 86.2267 169.5 84.7067 166.994 82.36L163.874 79.4L159.874 82.36C157.1 84.2267 154.087 85.3733 150.834 85.8C148.114 86.0667 145.527 85.7733 143.074 84.92C140.62 84.0667 138.687 82.5867 137.274 80.48C135.86 78.3733 135.447 75.8533 136.034 72.92C136.674 69.8267 138.207 66.4267 140.634 62.72C143.06 59.0133 145.634 55.8533 148.354 53.24C150.434 51.2667 152.087 50.28 153.314 50.28C153.9 50.28 154.7 50.8133 155.714 51.88C156.407 52.6267 156.74 53.24 156.714 53.72C156.687 54.2 156.274 55.1867 155.474 56.68C148.914 69.5333 147.207 76.52 150.354 77.64L150.994 77.72C153.18 78.04 156.194 76.2267 160.034 72.28C163.874 68.3333 166.54 64.3333 168.034 60.28C169.154 57.56 170.514 55.1067 172.114 52.92C173.5 51 174.514 49.92 175.154 49.68C175.794 49.44 176.994 49.7733 178.754 50.68C180.247 51.48 181.034 52.3867 181.114 53.4C181.194 54.4133 180.647 56.04 179.474 58.28C178.887 59.1867 178.407 60.2 178.034 61.32C177.66 62.3867 177.367 63.3467 177.154 64.2C177.047 64.4667 176.914 64.96 176.754 65.68C176.594 66.4 176.434 67 176.274 67.48C175.954 68.8133 175.66 69.9067 175.394 70.76C174.86 73 174.594 75.12 174.594 77.12C174.594 79.12 174.914 80.44 175.554 81.08C176.087 81.6133 177.234 81.9333 178.994 82.04C179.26 81.9333 179.98 81.68 181.154 81.28C182.327 80.88 183.127 80.5733 183.554 80.36C187.66 78.2267 190.914 76.2 193.314 74.28ZM233.529 75.32C234.755 74.4667 235.795 74.1867 236.649 74.48C237.502 74.7733 237.875 75.6667 237.769 77.16C237.715 77.5333 237.595 77.92 237.409 78.32C237.222 78.72 236.969 79.08 236.649 79.4C236.329 79.72 236.022 80.0133 235.729 80.28C235.435 80.5467 235.049 80.8267 234.569 81.12C234.089 81.4133 233.689 81.64 233.369 81.8C233.049 81.96 232.635 82.1733 232.129 82.44C231.622 82.7067 231.289 82.8933 231.129 83C229.795 83.6933 228.409 84.2533 226.969 84.68C226.915 84.7333 226.262 85.1467 225.009 85.92C223.755 86.6933 222.329 87.5467 220.729 88.48C219.129 89.4133 217.822 90.04 216.809 90.36C215.422 90.84 213.982 91.2133 212.489 91.48C210.995 91.7467 209.422 91.92 207.769 92C206.115 92.08 204.529 91.9067 203.009 91.48C201.489 91.0533 200.222 90.4133 199.209 89.56C197.982 88.44 196.982 86.9067 196.209 84.96C195.435 83.0133 194.929 80.9067 194.689 78.64C194.449 76.3733 194.329 74.2533 194.329 72.28C194.329 70.3067 194.409 68.4133 194.569 66.6C194.622 66.3333 194.929 64.0533 195.489 59.76C196.049 55.4667 196.582 51.2533 197.089 47.12L197.849 40.92C197.209 40.5467 196.009 40.28 194.249 40.12C193.182 40.0667 192.089 40.0667 190.969 40.12C188.355 40.12 186.515 40.04 185.449 39.88C185.235 39.8267 184.929 39.8 184.529 39.8C184.129 39.8 183.729 39.8 183.329 39.8C182.929 39.8 182.529 39.8 182.129 39.8C181.729 39.8 181.409 39.76 181.169 39.68C180.929 39.6 180.782 39.48 180.729 39.32C180.622 38.4667 180.969 37.8533 181.769 37.48C181.822 37.4267 182.182 37.2 182.849 36.8C183.515 36.4 184.209 36.0133 184.929 35.64C185.649 35.2667 186.622 34.9333 187.849 34.64C189.075 34.3467 190.329 34.2267 191.609 34.28C195.609 34.6533 198.102 34.7733 199.089 34.64C200.075 34.5067 201.049 33.9333 202.009 32.92C203.449 31.5867 205.369 28.0933 207.769 22.44C207.875 22.2267 208.035 21.9067 208.249 21.48C209.155 19.3467 209.902 17.6667 210.489 16.44C211.075 15.2133 211.902 13.6533 212.969 11.76C214.035 9.86666 215.209 8.28 216.489 7C217.769 5.72 219.102 4.73333 220.489 4.03999C224.969 1.90666 227.209 2.04 227.209 4.43999C227.209 5.82666 226.169 8.94666 224.089 13.8C223.502 15.1333 223.075 16.1733 222.809 16.92C222.489 17.88 222.222 19.0267 222.009 20.36C221.795 21.6933 221.289 23.0267 220.489 24.36C219.209 26.6 218.142 28.4933 217.289 30.04C216.275 31.8533 215.902 32.92 216.169 33.24C216.435 33.6667 219.129 34.1467 224.249 34.68C227.822 35.0533 229.995 35.3733 230.769 35.64C231.542 35.9067 231.875 36.4133 231.769 37.16C231.662 38.1733 231.075 38.6 230.009 38.44C229.582 38.3867 228.729 38.36 227.449 38.36C226.169 38.4133 224.729 38.4933 223.129 38.6C221.529 38.7067 219.875 38.8667 218.169 39.08C216.515 39.2933 215.129 39.4533 214.009 39.56C213.422 39.6667 212.649 41.3733 211.689 44.68C210.729 47.9867 209.675 52 208.529 56.72C207.382 61.44 206.542 64.6 206.009 66.2C203.289 74.36 203.635 79.96 207.049 83C208.595 84.3867 210.035 85.0533 211.369 85C212.169 85 213.049 84.7067 214.009 84.12C214.169 83.9067 214.715 83.5867 215.649 83.16C216.582 82.7333 217.542 82.3467 218.529 82C219.515 81.6533 220.529 81.2933 221.569 80.92C222.609 80.5467 223.155 80.36 223.209 80.36C227.475 78.6533 230.915 76.9733 233.529 75.32ZM339.706 72.84C340.88 71.88 341.906 71.4933 342.786 71.68C343.666 71.8667 344.133 72.7067 344.186 74.2C344.186 74.68 344.08 75.16 343.866 75.64C343.653 76.12 343.413 76.5333 343.146 76.88C342.88 77.2267 342.48 77.6133 341.946 78.04C341.413 78.4667 341 78.7867 340.706 79C340.413 79.2133 339.96 79.52 339.346 79.92C338.733 80.32 338.346 80.5733 338.186 80.68C336.533 81.8 334.933 83 333.386 84.28C331.306 85.9333 329.146 87.08 326.906 87.72C324.293 88.4667 322.266 88.8667 320.826 88.92C319.333 88.9733 317.493 88.68 315.306 88.04C313.226 87.5067 311.56 86.8 310.306 85.92C309.053 85.04 308.08 83.9067 307.386 82.52C306.693 81.1333 306.333 79.3867 306.306 77.28C306.28 75.1733 306.533 72.7867 307.066 70.12C307.546 67.4 308.346 64.12 309.466 60.28C309.786 59.32 309.68 58.84 309.146 58.84C307.706 58.84 304.906 61.4 300.746 66.52C296.586 71.64 293.36 76.44 291.066 80.92C289.466 84.0133 288.133 85.88 287.066 86.52C286 87.16 284.8 86.84 283.466 85.56C282.346 84.5467 281.813 83.5733 281.866 82.64C281.92 81.7067 282.613 79.72 283.946 76.68C285.066 74.44 285.626 72.8933 285.626 72.04C285.626 71.2933 286.186 69.7467 287.306 67.4C288.053 64.7333 288.293 63.32 288.026 63.16C287.44 63.16 286.28 64.1067 284.546 66C282.813 67.8933 281 70.16 279.106 72.8C277.213 75.44 275.786 77.6667 274.826 79.48C273.333 82.2533 271.973 84.0133 270.746 84.76C269.52 85.5067 268.293 85.3467 267.066 84.28C265.893 83.2133 265.44 81.8933 265.706 80.32C265.973 78.7467 267.04 76.1733 268.906 72.6C269.44 71.48 269.96 69.84 270.466 67.68C270.973 65.52 271.466 63.9867 271.946 63.08C273.706 59.2933 275.626 56.6 277.706 55C278.186 54.6267 278.693 54.2933 279.226 54C279.76 53.7067 280.306 53.52 280.866 53.44C281.426 53.36 281.8 53.5333 281.986 53.96C282.173 54.3867 282.16 55.1067 281.946 56.12C281.466 57.7733 281.653 58.52 282.506 58.36C283.146 58.3067 283.893 57.5867 284.746 56.2C285.973 54.3333 287.413 52.8133 289.066 51.64C289.706 51.2133 290.24 50.8933 290.666 50.68C291.2 50.4667 291.546 50.3333 291.706 50.28C291.973 50.12 292.346 50.0667 292.826 50.12C293.306 50.1733 293.653 50.2267 293.866 50.28C294.08 50.28 294.506 50.3867 295.146 50.6C295.84 50.8133 296.373 50.9467 296.746 51C298.24 51.32 298.986 51.7467 298.986 52.28C299.093 52.3867 299.173 53.1867 299.226 54.68C299.333 55.3733 299.466 55.88 299.626 56.2C299.786 56.52 300.106 56.6667 300.586 56.64C301.066 56.6133 301.653 56.4267 302.346 56.08C303.04 55.7333 304.08 55.1067 305.466 54.2C308.666 52.1733 311.413 51 313.706 50.68C315.413 50.52 316.48 50.56 316.906 50.8C317.333 51.04 317.786 51.6667 318.266 52.68C318.906 54.3333 319.04 56.44 318.666 59C318.293 61.56 317.6 63.96 316.586 66.2C315.413 68.44 314.826 70.1467 314.826 71.32C314.826 72.28 314.533 73.6933 313.946 75.56C313.36 77.16 313.453 78.6533 314.226 80.04C315 81.4267 316.213 82.28 317.866 82.6C318.826 82.76 320.08 82.68 321.626 82.36C322.053 82.2533 324.64 81.1867 329.386 79.16C329.386 79.16 329.88 78.8667 330.866 78.28C331.853 77.6933 332.92 77.0667 334.066 76.4C335.213 75.7333 336.346 75.0533 337.466 74.36C338.586 73.6667 339.333 73.16 339.706 72.84ZM377.522 76.04C378.695 75.08 379.722 74.6933 380.602 74.88C381.482 75.0667 381.922 75.9067 381.922 77.4C381.975 77.88 381.882 78.36 381.642 78.84C381.402 79.32 381.149 79.7333 380.882 80.08C380.615 80.4267 380.229 80.8133 379.722 81.24C379.215 81.6667 378.802 81.9867 378.482 82.2C378.162 82.4133 377.695 82.72 377.082 83.12C376.469 83.52 376.109 83.7733 376.002 83.88C374.722 84.7333 373.415 85.4533 372.082 86.04C371.975 86.0933 371.829 86.16 371.642 86.24C371.455 86.32 371.255 86.4 371.042 86.48C370.829 86.56 370.615 86.64 370.402 86.72C370.189 86.8 370.015 86.8667 369.882 86.92L369.682 87C366.429 88.3333 362.935 89.1067 359.202 89.32C355.362 89.5333 352.562 89.1867 350.802 88.28C350.589 88.1733 349.735 87.8 348.242 87.16C346.749 86.52 345.682 85.96 345.042 85.48C343.815 84.68 342.642 82.9467 341.522 80.28C339.442 75.48 338.402 71.24 338.402 67.56C338.402 65.32 338.802 62.3867 339.602 58.76C339.655 58.5467 339.749 58.0933 339.882 57.4C340.015 56.7067 340.135 56.1867 340.242 55.84C340.349 55.4933 340.482 55.0133 340.642 54.4C340.802 53.7867 340.962 53.2667 341.122 52.84C341.282 52.4133 341.469 51.9733 341.682 51.52C341.895 51.0667 342.109 50.6533 342.322 50.28C343.442 48.7333 344.349 47.6133 345.042 46.92C347.922 43.9333 351.575 42.6 356.002 42.92C360.589 43.2933 363.069 44.8133 363.442 47.48C363.762 49.56 363.642 51.7067 363.082 53.92C362.522 56.1333 361.829 57.96 361.002 59.4C360.175 60.84 359.029 62.7067 357.562 65C356.095 67.2933 355.042 69.0533 354.402 70.28C352.055 74.7067 350.882 77.3467 350.882 78.2C350.882 78.8933 351.549 79.88 352.882 81.16C353.735 81.96 354.495 82.44 355.162 82.6C355.829 82.76 357.042 82.68 358.802 82.36C361.575 81.9867 364.589 81.32 367.842 80.36C369.069 79.9333 370.855 79.2133 373.202 78.2C375.549 77.1867 376.989 76.4667 377.522 76.04ZM346.482 70.36C346.962 70.36 348.295 68.28 350.482 64.12C352.615 59.96 353.682 57.4533 353.682 56.6C353.682 55.5867 353.135 54.9333 352.042 54.64C350.949 54.3467 350.082 54.6 349.442 55.4C348.909 56.04 348.375 57 347.842 58.28C347.309 59.56 346.882 60.8667 346.562 62.2C346.295 63.5333 346.055 64.8133 345.842 66.04C345.629 67.2667 345.575 68.2933 345.682 69.12C345.789 69.9467 346.055 70.36 346.482 70.36ZM385.378 80.92C384.791 80.6 384.711 79.4 385.138 77.32C385.564 75.24 386.284 73.8533 387.298 73.16C388.258 72.3067 389.684 71.9333 391.578 72.04C393.471 72.1467 395.218 72.6 396.818 73.4C398.471 74.3067 399.378 75.0533 399.538 75.64C399.698 76.2267 399.351 77.5867 398.498 79.72C397.484 81.96 396.458 83.4267 395.418 84.12C394.378 84.8133 392.711 85.1067 390.418 85C387.804 84.8933 386.497 84.28 386.497 83.16C386.497 82.04 386.124 81.2933 385.378 80.92Z" fill="white"/>
</svg>
