<svg width="876" height="121" viewBox="0 0 876 121" fill="none" xmlns="http://www.w3.org/2000/svg">
<path d="M86.36 65.4C89.5067 68.44 87.7467 70.3867 81.08 71.24C77.8267 71.56 74.36 72.2533 70.68 73.32C67.0533 74.3867 64.2267 74.9467 62.2 75H62.04C60.44 75.1067 59.5733 75.52 59.44 76.24C59.3067 76.96 59.5333 79.32 60.12 83.32C60.12 83.6933 60.1733 84.04 60.28 84.36C60.4933 86.28 60.52 87.6933 60.36 88.6C60.2 89.5067 59.7733 90.36 59.08 91.16C56.84 93.4533 54.2267 93.5867 51.24 91.56C49.5867 90.4933 48.9733 89.3333 49.4 88.08C49.8267 86.8267 49.72 86.0133 49.08 85.64C48.6 85.32 47.2667 85.5333 45.08 86.28L44.68 86.6C44.36 87.1333 43.4 87.8267 41.8 88.68C41.0533 89.0533 40.5467 89.32 40.28 89.48L37 91.48L36.44 91.72L34.04 92.04C32.8667 92.04 32.12 92.12 31.8 92.28C31.0533 92.4933 29.8533 92.7067 28.2 92.92C27.7733 92.9733 27.3733 92.9733 27 92.92C25.1333 92.8133 23.2533 92.3333 21.36 91.48C19.4667 90.6267 17.7467 89.5333 16.2 88.2C14.6533 86.8667 13.2267 85.52 11.92 84.16C10.6133 82.8 9.42667 81.3333 8.36 79.76C7.29333 78.1867 6.48 76.9733 5.92 76.12C5.36 75.2667 4.89333 74.4667 4.52 73.72C3.50667 73.1333 2.8 72.3867 2.4 71.48C2 70.5733 1.69333 69.5067 1.48 68.28C1.26667 67.0533 0.973333 66.0933 0.6 65.4C0.333334 64.8667 0.386667 64.36 0.76 63.88C1.13333 63.3467 1.61333 63.1333 2.2 63.24L6.84 63.72C9.18667 62.92 10.8933 62.7333 11.96 63.16C13.0267 63.5867 14.2533 64.76 15.64 66.68C16.3867 67.7467 17.24 68.56 18.2 69.12C19.16 69.68 20.4133 70.2 21.96 70.68L22.36 70.76C22.68 70.8667 23.1333 71.1067 23.72 71.48L24.12 71.72C24.4933 71.72 25.6133 71.8267 27.48 72.04C29.5067 72.3067 30.68 72.44 31 72.44C31.4267 72.44 32.4133 72.44 33.96 72.44C36.2 72.44 37.4533 72.4133 37.72 72.36L39 72.12C40.7067 71.8533 41.96 71.64 42.76 71.48L42.52 71.32C43.1067 71.0533 43.5067 70.6267 43.72 70.04C42.8667 67.8 42.08 65.4667 41.36 63.04C40.64 60.6133 39.92 57.6667 39.2 54.2C38.48 50.7333 38.16 47.3467 38.24 44.04C38.32 40.7333 38.8933 37.88 39.96 35.48L40.12 31.96C40.12 31.5333 40.2267 30.76 40.44 29.64C40.6 28.7867 40.68 28.28 40.68 28.12C40.7333 27.64 41 26.28 41.48 24.04L41.8 22.76C41.96 22.0133 42.0667 20.8933 42.12 19.4C42.12 19.2933 42.04 19.08 41.88 18.76C41.4 17.8 41.24 16.84 41.4 15.88C41.56 14.9733 41.9867 13.96 42.68 12.84C43 12.3067 43.4 11.6 43.88 10.72C44.36 9.83999 44.7333 9.18666 45 8.75999C45.2667 8.33333 45.64 7.82666 46.12 7.24C46.6 6.65333 47.1333 6.12 47.72 5.64C48.3067 5.16 49.0267 4.68 49.88 4.2C54.52 1.53333 58.3333 0.199993 61.32 0.199993C63.4 0.199993 65.32 0.919995 67.08 2.36C69.7467 3 71.8 4.38666 73.24 6.51999C75.2667 9.56 75.56 13.6133 74.12 18.68C71.6667 28.1733 70.0133 33.72 69.16 35.32C68.84 35.9067 68.0667 38.0133 66.84 41.64C65.88 44.4133 65.2133 46.2 64.84 47L64.92 47.08L64.76 47.24C64.4933 47.7733 64.2533 48.1467 64.04 48.36C63.6667 48.7333 62.8133 49.8 61.48 51.56C60.2 54.6533 59.2133 57.6667 58.52 60.6L58.68 60.44C58.3067 63.8533 59.32 65.8267 61.72 66.36L61.96 66.2C62.6533 66.5733 66.52 66.1733 73.56 65C78.7867 64.1467 81.9467 63.72 83.04 63.72C84.1333 63.72 85.24 64.28 86.36 65.4ZM31.88 84.6L39.32 81.24L35.8 80.68L28.76 79.08C26.7867 78.44 25.32 78.0933 24.36 78.04C23.88 78.04 23.2933 77.9067 22.6 77.64C21.9067 77.3733 21.08 77.1867 20.12 77.08C18.04 76.8667 16.44 76.4667 15.32 75.88C15.0533 75.72 14.68 75.5867 14.2 75.48C13.72 75.3733 13.32 75.2933 13 75.24H12.44C14.68 77.48 15.9867 78.8667 16.36 79.4C16.4667 79.5067 16.5867 79.6267 16.72 79.76C16.8533 79.8933 16.9867 80.0133 17.12 80.12C17.2533 80.2267 17.4267 80.36 17.64 80.52C17.8533 80.68 18.0533 80.8133 18.24 80.92C18.4267 81.0267 18.6933 81.1733 19.04 81.36C19.3867 81.5467 19.6933 81.72 19.96 81.88C22.2 83.2133 24.0667 83.9867 25.56 84.2L31.88 84.6ZM55.24 36.44L58.84 27.32C59.2667 24.2267 59.5867 22.4133 59.8 21.88C59.8 21.72 59.8533 21.1333 59.96 20.12C60.12 18.8933 60.2267 18.0667 60.28 17.64C60.4933 17 60.56 15.8267 60.48 14.12C60.4 12.4133 60.1733 11.3733 59.8 11C59.8 11 59.7467 11.0267 59.64 11.08C59.5333 11.1333 59.3733 11.24 59.16 11.4C58.9467 11.56 58.7333 11.7467 58.52 11.96L57.88 12.52L57.24 12.36C55.8 13.2667 54.6 16.5467 53.64 22.2C52.3067 26.7333 51.5867 29.2667 51.48 29.8C51.48 30.12 51.2933 30.68 50.92 31.48C50.3333 32.76 49.8533 33.9867 49.48 35.16C48.8933 37.1867 48.44 41.9333 48.12 49.4L48.36 54.2L49.08 57.24C49.2933 56.76 49.5067 56.2267 49.72 55.64L51.64 50.6L55.24 36.44ZM91.9531 18.44C90.5131 16.8933 89.9131 15.5867 90.1531 14.52C90.3931 13.4533 91.4998 12.0667 93.4731 10.36L97.0731 7.4C97.8731 7.4 99.1131 7.86666 100.793 8.8C102.473 9.73333 103.446 10.4667 103.713 11C106.593 17.9333 105.873 24.7067 101.553 31.32C100.38 33.1333 99.3131 34.2133 98.3531 34.56C97.3931 34.9067 96.1665 34.68 94.6731 33.88C93.4998 33.2933 92.7398 32.1467 92.3931 30.44C92.0465 28.7333 92.1665 26.7067 92.7531 24.36C93.2331 22.6533 93.4198 21.4533 93.3131 20.76C93.2065 20.0667 92.7531 19.2933 91.9531 18.44ZM181.316 80.84C182.489 79.88 183.516 79.4933 184.396 79.68C185.276 79.8667 185.742 80.7067 185.796 82.2C185.796 82.68 185.689 83.16 185.476 83.64C185.262 84.12 185.022 84.5333 184.756 84.88C184.489 85.2267 184.089 85.6133 183.556 86.04C183.022 86.4667 182.609 86.7867 182.316 87C182.022 87.2133 181.569 87.52 180.956 87.92C180.342 88.32 179.956 88.5733 179.796 88.68C178.142 89.8 176.542 91 174.996 92.28C172.916 93.9333 170.756 95.08 168.516 95.72C165.902 96.4667 163.876 96.8667 162.436 96.92C160.942 96.9733 159.102 96.68 156.916 96.04C154.836 95.5067 153.169 94.8 151.916 93.92C150.662 93.04 149.689 91.9067 148.996 90.52C148.302 89.1333 147.942 87.3867 147.916 85.28C147.889 83.1733 148.142 80.7867 148.676 78.12C149.156 75.4 149.956 72.12 151.076 68.28C151.396 67.32 151.289 66.84 150.756 66.84C149.316 66.84 146.516 69.4 142.356 74.52C138.196 79.64 134.969 84.44 132.676 88.92C131.076 92.0133 129.742 93.88 128.676 94.52C127.609 95.16 126.409 94.84 125.076 93.56C123.956 92.5467 123.422 91.5733 123.476 90.64C123.529 89.7067 124.222 87.72 125.556 84.68C126.676 82.44 127.236 80.8933 127.236 80.04C127.236 79.2933 127.796 77.7467 128.916 75.4C129.662 72.7333 129.902 71.32 129.636 71.16C129.049 71.16 127.889 72.1067 126.156 74C124.422 75.8933 122.609 78.16 120.716 80.8C118.822 83.44 117.396 85.6667 116.436 87.48C114.942 90.2533 113.582 92.0133 112.356 92.76C111.129 93.5067 109.902 93.3467 108.676 92.28C107.502 91.2133 107.049 89.8933 107.316 88.32C107.582 86.7467 108.649 84.1733 110.516 80.6C111.049 79.48 111.569 77.84 112.076 75.68C112.582 73.52 113.076 71.9867 113.556 71.08C115.316 67.2933 117.236 64.6 119.316 63C119.796 62.6267 120.302 62.2933 120.836 62C121.369 61.7067 121.916 61.52 122.476 61.44C123.036 61.36 123.409 61.5333 123.596 61.96C123.782 62.3867 123.769 63.1067 123.556 64.12C123.076 65.7733 123.262 66.52 124.116 66.36C124.756 66.3067 125.502 65.5867 126.356 64.2C127.582 62.3333 129.022 60.8133 130.676 59.64C131.316 59.2133 131.849 58.8933 132.276 58.68C132.809 58.4667 133.156 58.3333 133.316 58.28C133.582 58.12 133.956 58.0667 134.436 58.12C134.916 58.1733 135.262 58.2267 135.476 58.28C135.689 58.28 136.116 58.3867 136.756 58.6C137.449 58.8133 137.982 58.9467 138.356 59C139.849 59.32 140.596 59.7467 140.596 60.28C140.702 60.3867 140.782 61.1867 140.836 62.68C140.942 63.3733 141.076 63.88 141.236 64.2C141.396 64.52 141.716 64.6667 142.196 64.64C142.676 64.6133 143.262 64.4267 143.956 64.08C144.649 63.7333 145.689 63.1067 147.076 62.2C150.276 60.1733 153.022 59 155.316 58.68C157.022 58.52 158.089 58.56 158.516 58.8C158.942 59.04 159.396 59.6667 159.876 60.68C160.516 62.3333 160.649 64.44 160.276 67C159.902 69.56 159.209 71.96 158.196 74.2C157.022 76.44 156.436 78.1467 156.436 79.32C156.436 80.28 156.142 81.6933 155.556 83.56C154.969 85.16 155.062 86.6533 155.836 88.04C156.609 89.4267 157.822 90.28 159.476 90.6C160.436 90.76 161.689 90.68 163.236 90.36C163.662 90.2533 166.249 89.1867 170.996 87.16C170.996 87.16 171.489 86.8667 172.476 86.28C173.462 85.6933 174.529 85.0667 175.676 84.4C176.822 83.7333 177.956 83.0533 179.076 82.36C180.196 81.6667 180.942 81.16 181.316 80.84ZM288.496 82.44C289.669 81.4267 290.696 81.0133 291.576 81.2C292.456 81.3867 292.896 82.2533 292.896 83.8C292.896 84.2267 292.789 84.68 292.576 85.16C292.362 85.64 292.122 86.0533 291.856 86.4C291.589 86.7467 291.189 87.1467 290.656 87.6C290.122 88.0533 289.709 88.3867 289.416 88.6C289.122 88.8133 288.669 89.12 288.056 89.52C287.442 89.92 287.082 90.1733 286.976 90.28C285.696 91.1333 284.389 91.8533 283.056 92.44C282.842 92.4933 282.389 92.72 281.696 93.12C281.002 93.52 280.296 93.9067 279.576 94.28C278.856 94.6533 278.016 95.0667 277.056 95.52C276.096 95.9733 275.242 96.3067 274.496 96.52C273.749 96.7333 272.976 96.8933 272.176 97C271.376 97.1067 270.816 97 270.496 96.68C268.469 96.5733 265.856 95.5867 262.656 93.72C258.282 91.2133 255.829 88.7867 255.296 86.44C254.816 84.84 254.282 84.04 253.696 84.04C253.162 84.04 250.202 86.2533 244.816 90.68C240.282 94.1467 236.989 96.2933 234.936 97.12C232.882 97.9467 230.896 97.8 228.976 96.68C227.109 95.7733 225.389 94.32 223.816 92.32C222.242 90.32 221.456 88.6 221.456 87.16C221.456 85.4533 221.936 82.8667 222.896 79.4C223.856 75.9333 224.602 73.9333 225.136 73.4C225.829 72.6533 226.176 71.4267 226.176 69.72C226.176 68.76 226.642 67.4267 227.576 65.72C228.509 64.0133 228.976 62.6533 228.976 61.64C228.976 60.2533 229.296 59.3467 229.936 58.92C230.576 58.4933 231.856 56.2267 233.776 52.12C235.696 48.0133 237.029 44.6 237.776 41.88C238.416 39.64 239.362 37.5733 240.616 35.68C241.869 33.7867 242.762 33 243.296 33.32C243.829 33.64 246.336 31.9867 250.816 28.36C254.336 25.4267 257.242 23.3067 259.536 22C261.829 20.6933 264.816 19.4533 268.496 18.28C271.696 17.32 273.696 16.8667 274.496 16.92C275.242 17.0267 276.656 17.9333 278.736 19.64C280.176 20.8133 281.122 21.8 281.576 22.6C282.029 23.4 282.256 24.6267 282.256 26.28C282.256 28.84 281.002 33.1067 278.496 39.08C277.856 40.4133 276.842 43.0533 275.456 47C274.229 50.9467 272.976 53.96 271.696 56.04C270.629 57.8 269.882 60.04 269.456 62.76C269.082 65.16 268.576 67.0533 267.936 68.44C267.776 68.76 266.842 71.32 265.136 76.12C264.122 78.7867 263.602 80.5733 263.576 81.48C263.549 82.3867 263.882 83.5067 264.576 84.84C265.642 86.8133 266.869 87.8 268.256 87.8C269.856 88.0133 271.402 88.7867 272.896 90.12C273.002 90.1733 273.082 90.2133 273.136 90.24C273.189 90.2667 273.242 90.32 273.296 90.4C273.349 90.48 273.402 90.52 273.456 90.52C273.989 90.2533 274.882 89.9067 276.136 89.48C277.389 89.0533 278.256 88.7067 278.736 88.44C282.842 86.3067 286.096 84.3067 288.496 82.44ZM259.296 58.92C261.109 56.0933 262.469 53.32 263.376 50.6C264.656 46.76 265.722 44.1733 266.576 42.84C267.482 41.56 267.936 40.2 267.936 38.76C267.936 37.4267 268.256 36.52 268.896 36.04C269.322 35.7733 270.256 34.36 271.696 31.8C273.136 29.24 273.549 27.6933 272.936 27.16C272.322 26.6267 270.816 26.6533 268.416 27.24C266.016 27.8267 263.936 28.6533 262.176 29.72C260.469 30.84 258.469 32.68 256.176 35.24C253.882 37.8 252.736 39.48 252.736 40.28C252.736 40.8667 251.322 42.8267 248.496 46.16C245.669 49.4933 244.256 51.56 244.256 52.36C244.256 53.16 243.162 55.1067 240.976 58.2C238.736 61.5067 237.296 64.4667 236.656 67.08C235.802 70.12 235.136 72.04 234.656 72.84C234.122 74.0133 233.856 75 233.856 75.8C233.856 76.7067 233.322 78.1467 232.256 80.12C231.349 81.9333 231.082 83.2 231.456 83.92C231.829 84.64 232.949 85 234.816 85C235.989 85 237.762 84.2133 240.136 82.64C242.509 81.0667 244.229 79.48 245.296 77.88C245.509 77.7733 245.776 77.48 246.096 77C246.522 76.4133 246.976 75.8 247.456 75.16C247.989 74.4133 248.496 73.7467 248.976 73.16C254.042 66.4933 257.482 61.7467 259.296 58.92ZM300.274 66.12C298.514 68.2533 296.994 70.2533 295.714 72.12C294.434 73.9867 293.848 75.16 293.954 75.64C293.954 76.4933 294.701 78.44 296.194 81.48C298.008 84.9467 300.114 86.68 302.514 86.68C302.994 86.68 303.488 86.6267 303.994 86.52C304.501 86.4133 305.141 86.2267 305.914 85.96C306.688 85.6933 307.181 85.5333 307.394 85.48C307.981 85.32 308.941 84.84 310.274 84.04C311.928 83.0267 313.501 81.9333 314.994 80.76C316.168 79.7467 317.194 79.3333 318.074 79.52C318.954 79.7067 319.421 80.5467 319.474 82.04C319.474 82.52 319.354 83 319.114 83.48C318.874 83.96 318.621 84.3733 318.354 84.72C318.088 85.0667 317.701 85.4667 317.194 85.92C316.688 86.3733 316.274 86.7067 315.954 86.92C315.634 87.1333 315.181 87.44 314.594 87.84C314.008 88.24 313.634 88.4933 313.474 88.6C313.048 88.8667 312.408 89.2667 311.554 89.8C310.701 90.3333 310.061 90.7333 309.634 91C307.821 92.2267 305.981 92.9467 304.114 93.16C302.301 93.4267 300.941 93.44 300.034 93.2C299.128 92.96 297.794 92.2533 296.034 91.08C293.794 89.5333 291.981 87.8533 290.594 86.04C289.208 84.2267 288.274 82.4933 287.794 80.84C287.314 79.1867 287.074 77.2667 287.074 75.08C287.074 72.8933 287.208 70.9333 287.474 69.2C287.741 67.4667 288.074 65.3333 288.474 62.8C288.874 60.2667 289.101 58.0933 289.154 56.28C289.208 55.5867 289.274 54.8667 289.354 54.12C289.434 53.3733 289.514 52.6933 289.594 52.08C289.674 51.4667 289.794 50.7333 289.954 49.88C290.114 49.0267 290.234 48.36 290.314 47.88C290.394 47.4 290.568 46.6933 290.834 45.76C291.101 44.8267 291.274 44.1733 291.354 43.8C291.434 43.4267 291.621 42.72 291.914 41.68C292.208 40.64 292.394 39.9867 292.474 39.72C292.554 39.4533 292.768 38.7467 293.114 37.6C293.461 36.4533 293.661 35.7733 293.714 35.56C294.301 33.5867 294.808 32.1467 295.234 31.24C295.714 30.28 296.368 29.3333 297.194 28.4C298.021 27.4667 298.768 26.7067 299.434 26.12C300.101 25.5333 300.994 24.7867 302.114 23.88C302.541 23.56 303.274 22.9733 304.314 22.12C305.354 21.2667 306.114 20.6667 306.594 20.32C307.074 19.9733 307.728 19.4933 308.554 18.88C309.381 18.2667 310.181 17.7333 310.954 17.28C311.728 16.8267 312.568 16.3867 313.474 15.96C315.501 14.9467 317.074 14.5733 318.194 14.84C319.048 15.0533 319.768 15.52 320.354 16.24C320.941 16.96 321.341 17.7733 321.554 18.68C321.714 19.32 321.834 19.9733 321.914 20.64C321.994 21.3067 322.008 22.0267 321.954 22.8C321.901 23.5733 321.861 24.2267 321.834 24.76C321.808 25.2933 321.688 26.0133 321.474 26.92C321.261 27.8267 321.114 28.48 321.034 28.88C320.954 29.28 320.741 29.9733 320.394 30.96C320.048 31.9467 319.834 32.5733 319.754 32.84C319.674 33.1067 319.434 33.7867 319.034 34.88C318.634 35.9733 318.408 36.6 318.354 36.76C317.021 40.3333 315.954 42.68 315.154 43.8C314.621 44.5467 313.074 47.3467 310.514 52.2C307.901 57.0533 306.088 59.96 305.074 60.92C303.634 62.2533 302.034 63.9867 300.274 66.12ZM299.234 46.68C298.648 47.2133 297.968 49.0267 297.194 52.12C296.421 55.2133 296.274 57 296.754 57.48C297.021 57.6933 297.461 57.4667 298.074 56.8C298.688 56.1333 299.434 55.0933 300.314 53.68C301.194 52.2667 302.061 50.5733 302.914 48.6C304.674 45.08 305.554 43.16 305.554 42.84C305.554 42.68 306.381 40.8667 308.034 37.4C309.688 33.9867 310.514 31.9067 310.514 31.16C310.514 29.6133 309.821 29.4533 308.434 30.68C307.528 31.3733 306.648 32.4667 305.794 33.96C304.461 36.4133 303.208 38.3867 302.034 39.88C300.968 41.2667 300.434 42.5733 300.434 43.8C300.434 44.9733 300.034 45.9333 299.234 46.68ZM367.142 78.76C365.222 78.44 363.595 77.9867 362.262 77.4C361.729 77.1867 360.622 76.4133 358.942 75.08C357.262 73.7467 356.075 73.0267 355.382 72.92C354.529 72.8667 353.742 73 353.022 73.32C352.302 73.64 351.675 74.08 351.142 74.64C350.609 75.2 350.062 75.88 349.502 76.68C348.942 77.48 348.475 78.2533 348.102 79C347.729 79.7467 347.315 80.5467 346.862 81.4C346.409 82.2533 345.995 82.9467 345.622 83.48C345.089 84.2267 343.902 85.24 342.062 86.52C340.222 87.8 338.422 88.9867 336.662 90.08C334.902 91.1733 333.969 91.7733 333.862 91.88C333.169 92.4133 331.795 92.7733 329.742 92.96C327.689 93.1467 325.622 93.0133 323.542 92.56C321.462 92.1067 320.129 91.3733 319.542 90.36C319.275 89.9333 319.049 89.2 318.862 88.16C318.675 87.12 318.542 86.1333 318.462 85.2C318.382 84.2667 318.289 83.16 318.182 81.88C318.075 80.6 318.022 79.7467 318.022 79.32C317.702 76.7067 317.942 74.6267 318.742 73.08C319.009 72.6533 319.342 71.0533 319.742 68.28C320.142 65.5067 320.689 62.4533 321.382 59.12C322.075 55.7867 322.902 53.2667 323.862 51.56C326.049 47.88 328.902 48.04 332.422 52.04C333.275 53 333.595 54.7333 333.382 57.24C333.222 59.7467 332.582 62.2267 331.462 64.68C330.822 66.1733 330.022 68.4133 329.062 71.4C328.049 74.3333 327.382 76.2 327.062 77C325.942 79.9333 325.995 82.2 327.222 83.8C327.489 84.1733 327.995 84.28 328.742 84.12C329.489 83.96 330.302 83.6533 331.182 83.2C332.062 82.7467 332.862 82.2667 333.582 81.76C334.302 81.2533 334.822 80.8133 335.142 80.44C336.262 79.2133 337.822 76.64 339.822 72.72C341.822 68.8 342.982 66.0133 343.302 64.36C343.729 62.6 344.595 60.9067 345.902 59.28C347.209 57.6533 348.662 56.36 350.262 55.4C351.862 54.44 353.515 54.12 355.222 54.44C356.929 54.76 358.315 55.88 359.382 57.8C359.862 58.7067 360.302 60.3867 360.702 62.84C361.102 65.2933 361.835 67.1333 362.902 68.36C363.915 69.5333 364.995 70.36 366.142 70.84C367.289 71.32 368.702 71.68 370.382 71.92C372.062 72.16 373.382 72.44 374.342 72.76C375.462 73.1867 376.355 73.9333 377.022 75C377.689 76.0667 377.729 77.0533 377.142 77.96C376.395 79.1867 374.689 79.6667 372.022 79.4C369.889 79.1867 368.262 78.9733 367.142 78.76ZM422.028 83.24C423.041 82.44 423.908 82.1067 424.628 82.24C425.348 82.3733 425.708 83.08 425.708 84.36C425.708 84.6267 425.655 84.9067 425.548 85.2C425.441 85.4933 425.321 85.76 425.188 86C425.055 86.24 424.855 86.4933 424.588 86.76C424.321 87.0267 424.081 87.2667 423.868 87.48C423.655 87.6933 423.388 87.92 423.068 88.16C422.748 88.4 422.481 88.5867 422.268 88.72C422.055 88.8533 421.788 89.0267 421.468 89.24C421.148 89.4533 420.908 89.6133 420.748 89.72C419.735 90.4133 418.668 91 417.548 91.48C417.441 91.5333 416.801 91.8533 415.628 92.44L415.228 92.92C413.788 94.3067 411.708 95.16 408.988 95.48C407.281 95.6933 405.961 95.7067 405.028 95.52C404.095 95.3333 402.801 94.8667 401.148 94.12C398.695 92.9467 397.068 91.9867 396.268 91.24C395.735 90.8133 395.281 90.6267 394.908 90.68C394.535 90.7333 393.841 91.16 392.828 91.96C389.575 94.3067 385.695 95.6267 381.188 95.92C376.681 96.2133 373.735 95.32 372.348 93.24C371.495 91.9067 371.108 89.32 371.188 85.48C371.268 81.64 371.761 78.8933 372.668 77.24C373.468 75.8 374.081 74.7333 374.508 74.04C374.988 73.3467 375.441 72.7067 375.868 72.12C376.295 71.48 377.015 70.5467 378.028 69.32C381.388 65.16 384.028 62.3067 385.948 60.76C387.441 59.5867 389.201 58.5867 391.228 57.76C393.255 56.9333 395.375 56.3867 397.588 56.12C399.801 55.8533 401.761 56.1467 403.468 57C405.548 58.0667 406.828 59.8933 407.308 62.48C407.788 65.0667 407.735 67.5733 407.148 70C406.561 72.4267 405.735 74.7067 404.668 76.84C403.761 78.8667 403.081 81.08 402.628 83.48C402.175 85.88 402.188 87.4533 402.668 88.2C403.681 90.2267 407.015 90.36 412.668 88.6C412.881 88.5467 413.095 88.52 413.308 88.52C413.628 88.4133 413.868 88.3067 414.028 88.2C417.441 86.44 420.108 84.7867 422.028 83.24ZM397.868 68.2C398.455 67.88 398.775 67.6133 398.828 67.4C398.881 67.1867 398.748 66.92 398.428 66.6C397.788 65.9067 396.881 65.4533 395.708 65.24C394.535 65.0267 393.388 65.08 392.268 65.4C391.148 65.6667 389.455 66.7333 387.188 68.6C384.921 70.4667 383.388 72.0667 382.588 73.4C381.521 74.9467 380.615 76.3333 379.868 77.56C378.961 78.84 378.348 80.7067 378.028 83.16C377.708 85.6133 377.841 87.2133 378.428 87.96C378.961 88.6 380.135 88.92 381.948 88.92C383.761 88.92 385.468 88.6267 387.068 88.04C388.615 87.2933 389.761 86.1733 390.508 84.68C391.788 82.1733 392.828 80.1467 393.628 78.6C395.015 76.2 395.708 74.5733 395.708 73.72C395.708 73.1867 395.935 72.64 396.388 72.08C396.841 71.52 396.961 70.92 396.748 70.28C396.481 69.4267 396.855 68.7333 397.868 68.2ZM472.028 80.04C473.148 79.0267 474.148 78.6133 475.028 78.8C475.908 78.9867 476.375 79.8267 476.428 81.32C476.428 81.7467 476.361 82.16 476.228 82.56C476.095 82.96 475.881 83.3333 475.588 83.68C475.295 84.0267 475.001 84.36 474.708 84.68C474.415 85 474.055 85.32 473.628 85.64C473.201 85.96 472.841 86.2267 472.548 86.44C472.255 86.6533 471.868 86.9067 471.388 87.2C470.908 87.4933 470.588 87.72 470.428 87.88C469.148 88.7333 467.841 89.4267 466.508 89.96C466.401 90.0133 466.241 90.0933 466.028 90.2C465.921 90.4667 465.708 90.68 465.388 90.84C465.068 91 464.588 91.16 463.948 91.32C462.721 92.0133 460.908 92.4933 458.508 92.76C456.108 93.0267 453.921 93.0933 451.948 92.96C449.975 92.8267 448.695 92.6 448.108 92.28C447.628 91.96 447.095 91.2933 446.508 90.28C445.921 89.2667 445.415 88.2533 444.988 87.24C444.561 86.2267 444.295 85.4533 444.188 84.92C443.815 83.3733 443.681 81.72 443.788 79.96C443.948 78.1467 444.241 75.32 444.668 71.48V70.36C444.668 70.0933 444.575 69.8933 444.388 69.76C444.201 69.6267 443.948 69.5333 443.628 69.48C443.308 69.48 442.881 69.48 442.348 69.48C441.708 69.48 440.988 69.3733 440.188 69.16C439.388 68.9467 438.601 68.7467 437.828 68.56C437.055 68.3733 436.375 68.28 435.788 68.28C435.841 68.28 435.655 69.12 435.228 70.8C434.801 72.48 434.255 74.2533 433.588 76.12C432.921 77.9867 432.321 79.08 431.788 79.4C429.868 80.52 427.841 81.32 425.708 81.8C422.935 82.44 424.188 76.3867 429.468 63.64C429.575 63.32 429.841 62.6533 430.268 61.64C430.695 60.6267 430.988 59.92 431.148 59.52C431.308 59.12 431.561 58.48 431.908 57.6C432.255 56.72 432.508 56 432.668 55.44C432.828 54.88 433.001 54.2 433.188 53.4C433.375 52.6 433.508 51.84 433.588 51.12C433.668 50.4 433.708 49.6667 433.708 48.92C433.708 48.0667 434.255 46.5467 435.348 44.36C436.441 42.1733 437.308 40.84 437.948 40.36C438.801 39.88 439.961 39.7067 441.428 39.84C442.895 39.9733 443.868 40.3067 444.348 40.84C444.988 41.64 444.988 44.7333 444.348 50.12C443.868 53.64 443.655 55.9067 443.708 56.92C443.761 57.9867 444.055 58.84 444.588 59.48C445.228 60.0133 445.788 60.2667 446.268 60.24C446.748 60.2133 447.655 59.8 448.988 59C450.961 57.88 452.388 57.3467 453.268 57.4C454.148 57.4533 454.961 58.0667 455.708 59.24C456.295 60.0933 456.561 60.8667 456.508 61.56C456.455 62.2533 456.055 63.5867 455.308 65.56C454.241 68.3867 453.281 71.6133 452.428 75.24C451.788 78.12 451.588 80.2533 451.828 81.64C452.068 83.0267 452.935 84.6533 454.428 86.52C455.068 87.4267 455.575 87.9333 455.948 88.04C456.108 88.0933 456.388 88.0533 456.788 87.92C457.188 87.7867 457.615 87.6267 458.068 87.44C458.521 87.2533 458.828 87.1333 458.988 87.08C460.641 86.6533 461.735 86.3067 462.268 86.04C466.375 83.9067 469.628 81.9067 472.028 80.04ZM517.394 77.64C518.194 78.0667 518.594 79 518.594 80.44C518.647 82.0933 517.714 83.64 515.794 85.08C515.1 85.56 514.3 86.04 513.394 86.52C513.234 86.5733 513.047 86.68 512.834 86.84C512.087 87.2667 511.447 87.5067 510.914 87.56C509.314 87.6667 507.767 87.0267 506.274 85.64C505.9 85.32 505.5 84.76 505.074 83.96L504.834 83.56C504.354 82.76 503.9 82.2533 503.474 82.04C503.047 81.8267 502.514 81.88 501.874 82.2C501.074 82.6267 500.167 83.9333 499.154 86.12C498.674 87.24 498.274 88.0133 497.954 88.44C496.94 89.9333 496.06 90.7867 495.314 91C494.354 91.48 493.047 92.2267 491.394 93.24C489.367 94.4667 487.447 95.1333 485.634 95.24C483.554 95.4 482.007 95.6133 480.994 95.88C480.727 95.9333 480.46 95.96 480.194 95.96C479.607 95.96 479.1 95.8533 478.674 95.64C478.034 95.3733 477.1 94.6533 475.874 93.48C474.54 92.2533 473.634 91.1733 473.154 90.24C472.674 89.3067 472.194 87.6667 471.714 85.32C470.914 81.48 470.727 78.4 471.154 76.08C471.58 73.76 472.754 71.0533 474.674 67.96C477.127 64.0133 479.447 61.16 481.634 59.4C483.82 57.64 486.514 56.3867 489.714 55.64C491.26 55.32 492.62 54.76 493.794 53.96C495.66 52.7333 497.314 52.28 498.754 52.6C500.14 52.8667 501.74 53.96 503.554 55.88C504.514 56.9467 505.207 57.8 505.634 58.44C506.06 59.08 506.354 59.6933 506.514 60.28C506.674 60.8667 506.754 61.72 506.754 62.84C506.754 67.5867 506.914 71.2667 507.234 73.88C507.394 75.4267 507.754 76.6133 508.314 77.44C508.874 78.2667 509.847 79.2667 511.234 80.44L511.474 80.28C512.434 79.64 513.127 79.1333 513.554 78.76C515.154 77.5333 516.434 77.16 517.394 77.64ZM498.914 63.88C498.914 61.8 498.7 60.6533 498.274 60.44C498.167 60.5467 498.06 60.68 497.954 60.84C497.687 61.32 497.714 62.4133 498.034 64.12C498.247 65.3467 498.46 66.12 498.674 66.44C498.834 66.0133 498.914 65.16 498.914 63.88ZM496.594 76.2C496.807 74.9733 496.78 74.0933 496.514 73.56C496.3 73.0267 495.634 72.2 494.514 71.08C492.754 69.3733 491.874 67.96 491.874 66.84C491.874 66.0933 491.634 65.2133 491.154 64.2C490.674 63.1867 490.194 62.52 489.714 62.2C489.34 61.9333 489.02 61.8 488.754 61.8C488.54 61.8 488.354 61.8533 488.194 61.96C487.66 62.2267 486.567 63.2133 484.914 64.92C483.474 66.36 482.127 68.2 480.874 70.44C479.62 72.68 478.7 74.7867 478.114 76.76C477.527 78.6267 477.42 79.9867 477.794 80.84C478.22 81.64 478.46 83 478.514 84.92C478.674 86.36 478.887 87.4267 479.154 88.12C479.42 88.7067 479.82 89.1067 480.354 89.32C480.94 89.5867 481.9 89.72 483.234 89.72C483.874 89.72 484.407 89.6933 484.834 89.64C485.26 89.64 485.66 89.5867 486.034 89.48C486.407 89.3733 486.754 89.24 487.074 89.08C487.447 88.8667 487.82 88.6267 488.194 88.36C488.567 88.0933 489.02 87.7467 489.554 87.32C491.58 85.72 492.727 84.44 492.994 83.48C493.314 82.4667 493.954 81.4 494.914 80.28C495.767 79.3733 496.327 78.0133 496.594 76.2ZM578.194 47.16C581.447 40.2267 583.074 36.2 583.074 35.08C583.074 34.4933 583.26 33.9867 583.634 33.56C584.007 33.1333 584.354 32.7067 584.674 32.28C585.047 31.8533 585.234 31.32 585.234 30.68C584.807 29.4533 583.434 29.2 581.114 29.92C578.794 30.64 577.314 31.2933 576.674 31.88C574.54 33.64 572.207 34.1867 569.674 33.52C567.14 32.8533 565.874 31.3467 565.874 29C565.874 28.0933 566.994 26.8267 569.234 25.2C571.474 23.5733 573.26 22.76 574.594 22.76C575.394 22.76 577.207 22.16 580.034 20.96C582.86 19.76 584.38 19.16 584.594 19.16C585.82 18.84 589.98 18.8 597.074 19.04C604.167 19.28 609.5 19.6667 613.074 20.2C616.327 20.6267 619.874 22.36 623.714 25.4C628.62 28.92 631.02 32.5867 630.914 36.4C630.807 40.2133 628.274 45.72 623.314 52.92C620.86 56.3867 618.914 59 617.474 60.76C616.087 62.52 614.927 63.76 613.994 64.48C613.06 65.2 612.194 65.56 611.394 65.56C610.007 65.56 608.7 66.1733 607.474 67.4C605.34 69.8 601.38 72.04 595.594 74.12C589.807 76.2 585.234 77.0533 581.874 76.68C580.86 76.68 579.994 76.6267 579.274 76.52C578.554 76.4133 577.874 76.5733 577.234 77C576.54 77.3733 575.954 77.7733 575.474 78.2C574.994 78.5733 574.46 79.2933 573.874 80.36C573.34 81.48 572.807 82.6267 572.274 83.8C571.794 85.0267 571.18 86.6533 570.434 88.68C569.527 91.3467 568.82 93.2267 568.314 94.32C567.807 95.4133 567.3 96.1733 566.794 96.6C566.287 97.0267 565.634 97.24 564.834 97.24C563.127 97.24 561.767 96.3067 560.754 94.44C560.007 93.16 559.767 91.96 560.034 90.84C560.3 89.72 561.34 87.24 563.154 83.4C565.714 77.9067 566.834 74.84 566.514 74.2C566.087 73.72 564.007 73.64 560.274 73.96C557.607 74.12 555.874 74.08 555.074 73.84C554.274 73.6 553.474 72.8133 552.674 71.48C551.767 70.0933 551.314 69.1467 551.314 68.64C551.314 68.1333 551.82 67.2133 552.834 65.88C554.06 64.12 556.74 62.56 560.874 61.2C565.007 59.84 567.634 59.6133 568.754 60.52C569.5 61.0533 570.474 61.0133 571.674 60.4C572.874 59.7867 573.474 59.0267 573.474 58.12C573.474 57.3733 575.047 53.72 578.194 47.16ZM620.994 35.08C620.567 32.9467 620.127 31.5867 619.674 31C619.22 30.4133 618.194 29.64 616.594 28.68C614.78 27.7733 611.847 27.1333 607.794 26.76C602.087 26.2267 598.14 26.4933 595.954 27.56C593.767 28.6267 592.674 30.7867 592.674 34.04C592.674 36.4933 592.327 37.92 591.634 38.32C590.94 38.72 590.594 39.5333 590.594 40.76C590.594 42.2533 587.18 49.9067 580.354 63.72C578.86 66.8667 579.66 68.44 582.754 68.44C584.834 68.44 587.447 67.7733 590.594 66.44C602.22 61.6933 611.127 54.4933 617.314 44.84C619.18 42.2267 620.34 40.28 620.794 39C621.247 37.72 621.314 36.4133 620.994 35.08ZM673.827 80.76C675 79.7467 676.027 79.3333 676.907 79.52C677.787 79.7067 678.227 80.5467 678.227 82.04C678.227 82.4667 678.16 82.88 678.027 83.28C677.894 83.68 677.694 84.0667 677.427 84.44C677.16 84.8133 676.88 85.1467 676.587 85.44C676.294 85.7333 675.92 86.04 675.467 86.36C675.014 86.68 674.654 86.9467 674.387 87.16C674.12 87.3733 673.747 87.64 673.267 87.96C672.787 88.28 672.467 88.4933 672.307 88.6C672.254 88.6 672.174 88.6267 672.067 88.68C671.96 88.7333 671.907 88.7867 671.907 88.84C671.747 88.9467 671.534 89.0933 671.267 89.28C671 89.4667 670.814 89.5867 670.707 89.64C668.894 90.92 667.267 91.8 665.827 92.28C664.387 92.6533 662.6 92.9467 660.467 93.16C655.027 93.7467 650.974 92.4933 648.307 89.4C645.64 86.3067 643.747 80.6533 642.627 72.44C642.307 69.8267 641.96 68.52 641.587 68.52C641.267 68.52 639.374 70.0133 635.907 73C633.934 74.8133 632.52 76.2533 631.667 77.32C631.24 77.7467 630.867 78.3067 630.547 79C630.227 79.6933 629.907 80.52 629.587 81.48C629.267 82.44 629.027 83.08 628.867 83.4C628.707 83.7733 628.334 84.6533 627.747 86.04L626.547 89C626.334 89.48 626.2 90.2667 626.147 91.36C626.094 92.4533 625.894 93.32 625.547 93.96C625.2 94.6 624.547 95 623.587 95.16C621.72 95.4267 620.12 94.6 618.787 92.68C617.934 91.5067 617.48 90.6267 617.427 90.04C617.374 89.4533 617.667 88.36 618.307 86.76C618.467 86.44 618.6 86.12 618.707 85.8C618.814 85.5333 618.987 85.04 619.227 84.32C619.467 83.6 619.627 83.12 619.707 82.88C619.787 82.64 619.934 82.2133 620.147 81.6C620.36 80.9867 620.534 80.52 620.667 80.2C620.8 79.88 620.974 79.4533 621.187 78.92C621.4 78.3867 621.6 77.9333 621.787 77.56C621.974 77.1867 622.187 76.76 622.427 76.28C622.667 75.8 622.92 75.32 623.187 74.84C624.2 73.0267 624.96 70.24 625.467 66.48C625.974 62.72 626.307 60.5733 626.467 60.04C627.374 56.2533 629.16 50.84 631.827 43.8C632.307 42.4667 632.867 40.4533 633.507 37.76C634.147 35.0667 634.787 32.56 635.427 30.24C636.067 27.92 636.867 25.5333 637.827 23.08C638.787 20.6267 640.08 18.5467 641.707 16.84C643.334 15.1333 645.214 14.0133 647.347 13.48C649.16 13.0533 650.64 13.1467 651.787 13.76C652.934 14.3733 653.72 15.2933 654.147 16.52C654.574 17.7467 654.8 19.2 654.827 20.88C654.854 22.56 654.774 24.0667 654.587 25.4C654.4 26.7333 654.147 28.0133 653.827 29.24C653.24 31.2133 652.307 33.5067 651.027 36.12C649.747 38.68 648.867 40.52 648.387 41.64C647.64 43.72 646.6 45.8267 645.267 47.96C644.627 48.8667 643.68 50.3733 642.427 52.48C641.174 54.5867 640.147 56.12 639.347 57.08C638.227 58.5733 637 60.04 635.667 61.48C635.507 61.64 635.187 61.9467 634.707 62.4C634.227 62.8533 633.814 63.28 633.467 63.68C633.12 64.08 632.894 64.4667 632.787 64.84C632.734 65 632.774 65.1867 632.907 65.4C633.04 65.6133 633.187 65.6933 633.347 65.64C633.454 65.64 633.587 65.5867 633.747 65.48C634.174 65.16 634.76 64.6267 635.507 63.88C636.254 63.1333 636.96 62.5467 637.627 62.12C638.294 61.6933 639 61.4267 639.747 61.32C640.174 61.2667 640.6 61.2133 641.027 61.16C643.32 60.8933 645.174 61.1067 646.587 61.8C648 62.4933 649.187 63.7467 650.147 65.56C651 67.4267 651.427 69.56 651.427 71.96C651.427 74.0933 651.774 76.6 652.467 79.48C653.107 82.36 653.827 84.52 654.627 85.96C655.107 86.8133 655.64 87.32 656.227 87.48C656.814 87.64 658.014 87.6133 659.827 87.4C662.014 87.1333 663.8 86.7333 665.187 86.2C668.814 84.28 671.694 82.4667 673.827 80.76ZM642.787 31.88C642.68 32.0933 642.52 32.4 642.307 32.8C642.094 33.2 641.907 33.5733 641.747 33.92C641.587 34.2667 641.427 34.6 641.267 34.92C640.094 37.3733 639.16 39.9333 638.467 42.6C638.2 43.6133 637.88 44.64 637.507 45.68C637.134 46.72 636.667 47.96 636.107 49.4C635.547 50.84 635.16 51.8267 634.947 52.36C634.627 53.2133 634.68 53.7733 635.107 54.04C635.32 54.2 635.614 54.0933 635.987 53.72C636.84 52.8667 637.56 51.92 638.147 50.88C638.734 49.84 639.307 48.6267 639.867 47.24C640.427 45.8533 640.894 44.7867 641.267 44.04C642.814 41.2133 644.12 37.6667 645.187 33.4C645.294 33.1333 645.507 32.64 645.827 31.92C646.147 31.2 646.414 30.56 646.627 30C646.84 29.44 646.987 28.8133 647.067 28.12C647.147 27.4267 647 26.9733 646.627 26.76C646.254 26.44 645.8 26.6 645.267 27.24C644.84 27.6667 644.28 28.6533 643.587 30.2C643.374 30.7333 643.107 31.2933 642.787 31.88ZM720.668 80.76C721.841 79.7467 722.868 79.3333 723.748 79.52C724.628 79.7067 725.068 80.5467 725.068 82.04C725.068 82.52 724.961 83 724.748 83.48C724.534 83.96 724.294 84.3733 724.028 84.72C723.761 85.0667 723.361 85.4667 722.828 85.92C722.294 86.3733 721.881 86.7067 721.588 86.92C721.294 87.1333 720.841 87.44 720.228 87.84C719.614 88.24 719.228 88.4933 719.068 88.6C719.068 88.6 719.041 88.6 718.988 88.6C718.668 89.1867 717.921 89.8267 716.748 90.52C715.521 91.2133 714.348 91.64 713.228 91.8C712.054 92.3867 711.068 92.8933 710.268 93.32C710.001 94.3333 707.814 96.5467 703.708 99.96C702.108 101.293 700.774 102.44 699.708 103.4C698.641 104.36 697.321 105.667 695.748 107.32C694.174 108.973 692.961 110.613 692.108 112.24C691.254 113.867 690.801 115.4 690.748 116.84C690.748 117.48 689.841 118.227 688.028 119.08C686.854 119.72 685.988 120.04 685.428 120.04C684.868 120.04 683.948 119.747 682.668 119.16C681.014 118.36 679.948 117.187 679.467 115.64C679.201 114.093 679.201 112.813 679.467 111.8C679.734 110.787 680.334 109.733 681.268 108.64C682.201 107.547 683.148 106.627 684.108 105.88C685.068 105.133 686.054 104.24 687.068 103.2C688.081 102.16 688.801 101.187 689.228 100.28C690.081 98.4667 690.828 97.24 691.468 96.6C692.214 95.9067 692.508 94.9333 692.348 93.68C692.188 92.4267 691.654 91.56 690.748 91.08C689.734 90.4933 688.161 90.6533 686.028 91.56C682.561 92.9467 679.614 92.7333 677.188 90.92C674.761 89.1067 673.307 86.04 672.827 81.72C672.561 79.5867 672.841 76.6667 673.667 72.96C674.494 69.2533 674.881 66.5467 674.828 64.84C674.774 62.6533 675.121 60.36 675.868 57.96C676.614 55.56 677.761 53.8 679.308 52.68C681.014 51.5067 682.801 51.4133 684.668 52.4C686.534 53.3867 687.548 54.8933 687.708 56.92C687.761 57.9867 687.494 59.56 686.908 61.64C686.374 63.2933 685.428 65.9467 684.068 69.6C682.708 73.2533 681.788 76.0667 681.308 78.04C680.828 79.8533 680.601 81.3467 680.628 82.52C680.654 83.6933 680.961 84.28 681.548 84.28C683.521 84.28 686.428 82.0667 690.268 77.64C694.108 73.2133 696.374 69.4267 697.068 66.28C697.441 64.6267 697.868 63.5067 698.348 62.92C698.934 62.12 699.574 60.4667 700.268 57.96C701.121 55.1867 702.668 52.6 704.908 50.2C706.241 48.8133 707.334 47.88 708.188 47.4C708.988 46.92 710.001 46.68 711.228 46.68C713.201 46.68 714.348 47.08 714.668 47.88C714.934 48.4133 714.948 49.3067 714.708 50.56C714.468 51.8133 714.161 52.96 713.788 54C713.414 55.04 713.001 56.1867 712.548 57.44C712.094 58.6933 711.841 59.6133 711.788 60.2C711.628 61.16 711.468 61.8267 711.308 62.2C711.201 62.52 710.828 63.1867 710.188 64.2C709.121 65.9067 708.214 67.92 707.468 70.24C706.721 72.56 706.028 75.1867 705.388 78.12C704.748 81.0533 704.188 83.24 703.708 84.68C702.854 87.4533 702.534 88.92 702.748 89.08C702.854 89.24 704.321 88.6933 707.148 87.44C709.974 86.1867 712.828 84.84 715.708 83.4C718.588 81.96 720.241 81.08 720.668 80.76ZM730.665 66.12C728.905 68.2533 727.385 70.2533 726.105 72.12C724.825 73.9867 724.238 75.16 724.345 75.64C724.345 76.4933 725.092 78.44 726.585 81.48C728.398 84.9467 730.505 86.68 732.905 86.68C733.385 86.68 733.878 86.6267 734.385 86.52C734.892 86.4133 735.532 86.2267 736.305 85.96C737.078 85.6933 737.572 85.5333 737.785 85.48C738.372 85.32 739.332 84.84 740.665 84.04C742.318 83.0267 743.892 81.9333 745.385 80.76C746.558 79.7467 747.585 79.3333 748.465 79.52C749.345 79.7067 749.812 80.5467 749.865 82.04C749.865 82.52 749.745 83 749.505 83.48C749.265 83.96 749.012 84.3733 748.745 84.72C748.478 85.0667 748.092 85.4667 747.585 85.92C747.078 86.3733 746.665 86.7067 746.345 86.92C746.025 87.1333 745.572 87.44 744.985 87.84C744.398 88.24 744.025 88.4933 743.865 88.6C743.438 88.8667 742.798 89.2667 741.945 89.8C741.092 90.3333 740.452 90.7333 740.025 91C738.212 92.2267 736.372 92.9467 734.505 93.16C732.692 93.4267 731.332 93.44 730.425 93.2C729.518 92.96 728.185 92.2533 726.425 91.08C724.185 89.5333 722.372 87.8533 720.985 86.04C719.598 84.2267 718.665 82.4933 718.185 80.84C717.705 79.1867 717.465 77.2667 717.465 75.08C717.465 72.8933 717.598 70.9333 717.865 69.2C718.132 67.4667 718.465 65.3333 718.865 62.8C719.265 60.2667 719.492 58.0933 719.545 56.28C719.598 55.5867 719.665 54.8667 719.745 54.12C719.825 53.3733 719.905 52.6933 719.985 52.08C720.065 51.4667 720.185 50.7333 720.345 49.88C720.505 49.0267 720.625 48.36 720.705 47.88C720.785 47.4 720.958 46.6933 721.225 45.76C721.492 44.8267 721.665 44.1733 721.745 43.8C721.825 43.4267 722.012 42.72 722.305 41.68C722.598 40.64 722.785 39.9867 722.865 39.72C722.945 39.4533 723.158 38.7467 723.505 37.6C723.852 36.4533 724.052 35.7733 724.105 35.56C724.692 33.5867 725.198 32.1467 725.625 31.24C726.105 30.28 726.758 29.3333 727.585 28.4C728.412 27.4667 729.158 26.7067 729.825 26.12C730.492 25.5333 731.385 24.7867 732.505 23.88C732.932 23.56 733.665 22.9733 734.705 22.12C735.745 21.2667 736.505 20.6667 736.985 20.32C737.465 19.9733 738.118 19.4933 738.945 18.88C739.772 18.2667 740.572 17.7333 741.345 17.28C742.118 16.8267 742.958 16.3867 743.865 15.96C745.892 14.9467 747.465 14.5733 748.585 14.84C749.438 15.0533 750.158 15.52 750.745 16.24C751.332 16.96 751.732 17.7733 751.945 18.68C752.105 19.32 752.225 19.9733 752.305 20.64C752.385 21.3067 752.398 22.0267 752.345 22.8C752.292 23.5733 752.252 24.2267 752.225 24.76C752.198 25.2933 752.078 26.0133 751.865 26.92C751.652 27.8267 751.505 28.48 751.425 28.88C751.345 29.28 751.132 29.9733 750.785 30.96C750.438 31.9467 750.225 32.5733 750.145 32.84C750.065 33.1067 749.825 33.7867 749.425 34.88C749.025 35.9733 748.798 36.6 748.745 36.76C747.412 40.3333 746.345 42.68 745.545 43.8C745.012 44.5467 743.465 47.3467 740.905 52.2C738.292 57.0533 736.478 59.96 735.465 60.92C734.025 62.2533 732.425 63.9867 730.665 66.12ZM729.625 46.68C729.038 47.2133 728.358 49.0267 727.585 52.12C726.812 55.2133 726.665 57 727.145 57.48C727.412 57.6933 727.852 57.4667 728.465 56.8C729.078 56.1333 729.825 55.0933 730.705 53.68C731.585 52.2667 732.452 50.5733 733.305 48.6C735.065 45.08 735.945 43.16 735.945 42.84C735.945 42.68 736.772 40.8667 738.425 37.4C740.078 33.9867 740.905 31.9067 740.905 31.16C740.905 29.6133 740.212 29.4533 738.825 30.68C737.918 31.3733 737.038 32.4667 736.185 33.96C734.852 36.4133 733.598 38.3867 732.425 39.88C731.358 41.2667 730.825 42.5733 730.825 43.8C730.825 44.9733 730.425 45.9333 729.625 46.68ZM763.933 44.44C762.439 44.8133 760.973 44.28 759.533 42.84C758.519 41.8267 757.986 41.16 757.933 40.84C757.879 40.52 758.253 40.04 759.053 39.4C760.173 38.6 761.599 38.2 763.333 38.2C765.066 38.2 766.253 38.6 766.893 39.4C767.586 40.3067 767.626 41.2933 767.013 42.36C766.399 43.4267 765.373 44.12 763.933 44.44ZM778.173 82.76C778.546 83.4 778.559 84.0133 778.213 84.6C777.866 85.1867 776.893 86.1467 775.293 87.48C772.786 89.6133 769.826 91.56 766.413 93.32C763.853 94.6 761.199 95.12 758.453 94.88C755.706 94.64 753.119 93.8533 750.692 92.52C748.266 91.1867 746.173 89.4533 744.412 87.32C741.906 84.3333 741.159 80.36 742.173 75.4C742.279 75.0267 742.492 73.7467 742.812 71.56C743.132 69.3733 743.466 67.44 743.812 65.76C744.159 64.08 744.546 62.9733 744.973 62.44C745.453 61.8533 746.239 61.4533 747.333 61.24C748.426 61.0267 749.559 61.0133 750.733 61.2C751.906 61.3867 753.026 61.7333 754.093 62.24C755.159 62.7467 755.893 63.4267 756.293 64.28C756.693 65.1333 756.679 66.0933 756.253 67.16C755.026 69.72 754.413 71.5067 754.413 72.52C754.413 73.48 753.879 74.68 752.813 76.12C751.906 77.1867 751.359 78.48 751.173 80C750.986 81.52 751.239 82.52 751.933 83C752.519 83.2133 752.813 83.88 752.813 85C752.813 85.96 753.506 87.0533 754.893 88.28C755.853 89.1867 756.613 89.6933 757.173 89.8C757.733 89.9067 758.759 89.7733 760.253 89.4C762.439 88.6 765.239 86.9733 768.653 84.52C771.373 82.5467 773.439 81.4267 774.853 81.16C776.266 80.8933 777.373 81.4267 778.173 82.76ZM817.691 81.4C818.865 80.44 819.891 80.0533 820.771 80.24C821.651 80.4267 822.091 81.2667 822.091 82.76C822.091 83.24 821.985 83.72 821.771 84.2C821.558 84.68 821.318 85.0933 821.051 85.44C820.785 85.7867 820.385 86.1867 819.851 86.64C819.318 87.0933 818.905 87.4267 818.611 87.64C818.318 87.8533 817.865 88.16 817.251 88.56C816.638 88.96 816.251 89.2133 816.091 89.32C814.865 90.1733 813.558 90.8667 812.171 91.4C811.158 91.88 809.305 92.3867 806.611 92.92C803.918 93.4533 801.798 93.72 800.251 93.72C798.971 93.72 797.185 93.28 794.891 92.4C792.598 91.52 790.638 90.7067 789.011 89.96C787.385 89.2133 786.571 88.92 786.571 89.08C786.571 89.08 786.385 89.08 786.011 89.08C785.638 89.08 785.225 89.0533 784.771 89C784.318 88.9467 783.665 89.2 782.811 89.76C781.958 90.32 781.078 91.1867 780.171 92.36C778.838 94.0133 777.638 96.2667 776.571 99.12C775.505 101.973 774.758 103.773 774.331 104.52C773.798 105.587 773.251 106.813 772.691 108.2C772.131 109.587 771.585 110.76 771.051 111.72C770.518 112.68 769.798 113.693 768.891 114.76C768.091 115.72 767.465 116.307 767.011 116.52C766.558 116.733 765.798 116.627 764.731 116.2C763.451 115.72 762.531 114.48 761.971 112.48C761.411 110.48 761.318 108.733 761.691 107.24C761.905 106.333 762.531 105.12 763.571 103.6C764.611 102.08 765.265 100.973 765.531 100.28C765.851 99.4267 766.198 98.1467 766.571 96.44C766.945 94.7333 767.265 93.5333 767.531 92.84C767.905 91.72 768.598 90.1333 769.611 88.08C770.625 86.0267 771.318 84.4933 771.691 83.48C772.225 81.9867 772.611 80.1467 772.851 77.96C773.091 75.7733 773.385 73.6933 773.731 71.72C774.078 69.7467 774.705 67.9867 775.611 66.44C775.718 66.2267 775.878 65.92 776.091 65.52C776.305 65.12 776.505 64.7467 776.691 64.4C776.878 64.0533 777.105 63.6533 777.371 63.2C777.638 62.7467 777.891 62.3467 778.131 62C778.371 61.6533 778.638 61.2667 778.931 60.84C779.225 60.4133 779.518 60.04 779.811 59.72C780.105 59.4 780.411 59.0933 780.731 58.8C781.051 58.5067 781.385 58.2533 781.731 58.04C782.078 57.8267 782.411 57.6667 782.731 57.56C784.651 57.0267 786.038 57.3867 786.891 58.64C787.745 59.8933 787.691 61.2933 786.731 62.84C785.345 65.1333 785.051 66.2 785.851 66.04C786.651 65.7733 787.958 64.7333 789.771 62.92C791.905 60.7867 793.905 59.16 795.771 58.04C797.638 56.92 799.798 56.1467 802.251 55.72C804.598 55.2933 805.825 55 805.931 54.84C806.145 54.7867 806.358 54.92 806.571 55.24C806.785 55.56 806.998 56.0133 807.211 56.6C807.371 57.1867 807.531 57.8533 807.691 58.6C807.798 59.4 807.905 60.2 808.011 61C808.118 61.8 808.171 62.5733 808.171 63.32C808.118 70.7333 807.051 75.56 804.971 77.8C803.691 79.1333 802.705 80.4133 802.011 81.64C801.798 82.12 801.545 82.44 801.251 82.6C800.958 82.76 800.718 82.8267 800.531 82.8C800.345 82.7733 800.065 82.8133 799.691 82.92C799.318 83.0267 798.998 83.2933 798.731 83.72C797.985 84.52 797.185 84.92 796.331 84.92C795.638 84.9733 794.745 85.3333 793.651 86C792.558 86.6667 792.011 87.2133 792.011 87.64C792.011 87.8 792.291 88.0133 792.851 88.28C793.411 88.5467 794.091 88.8 794.891 89.04C795.691 89.28 796.518 89.48 797.371 89.64C798.225 89.8 798.945 89.88 799.531 89.88C800.438 89.88 801.531 89.7467 802.811 89.48C803.291 89.2667 803.878 89.04 804.571 88.8C805.265 88.56 805.905 88.3333 806.491 88.12C807.078 87.9067 807.558 87.6933 807.931 87.48C812.038 85.3467 815.291 83.32 817.691 81.4ZM786.091 78.04C786.198 79.0533 786.625 80.0267 787.371 80.96C788.118 81.8933 788.838 82.36 789.531 82.36C790.758 82.36 792.651 81.2533 795.211 79.04C797.771 76.8267 799.371 74.9733 800.011 73.48C800.705 71.7733 801.091 69.9067 801.171 67.88C801.251 65.8533 800.971 64.2533 800.331 63.08C799.691 61.96 799.065 61.4933 798.451 61.68C797.838 61.8667 796.465 63 794.331 65.08C792.305 66.8933 790.425 69.1867 788.691 71.96C786.958 74.7333 786.091 76.76 786.091 78.04ZM853.272 84.04C854.445 83.08 855.472 82.6933 856.352 82.88C857.232 83.0667 857.672 83.9067 857.672 85.4C857.725 85.88 857.632 86.36 857.392 86.84C857.152 87.32 856.899 87.7333 856.632 88.08C856.365 88.4267 855.979 88.8133 855.472 89.24C854.965 89.6667 854.552 89.9867 854.232 90.2C853.912 90.4133 853.445 90.72 852.832 91.12C852.219 91.52 851.859 91.7733 851.752 91.88C850.472 92.7333 849.165 93.4533 847.832 94.04C847.725 94.0933 847.579 94.16 847.392 94.24C847.205 94.32 847.005 94.4 846.792 94.48C846.579 94.56 846.365 94.64 846.152 94.72C845.939 94.8 845.765 94.8667 845.632 94.92L845.432 95C842.179 96.3333 838.685 97.1067 834.952 97.32C831.112 97.5333 828.312 97.1867 826.552 96.28C826.339 96.1733 825.485 95.8 823.992 95.16C822.499 94.52 821.432 93.96 820.792 93.48C819.565 92.68 818.392 90.9467 817.272 88.28C815.192 83.48 814.152 79.24 814.152 75.56C814.152 73.32 814.552 70.3867 815.352 66.76C815.405 66.5467 815.499 66.0933 815.632 65.4C815.765 64.7067 815.885 64.1867 815.992 63.84C816.099 63.4933 816.232 63.0133 816.392 62.4C816.552 61.7867 816.712 61.2667 816.872 60.84C817.032 60.4133 817.219 59.9733 817.432 59.52C817.645 59.0667 817.859 58.6533 818.072 58.28C819.192 56.7333 820.099 55.6133 820.792 54.92C823.672 51.9333 827.325 50.6 831.752 50.92C836.339 51.2933 838.819 52.8133 839.192 55.48C839.512 57.56 839.392 59.7067 838.832 61.92C838.272 64.1333 837.579 65.96 836.752 67.4C835.925 68.84 834.779 70.7067 833.312 73C831.845 75.2933 830.792 77.0533 830.152 78.28C827.805 82.7067 826.632 85.3467 826.632 86.2C826.632 86.8933 827.299 87.88 828.632 89.16C829.485 89.96 830.245 90.44 830.912 90.6C831.579 90.76 832.792 90.68 834.552 90.36C837.325 89.9867 840.339 89.32 843.592 88.36C844.819 87.9333 846.605 87.2133 848.952 86.2C851.299 85.1867 852.739 84.4667 853.272 84.04ZM822.232 78.36C822.712 78.36 824.045 76.28 826.232 72.12C828.365 67.96 829.432 65.4533 829.432 64.6C829.432 63.5867 828.885 62.9333 827.792 62.64C826.699 62.3467 825.832 62.6 825.192 63.4C824.659 64.04 824.125 65 823.592 66.28C823.059 67.56 822.632 68.8667 822.312 70.2C822.045 71.5333 821.805 72.8133 821.592 74.04C821.379 75.2667 821.325 76.2933 821.432 77.12C821.539 77.9467 821.805 78.36 822.232 78.36ZM861.128 88.92C860.541 88.6 860.461 87.4 860.888 85.32C861.314 83.24 862.034 81.8533 863.048 81.16C864.008 80.3067 865.434 79.9333 867.328 80.04C869.221 80.1467 870.968 80.6 872.568 81.4C874.221 82.3067 875.128 83.0533 875.288 83.64C875.448 84.2267 875.101 85.5867 874.248 87.72C873.234 89.96 872.208 91.4267 871.168 92.12C870.128 92.8133 868.461 93.1067 866.168 93C863.554 92.8933 862.247 92.28 862.247 91.16C862.247 90.04 861.874 89.2933 861.128 88.92Z" fill="#00BB85"/>
</svg>
