<?xml version="1.0" encoding="UTF-8"?>
<svg width="752pt" height="752pt" version="1.1" viewBox="0 0 752 752" xmlns="http://www.w3.org/2000/svg">
 <path d="m518.07 376c0 78.469-63.605 142.07-142.07 142.07-78.465 0-142.07-63.605-142.07-142.07 0-78.465 63.609-142.07 142.07-142.07 78.469 0 142.07 63.609 142.07 142.07zm-214.38-8.1328c-4.6484 4.5859-4.6289 12.023 0.066406 16.629l55.863 54.867c8.9336 8.9141 22.328-4.4531 13.395-13.367l-37.332-37.227c-1.8398-1.832-1.1953-3.3164 1.4141-3.3164h103c5.2422 0 9.4922-4.1953 9.4922-9.4531 0-5.2188-4.2422-9.4531-9.4922-9.4531h-103c-2.6211 0-3.2461-1.4883-1.4141-3.3164l37.332-37.227c8.9336-8.9062-4.4609-22.277-13.395-13.363z" fill="#00ba85" fill-rule="evenodd"/>
</svg>
