<svg width="481" height="93" viewBox="0 0 481 93" fill="none" xmlns="http://www.w3.org/2000/svg">
<path d="M40.12 75.16C41.2933 74.2 42.3067 73.8 43.16 73.96C44.0133 74.12 44.4667 74.9733 44.52 76.52C44.52 76.8933 44.4533 77.28 44.32 77.68C44.1867 78.08 43.9733 78.4667 43.68 78.84C43.3867 79.2133 43.1067 79.5467 42.84 79.84C42.5733 80.1333 42.2133 80.4533 41.76 80.8C41.3067 81.1467 40.9333 81.4133 40.64 81.6C40.3467 81.7867 39.96 82.04 39.48 82.36C39 82.68 38.68 82.8933 38.52 83C37.24 83.8533 35.9333 84.5733 34.6 85.16C33.7467 85.5333 32.3067 86.0533 30.28 86.72C28.2533 87.3867 25.6667 88.1333 22.52 88.96C19.3733 89.7867 16.3067 90.1067 13.32 89.92C10.3333 89.7333 8.09333 88.8933 6.6 87.4C6.01333 86.8133 5.34667 85.96 4.6 84.84C3.85333 83.72 3.2 82.6267 2.64 81.56C2.08 80.4933 1.66667 79.6133 1.4 78.92C0.706667 77.0533 0.386667 74.4667 0.44 71.16C0.92 61.08 5.24 52.44 13.4 45.24C15.32 43.64 16.7333 42.6667 17.64 42.32C18.5467 41.9733 20.2533 41.8 22.76 41.8C27.3467 41.8 30.8533 42.8133 33.28 44.84C35.7067 46.8667 36.6267 49.5333 36.04 52.84C35.6667 54.4933 35.3067 55.52 34.96 55.92C34.6133 56.32 33.8267 56.6 32.6 56.76C30.9467 56.92 29.3867 56.5867 27.92 55.76C26.4533 54.9333 25.88 54.04 26.2 53.08C26.52 52.28 26.3467 51.4667 25.68 50.64C25.0133 49.8133 24.2 49.4 23.24 49.4C21.48 49.4 18.8 51.2533 15.2 54.96C11.6 58.6667 9.8 61.4533 9.8 63.32C9.8 64.0133 9.42667 65.0267 8.68 66.36C7.88 67.5333 7.50667 69.56 7.56 72.44C7.66667 75.2667 8.12 77.2667 8.92 78.44C10.2 80.36 12.3467 81.68 15.36 82.4C18.3733 83.12 21.1333 83.24 23.64 82.76C24.9733 82.5467 26.4133 82.12 27.96 81.48C30.7867 80.36 33.3733 78.8933 35.72 77.08C37.5333 75.7467 38.7867 75.24 39.48 75.56C39.5333 75.56 39.6267 75.5067 39.76 75.4C39.8933 75.2933 40.0133 75.2133 40.12 75.16ZM87.6281 69.64C88.4281 70.0667 88.8281 71 88.8281 72.44C88.8815 74.0933 87.9481 75.64 86.0281 77.08C85.3348 77.56 84.5348 78.04 83.6281 78.52C83.4681 78.5733 83.2815 78.68 83.0681 78.84C82.3215 79.2667 81.6815 79.5067 81.1481 79.56C79.5481 79.6667 78.0015 79.0267 76.5081 77.64C76.1348 77.32 75.7348 76.76 75.3081 75.96L75.0681 75.56C74.5881 74.76 74.1348 74.2533 73.7081 74.04C73.2815 73.8267 72.7481 73.88 72.1081 74.2C71.3081 74.6267 70.4015 75.9333 69.3881 78.12C68.9081 79.24 68.5081 80.0133 68.1881 80.44C67.1748 81.9333 66.2948 82.7867 65.5481 83C64.5881 83.48 63.2815 84.2267 61.6281 85.24C59.6015 86.4667 57.6815 87.1333 55.8681 87.24C53.7881 87.4 52.2415 87.6133 51.2281 87.88C50.9615 87.9333 50.6948 87.96 50.4281 87.96C49.8415 87.96 49.3348 87.8533 48.9081 87.64C48.2681 87.3733 47.3348 86.6533 46.1081 85.48C44.7748 84.2533 43.8681 83.1733 43.3881 82.24C42.9081 81.3067 42.4281 79.6667 41.9481 77.32C41.1481 73.48 40.9615 70.4 41.3881 68.08C41.8148 65.76 42.9881 63.0533 44.9081 59.96C47.3615 56.0133 49.6815 53.16 51.8681 51.4C54.0548 49.64 56.7481 48.3867 59.9481 47.64C61.4948 47.32 62.8548 46.76 64.0281 45.96C65.8948 44.7333 67.5481 44.28 68.9881 44.6C70.3748 44.8667 71.9748 45.96 73.7881 47.88C74.7481 48.9467 75.4415 49.8 75.8681 50.44C76.2948 51.08 76.5881 51.6933 76.7481 52.28C76.9081 52.8667 76.9881 53.72 76.9881 54.84C76.9881 59.5867 77.1481 63.2667 77.4681 65.88C77.6281 67.4267 77.9881 68.6133 78.5481 69.44C79.1081 70.2667 80.0815 71.2667 81.4681 72.44L81.7081 72.28C82.6681 71.64 83.3615 71.1333 83.7881 70.76C85.3881 69.5333 86.6681 69.16 87.6281 69.64ZM69.1481 55.88C69.1481 53.8 68.9348 52.6533 68.5081 52.44C68.4015 52.5467 68.2948 52.68 68.1881 52.84C67.9215 53.32 67.9481 54.4133 68.2681 56.12C68.4815 57.3467 68.6948 58.12 68.9081 58.44C69.0681 58.0133 69.1481 57.16 69.1481 55.88ZM66.8281 68.2C67.0415 66.9733 67.0148 66.0933 66.7481 65.56C66.5348 65.0267 65.8681 64.2 64.7481 63.08C62.9881 61.3733 62.1081 59.96 62.1081 58.84C62.1081 58.0933 61.8681 57.2133 61.3881 56.2C60.9081 55.1867 60.4281 54.52 59.9481 54.2C59.5748 53.9333 59.2548 53.8 58.9881 53.8C58.7748 53.8 58.5881 53.8533 58.4281 53.96C57.8948 54.2267 56.8015 55.2133 55.1481 56.92C53.7081 58.36 52.3615 60.2 51.1081 62.44C49.8548 64.68 48.9348 66.7867 48.3481 68.76C47.7615 70.6267 47.6548 71.9867 48.0281 72.84C48.4548 73.64 48.6948 75 48.7481 76.92C48.9081 78.36 49.1215 79.4267 49.3881 80.12C49.6548 80.7067 50.0548 81.1067 50.5881 81.32C51.1748 81.5867 52.1348 81.72 53.4681 81.72C54.1081 81.72 54.6415 81.6933 55.0681 81.64C55.4948 81.64 55.8948 81.5867 56.2681 81.48C56.6415 81.3733 56.9881 81.24 57.3081 81.08C57.6815 80.8667 58.0548 80.6267 58.4281 80.36C58.8015 80.0933 59.2548 79.7467 59.7881 79.32C61.8148 77.72 62.9615 76.44 63.2281 75.48C63.5481 74.4667 64.1881 73.4 65.1481 72.28C66.0015 71.3733 66.5615 70.0133 66.8281 68.2ZM81.0637 73.96C81.9171 72.52 83.5704 69.2267 86.0238 64.08C88.4771 58.9333 90.5838 55.32 92.3438 53.24C92.6104 52.8667 92.9038 52.52 93.2238 52.2C93.8638 51.5067 94.7438 50.9867 95.8638 50.64C96.9838 50.2933 97.9971 50.3333 98.9038 50.76C99.2238 50.9733 99.4504 51.5333 99.5838 52.44C99.7171 53.3467 99.9171 53.8267 100.184 53.88C100.557 53.9333 101.464 53.4533 102.904 52.44C105.357 50.7333 109.224 49.32 114.504 48.2C116.637 47.6667 118.024 47.4533 118.664 47.56C119.304 47.6667 120.104 48.1467 121.064 49C122.29 50.2267 122.93 51.72 122.984 53.48C123.037 55.24 122.45 56.8933 121.224 58.44C120.317 59.7733 119.144 62.4133 117.704 66.36C116.264 70.3067 115.544 73.0267 115.544 74.52C115.544 75.5867 115.904 76.7467 116.624 78C117.344 79.2533 118.224 80.2933 119.264 81.12C120.304 81.9467 121.25 82.36 122.104 82.36C123.384 82.36 126.077 81.2933 130.184 79.16C134.29 77.0267 137.517 75 139.864 73.08C141.624 71.7467 142.877 71.12 143.624 71.2C144.37 71.28 144.744 72.0667 144.744 73.56C144.744 74.2 144.464 74.9333 143.904 75.76C143.344 76.5867 142.61 77.4533 141.704 78.36C140.744 79.2133 139.624 80.08 138.344 80.96C137.064 81.84 135.757 82.5467 134.424 83.08C130.904 84.7333 128.37 85.9333 126.824 86.68C124.157 87.9067 121.797 88.2533 119.744 87.72C117.69 87.1867 115.277 85.5333 112.504 82.76C110.264 80.52 108.944 78.9867 108.544 78.16C108.144 77.3333 107.944 75.7467 107.944 73.4C107.944 69.9867 108.557 66.44 109.784 62.76C110.85 59.08 111.277 57.08 111.064 56.76C110.744 56.44 108.584 58.16 104.584 61.92C100.584 65.68 96.6638 69.6533 92.8238 73.84C88.9838 78.0267 87.0638 80.44 87.0638 81.08C87.0638 81.6133 86.7304 82.2 86.0638 82.84C85.3971 83.48 84.5838 84 83.6237 84.4C82.6637 84.8 81.8104 84.92 81.0637 84.76C79.8371 84.6 78.9837 83.64 78.5037 81.88C78.1304 80.7067 78.0771 79.6667 78.3437 78.76C78.6104 77.8533 79.5171 76.2533 81.0637 73.96ZM181.076 75.32C182.302 74.4667 183.342 74.1867 184.196 74.48C185.049 74.7733 185.422 75.6667 185.316 77.16C185.262 77.5333 185.142 77.92 184.956 78.32C184.769 78.72 184.516 79.08 184.196 79.4C183.876 79.72 183.569 80.0133 183.276 80.28C182.982 80.5467 182.596 80.8267 182.116 81.12C181.636 81.4133 181.236 81.64 180.916 81.8C180.596 81.96 180.182 82.1733 179.676 82.44C179.169 82.7067 178.836 82.8933 178.676 83C177.342 83.6933 175.956 84.2533 174.516 84.68C174.462 84.7333 173.809 85.1467 172.556 85.92C171.302 86.6933 169.876 87.5467 168.276 88.48C166.676 89.4133 165.369 90.04 164.356 90.36C162.969 90.84 161.529 91.2133 160.036 91.48C158.542 91.7467 156.969 91.92 155.316 92C153.662 92.08 152.076 91.9067 150.556 91.48C149.036 91.0533 147.769 90.4133 146.756 89.56C145.529 88.44 144.529 86.9067 143.756 84.96C142.982 83.0133 142.476 80.9067 142.236 78.64C141.996 76.3733 141.876 74.2533 141.876 72.28C141.876 70.3067 141.956 68.4133 142.116 66.6C142.169 66.3333 142.476 64.0533 143.036 59.76C143.596 55.4667 144.129 51.2533 144.636 47.12L145.396 40.92C144.756 40.5467 143.556 40.28 141.796 40.12C140.729 40.0667 139.636 40.0667 138.516 40.12C135.902 40.12 134.062 40.04 132.996 39.88C132.782 39.8267 132.476 39.8 132.076 39.8C131.676 39.8 131.276 39.8 130.876 39.8C130.476 39.8 130.076 39.8 129.676 39.8C129.276 39.8 128.956 39.76 128.716 39.68C128.476 39.6 128.329 39.48 128.276 39.32C128.169 38.4667 128.516 37.8533 129.316 37.48C129.369 37.4267 129.729 37.2 130.396 36.8C131.062 36.4 131.756 36.0133 132.476 35.64C133.196 35.2667 134.169 34.9333 135.396 34.64C136.622 34.3467 137.876 34.2267 139.156 34.28C143.156 34.6533 145.649 34.7733 146.636 34.64C147.622 34.5067 148.596 33.9333 149.556 32.92C150.996 31.5867 152.916 28.0933 155.316 22.44C155.422 22.2267 155.582 21.9067 155.796 21.48C156.702 19.3467 157.449 17.6667 158.036 16.44C158.622 15.2133 159.449 13.6533 160.516 11.76C161.582 9.86666 162.756 8.28 164.036 7C165.316 5.72 166.649 4.73333 168.036 4.03999C172.516 1.90666 174.756 2.04 174.756 4.43999C174.756 5.82666 173.716 8.94666 171.636 13.8C171.049 15.1333 170.622 16.1733 170.356 16.92C170.036 17.88 169.769 19.0267 169.556 20.36C169.342 21.6933 168.836 23.0267 168.036 24.36C166.756 26.6 165.689 28.4933 164.836 30.04C163.822 31.8533 163.449 32.92 163.716 33.24C163.982 33.6667 166.676 34.1467 171.796 34.68C175.369 35.0533 177.542 35.3733 178.316 35.64C179.089 35.9067 179.422 36.4133 179.316 37.16C179.209 38.1733 178.622 38.6 177.556 38.44C177.129 38.3867 176.276 38.36 174.996 38.36C173.716 38.4133 172.276 38.4933 170.676 38.6C169.076 38.7067 167.422 38.8667 165.716 39.08C164.062 39.2933 162.676 39.4533 161.556 39.56C160.969 39.6667 160.196 41.3733 159.236 44.68C158.276 47.9867 157.222 52 156.076 56.72C154.929 61.44 154.089 64.6 153.556 66.2C150.836 74.36 151.182 79.96 154.596 83C156.142 84.3867 157.582 85.0533 158.916 85C159.716 85 160.596 84.7067 161.556 84.12C161.716 83.9067 162.262 83.5867 163.196 83.16C164.129 82.7333 165.089 82.3467 166.076 82C167.062 81.6533 168.076 81.2933 169.116 80.92C170.156 80.5467 170.702 80.36 170.756 80.36C175.022 78.6533 178.462 76.9733 181.076 75.32ZM231.169 75.24C232.182 74.44 233.049 74.1067 233.769 74.24C234.489 74.3733 234.849 75.08 234.849 76.36C234.849 76.6267 234.795 76.9067 234.689 77.2C234.582 77.4933 234.462 77.76 234.329 78C234.195 78.24 233.995 78.4933 233.729 78.76C233.462 79.0267 233.222 79.2667 233.009 79.48C232.795 79.6933 232.529 79.92 232.209 80.16C231.889 80.4 231.622 80.5867 231.409 80.72C231.195 80.8533 230.929 81.0267 230.609 81.24C230.289 81.4533 230.049 81.6133 229.889 81.72C228.875 82.4133 227.809 83 226.689 83.48C226.582 83.5333 225.942 83.8533 224.769 84.44L224.369 84.92C222.929 86.3067 220.849 87.16 218.129 87.48C216.422 87.6933 215.102 87.7067 214.169 87.52C213.235 87.3333 211.942 86.8667 210.289 86.12C207.835 84.9467 206.209 83.9867 205.409 83.24C204.875 82.8133 204.422 82.6267 204.049 82.68C203.675 82.7333 202.982 83.16 201.969 83.96C198.715 86.3067 194.835 87.6267 190.329 87.92C185.822 88.2133 182.875 87.32 181.489 85.24C180.635 83.9067 180.249 81.32 180.329 77.48C180.409 73.64 180.902 70.8933 181.809 69.24C182.609 67.8 183.222 66.7333 183.649 66.04C184.129 65.3467 184.582 64.7067 185.009 64.12C185.435 63.48 186.155 62.5467 187.169 61.32C190.529 57.16 193.169 54.3067 195.089 52.76C196.582 51.5867 198.342 50.5867 200.369 49.76C202.395 48.9333 204.515 48.3867 206.729 48.12C208.942 47.8533 210.902 48.1467 212.609 49C214.689 50.0667 215.969 51.8933 216.449 54.48C216.929 57.0667 216.875 59.5733 216.289 62C215.702 64.4267 214.875 66.7067 213.809 68.84C212.902 70.8667 212.222 73.08 211.769 75.48C211.315 77.88 211.329 79.4533 211.809 80.2C212.822 82.2267 216.155 82.36 221.809 80.6C222.022 80.5467 222.235 80.52 222.449 80.52C222.769 80.4133 223.009 80.3067 223.169 80.2C226.582 78.44 229.249 76.7867 231.169 75.24ZM207.009 60.2C207.595 59.88 207.915 59.6133 207.969 59.4C208.022 59.1867 207.889 58.92 207.569 58.6C206.929 57.9067 206.022 57.4533 204.849 57.24C203.675 57.0267 202.529 57.08 201.409 57.4C200.289 57.6667 198.595 58.7333 196.329 60.6C194.062 62.4667 192.529 64.0667 191.729 65.4C190.662 66.9467 189.755 68.3333 189.009 69.56C188.102 70.84 187.489 72.7067 187.169 75.16C186.849 77.6133 186.982 79.2133 187.569 79.96C188.102 80.6 189.275 80.92 191.089 80.92C192.902 80.92 194.609 80.6267 196.209 80.04C197.755 79.2933 198.902 78.1733 199.649 76.68C200.929 74.1733 201.969 72.1467 202.769 70.6C204.155 68.2 204.849 66.5733 204.849 65.72C204.849 65.1867 205.075 64.64 205.529 64.08C205.982 63.52 206.102 62.92 205.889 62.28C205.622 61.4267 205.995 60.7333 207.009 60.2ZM273.089 75.16C274.262 74.2 275.275 73.8 276.129 73.96C276.982 74.12 277.435 74.9733 277.489 76.52C277.489 76.8933 277.422 77.28 277.289 77.68C277.155 78.08 276.942 78.4667 276.649 78.84C276.355 79.2133 276.075 79.5467 275.809 79.84C275.542 80.1333 275.182 80.4533 274.729 80.8C274.275 81.1467 273.902 81.4133 273.609 81.6C273.315 81.7867 272.929 82.04 272.449 82.36C271.969 82.68 271.649 82.8933 271.489 83C270.209 83.8533 268.902 84.5733 267.569 85.16C266.715 85.5333 265.275 86.0533 263.249 86.72C261.222 87.3867 258.635 88.1333 255.489 88.96C252.342 89.7867 249.275 90.1067 246.289 89.92C243.302 89.7333 241.062 88.8933 239.569 87.4C238.982 86.8133 238.315 85.96 237.569 84.84C236.822 83.72 236.169 82.6267 235.609 81.56C235.049 80.4933 234.635 79.6133 234.369 78.92C233.675 77.0533 233.355 74.4667 233.409 71.16C233.889 61.08 238.209 52.44 246.369 45.24C248.289 43.64 249.702 42.6667 250.609 42.32C251.515 41.9733 253.222 41.8 255.729 41.8C260.315 41.8 263.822 42.8133 266.249 44.84C268.675 46.8667 269.595 49.5333 269.009 52.84C268.635 54.4933 268.275 55.52 267.929 55.92C267.582 56.32 266.795 56.6 265.569 56.76C263.915 56.92 262.355 56.5867 260.889 55.76C259.422 54.9333 258.849 54.04 259.169 53.08C259.489 52.28 259.315 51.4667 258.649 50.64C257.982 49.8133 257.169 49.4 256.209 49.4C254.449 49.4 251.769 51.2533 248.169 54.96C244.569 58.6667 242.769 61.4533 242.769 63.32C242.769 64.0133 242.395 65.0267 241.649 66.36C240.849 67.5333 240.475 69.56 240.529 72.44C240.635 75.2667 241.089 77.2667 241.889 78.44C243.169 80.36 245.315 81.68 248.329 82.4C251.342 83.12 254.102 83.24 256.609 82.76C257.942 82.5467 259.382 82.12 260.929 81.48C263.755 80.36 266.342 78.8933 268.689 77.08C270.502 75.7467 271.755 75.24 272.449 75.56C272.502 75.56 272.595 75.5067 272.729 75.4C272.862 75.2933 272.982 75.2133 273.089 75.16ZM314.357 75.32C315.584 74.4667 316.624 74.1867 317.477 74.48C318.33 74.7733 318.704 75.6667 318.597 77.16C318.544 77.5333 318.424 77.92 318.237 78.32C318.05 78.72 317.797 79.08 317.477 79.4C317.157 79.72 316.85 80.0133 316.557 80.28C316.264 80.5467 315.877 80.8267 315.397 81.12C314.917 81.4133 314.517 81.64 314.197 81.8C313.877 81.96 313.464 82.1733 312.957 82.44C312.45 82.7067 312.117 82.8933 311.957 83C310.624 83.6933 309.237 84.2533 307.797 84.68C307.744 84.7333 307.09 85.1467 305.837 85.92C304.584 86.6933 303.157 87.5467 301.557 88.48C299.957 89.4133 298.65 90.04 297.637 90.36C296.25 90.84 294.81 91.2133 293.317 91.48C291.824 91.7467 290.25 91.92 288.597 92C286.944 92.08 285.357 91.9067 283.837 91.48C282.317 91.0533 281.05 90.4133 280.037 89.56C278.81 88.44 277.81 86.9067 277.037 84.96C276.264 83.0133 275.757 80.9067 275.517 78.64C275.277 76.3733 275.157 74.2533 275.157 72.28C275.157 70.3067 275.237 68.4133 275.397 66.6C275.45 66.3333 275.757 64.0533 276.317 59.76C276.877 55.4667 277.41 51.2533 277.917 47.12L278.677 40.92C278.037 40.5467 276.837 40.28 275.077 40.12C274.01 40.0667 272.917 40.0667 271.797 40.12C269.184 40.12 267.344 40.04 266.277 39.88C266.064 39.8267 265.757 39.8 265.357 39.8C264.957 39.8 264.557 39.8 264.157 39.8C263.757 39.8 263.357 39.8 262.957 39.8C262.557 39.8 262.237 39.76 261.997 39.68C261.757 39.6 261.61 39.48 261.557 39.32C261.45 38.4667 261.797 37.8533 262.597 37.48C262.65 37.4267 263.01 37.2 263.677 36.8C264.344 36.4 265.037 36.0133 265.757 35.64C266.477 35.2667 267.45 34.9333 268.677 34.64C269.904 34.3467 271.157 34.2267 272.437 34.28C276.437 34.6533 278.93 34.7733 279.917 34.64C280.904 34.5067 281.877 33.9333 282.837 32.92C284.277 31.5867 286.197 28.0933 288.597 22.44C288.704 22.2267 288.864 21.9067 289.077 21.48C289.984 19.3467 290.73 17.6667 291.317 16.44C291.904 15.2133 292.73 13.6533 293.797 11.76C294.864 9.86666 296.037 8.28 297.317 7C298.597 5.72 299.93 4.73333 301.317 4.03999C305.797 1.90666 308.037 2.04 308.037 4.43999C308.037 5.82666 306.997 8.94666 304.917 13.8C304.33 15.1333 303.904 16.1733 303.637 16.92C303.317 17.88 303.05 19.0267 302.837 20.36C302.624 21.6933 302.117 23.0267 301.317 24.36C300.037 26.6 298.97 28.4933 298.117 30.04C297.104 31.8533 296.73 32.92 296.997 33.24C297.264 33.6667 299.957 34.1467 305.077 34.68C308.65 35.0533 310.824 35.3733 311.597 35.64C312.37 35.9067 312.704 36.4133 312.597 37.16C312.49 38.1733 311.904 38.6 310.837 38.44C310.41 38.3867 309.557 38.36 308.277 38.36C306.997 38.4133 305.557 38.4933 303.957 38.6C302.357 38.7067 300.704 38.8667 298.997 39.08C297.344 39.2933 295.957 39.4533 294.837 39.56C294.25 39.6667 293.477 41.3733 292.517 44.68C291.557 47.9867 290.504 52 289.357 56.72C288.21 61.44 287.37 64.6 286.837 66.2C284.117 74.36 284.464 79.96 287.877 83C289.424 84.3867 290.864 85.0533 292.197 85C292.997 85 293.877 84.7067 294.837 84.12C294.997 83.9067 295.544 83.5867 296.477 83.16C297.41 82.7333 298.37 82.3467 299.357 82C300.344 81.6533 301.357 81.2933 302.397 80.92C303.437 80.5467 303.984 80.36 304.037 80.36C308.304 78.6533 311.744 76.9733 314.357 75.32ZM420.534 72.84C421.708 71.88 422.734 71.4933 423.614 71.68C424.494 71.8667 424.961 72.7067 425.014 74.2C425.014 74.68 424.908 75.16 424.694 75.64C424.481 76.12 424.241 76.5333 423.974 76.88C423.708 77.2267 423.308 77.6133 422.774 78.04C422.241 78.4667 421.828 78.7867 421.534 79C421.241 79.2133 420.788 79.52 420.174 79.92C419.561 80.32 419.174 80.5733 419.014 80.68C417.361 81.8 415.761 83 414.214 84.28C412.134 85.9333 409.974 87.08 407.734 87.72C405.121 88.4667 403.094 88.8667 401.654 88.92C400.161 88.9733 398.321 88.68 396.134 88.04C394.054 87.5067 392.388 86.8 391.134 85.92C389.881 85.04 388.908 83.9067 388.214 82.52C387.521 81.1333 387.161 79.3867 387.134 77.28C387.108 75.1733 387.361 72.7867 387.894 70.12C388.374 67.4 389.174 64.12 390.294 60.28C390.614 59.32 390.508 58.84 389.974 58.84C388.534 58.84 385.734 61.4 381.574 66.52C377.414 71.64 374.188 76.44 371.894 80.92C370.294 84.0133 368.961 85.88 367.894 86.52C366.828 87.16 365.628 86.84 364.294 85.56C363.174 84.5467 362.641 83.5733 362.694 82.64C362.748 81.7067 363.441 79.72 364.774 76.68C365.894 74.44 366.454 72.8933 366.454 72.04C366.454 71.2933 367.014 69.7467 368.134 67.4C368.881 64.7333 369.121 63.32 368.854 63.16C368.268 63.16 367.108 64.1067 365.374 66C363.641 67.8933 361.828 70.16 359.934 72.8C358.041 75.44 356.614 77.6667 355.654 79.48C354.161 82.2533 352.801 84.0133 351.574 84.76C350.348 85.5067 349.121 85.3467 347.894 84.28C346.721 83.2133 346.268 81.8933 346.534 80.32C346.801 78.7467 347.868 76.1733 349.734 72.6C350.268 71.48 350.788 69.84 351.294 67.68C351.801 65.52 352.294 63.9867 352.774 63.08C354.534 59.2933 356.454 56.6 358.534 55C359.014 54.6267 359.521 54.2933 360.054 54C360.588 53.7067 361.134 53.52 361.694 53.44C362.254 53.36 362.628 53.5333 362.814 53.96C363.001 54.3867 362.988 55.1067 362.774 56.12C362.294 57.7733 362.481 58.52 363.334 58.36C363.974 58.3067 364.721 57.5867 365.574 56.2C366.801 54.3333 368.241 52.8133 369.894 51.64C370.534 51.2133 371.068 50.8933 371.494 50.68C372.028 50.4667 372.374 50.3333 372.534 50.28C372.801 50.12 373.174 50.0667 373.654 50.12C374.134 50.1733 374.481 50.2267 374.694 50.28C374.908 50.28 375.334 50.3867 375.974 50.6C376.668 50.8133 377.201 50.9467 377.574 51C379.068 51.32 379.814 51.7467 379.814 52.28C379.921 52.3867 380.001 53.1867 380.054 54.68C380.161 55.3733 380.294 55.88 380.454 56.2C380.614 56.52 380.934 56.6667 381.414 56.64C381.894 56.6133 382.481 56.4267 383.174 56.08C383.868 55.7333 384.908 55.1067 386.294 54.2C389.494 52.1733 392.241 51 394.534 50.68C396.241 50.52 397.308 50.56 397.734 50.8C398.161 51.04 398.614 51.6667 399.094 52.68C399.734 54.3333 399.868 56.44 399.494 59C399.121 61.56 398.428 63.96 397.414 66.2C396.241 68.44 395.654 70.1467 395.654 71.32C395.654 72.28 395.361 73.6933 394.774 75.56C394.188 77.16 394.281 78.6533 395.054 80.04C395.828 81.4267 397.041 82.28 398.694 82.6C399.654 82.76 400.908 82.68 402.454 82.36C402.881 82.2533 405.468 81.1867 410.214 79.16C410.214 79.16 410.708 78.8667 411.694 78.28C412.681 77.6933 413.748 77.0667 414.894 76.4C416.041 75.7333 417.174 75.0533 418.294 74.36C419.414 73.6667 420.161 73.16 420.534 72.84ZM458.35 76.04C459.523 75.08 460.55 74.6933 461.43 74.88C462.31 75.0667 462.75 75.9067 462.75 77.4C462.803 77.88 462.71 78.36 462.47 78.84C462.23 79.32 461.977 79.7333 461.71 80.08C461.443 80.4267 461.057 80.8133 460.55 81.24C460.043 81.6667 459.63 81.9867 459.31 82.2C458.99 82.4133 458.523 82.72 457.91 83.12C457.297 83.52 456.937 83.7733 456.83 83.88C455.55 84.7333 454.243 85.4533 452.91 86.04C452.803 86.0933 452.657 86.16 452.47 86.24C452.283 86.32 452.083 86.4 451.87 86.48C451.657 86.56 451.443 86.64 451.23 86.72C451.017 86.8 450.843 86.8667 450.71 86.92L450.51 87C447.257 88.3333 443.763 89.1067 440.03 89.32C436.19 89.5333 433.39 89.1867 431.63 88.28C431.417 88.1733 430.563 87.8 429.07 87.16C427.577 86.52 426.51 85.96 425.87 85.48C424.643 84.68 423.47 82.9467 422.35 80.28C420.27 75.48 419.23 71.24 419.23 67.56C419.23 65.32 419.63 62.3867 420.43 58.76C420.483 58.5467 420.577 58.0933 420.71 57.4C420.843 56.7067 420.963 56.1867 421.07 55.84C421.177 55.4933 421.31 55.0133 421.47 54.4C421.63 53.7867 421.79 53.2667 421.95 52.84C422.11 52.4133 422.297 51.9733 422.51 51.52C422.723 51.0667 422.937 50.6533 423.15 50.28C424.27 48.7333 425.177 47.6133 425.87 46.92C428.75 43.9333 432.403 42.6 436.83 42.92C441.417 43.2933 443.897 44.8133 444.27 47.48C444.59 49.56 444.47 51.7067 443.91 53.92C443.35 56.1333 442.657 57.96 441.83 59.4C441.003 60.84 439.857 62.7067 438.39 65C436.923 67.2933 435.87 69.0533 435.23 70.28C432.883 74.7067 431.71 77.3467 431.71 78.2C431.71 78.8933 432.377 79.88 433.71 81.16C434.563 81.96 435.323 82.44 435.99 82.6C436.657 82.76 437.87 82.68 439.63 82.36C442.403 81.9867 445.417 81.32 448.67 80.36C449.897 79.9333 451.683 79.2133 454.03 78.2C456.377 77.1867 457.817 76.4667 458.35 76.04ZM427.31 70.36C427.79 70.36 429.123 68.28 431.31 64.12C433.443 59.96 434.51 57.4533 434.51 56.6C434.51 55.5867 433.963 54.9333 432.87 54.64C431.777 54.3467 430.91 54.6 430.27 55.4C429.737 56.04 429.203 57 428.67 58.28C428.137 59.56 427.71 60.8667 427.39 62.2C427.123 63.5333 426.883 64.8133 426.67 66.04C426.457 67.2667 426.403 68.2933 426.51 69.12C426.617 69.9467 426.883 70.36 427.31 70.36ZM466.206 80.92C465.619 80.6 465.539 79.4 465.966 77.32C466.392 75.24 467.112 73.8533 468.126 73.16C469.086 72.3067 470.512 71.9333 472.406 72.04C474.299 72.1467 476.046 72.6 477.646 73.4C479.299 74.3067 480.206 75.0533 480.366 75.64C480.526 76.2267 480.179 77.5867 479.326 79.72C478.312 81.96 477.286 83.4267 476.246 84.12C475.206 84.8133 473.539 85.1067 471.246 85C468.632 84.8933 467.326 84.28 467.326 83.16C467.326 82.04 466.952 81.2933 466.206 80.92Z" fill="white"/>
</svg>
