<svg width="436" height="93" viewBox="0 0 436 93" fill="none" xmlns="http://www.w3.org/2000/svg">
<path d="M39.6 76.04C40.7733 75.08 41.8 74.6933 42.68 74.88C43.56 75.0667 44 75.9067 44 77.4C44.0533 77.88 43.96 78.36 43.72 78.84C43.48 79.32 43.2267 79.7333 42.96 80.08C42.6933 80.4267 42.3067 80.8133 41.8 81.24C41.2933 81.6667 40.88 81.9867 40.56 82.2C40.24 82.4133 39.7733 82.72 39.16 83.12C38.5467 83.52 38.1867 83.7733 38.08 83.88C36.8 84.7333 35.4933 85.4533 34.16 86.04C34.0533 86.0933 33.9067 86.16 33.72 86.24C33.5333 86.32 33.3333 86.4 33.12 86.48C32.9067 86.56 32.6933 86.64 32.48 86.72C32.2667 86.8 32.0933 86.8667 31.96 86.92L31.76 87C28.5067 88.3333 25.0133 89.1067 21.28 89.32C17.44 89.5333 14.64 89.1867 12.88 88.28C12.6667 88.1733 11.8133 87.8 10.32 87.16C8.82667 86.52 7.76 85.96 7.12 85.48C5.89333 84.68 4.72 82.9467 3.6 80.28C1.52 75.48 0.48 71.24 0.48 67.56C0.48 65.32 0.88 62.3867 1.68 58.76C1.73333 58.5467 1.82667 58.0933 1.96 57.4C2.09333 56.7067 2.21333 56.1867 2.32 55.84C2.42667 55.4933 2.56 55.0133 2.72 54.4C2.88 53.7867 3.04 53.2667 3.2 52.84C3.36 52.4133 3.54667 51.9733 3.76 51.52C3.97333 51.0667 4.18667 50.6533 4.4 50.28C5.52 48.7333 6.42667 47.6133 7.12 46.92C10 43.9333 13.6533 42.6 18.08 42.92C22.6667 43.2933 25.1467 44.8133 25.52 47.48C25.84 49.56 25.72 51.7067 25.16 53.92C24.6 56.1333 23.9067 57.96 23.08 59.4C22.2533 60.84 21.1067 62.7067 19.64 65C18.1733 67.2933 17.12 69.0533 16.48 70.28C14.1333 74.7067 12.96 77.3467 12.96 78.2C12.96 78.8933 13.6267 79.88 14.96 81.16C15.8133 81.96 16.5733 82.44 17.24 82.6C17.9067 82.76 19.12 82.68 20.88 82.36C23.6533 81.9867 26.6667 81.32 29.92 80.36C31.1467 79.9333 32.9333 79.2133 35.28 78.2C37.6267 77.1867 39.0667 76.4667 39.6 76.04ZM8.56 70.36C9.04 70.36 10.3733 68.28 12.56 64.12C14.6933 59.96 15.76 57.4533 15.76 56.6C15.76 55.5867 15.2133 54.9333 14.12 54.64C13.0267 54.3467 12.16 54.6 11.52 55.4C10.9867 56.04 10.4533 57 9.92 58.28C9.38667 59.56 8.96 60.8667 8.64 62.2C8.37333 63.5333 8.13333 64.8133 7.92 66.04C7.70667 67.2667 7.65333 68.2933 7.76 69.12C7.86667 69.9467 8.13333 70.36 8.56 70.36ZM97.2956 72.76C98.469 71.7467 99.4956 71.3333 100.376 71.52C101.256 71.7067 101.696 72.5467 101.696 74.04C101.749 74.52 101.656 75 101.416 75.48C101.176 75.96 100.922 76.3733 100.656 76.72C100.389 77.0667 100.002 77.4667 99.4956 77.92C98.989 78.3733 98.5756 78.7067 98.2556 78.92C97.9356 79.1333 97.469 79.44 96.8556 79.84C96.2423 80.24 95.8823 80.4933 95.7756 80.6C94.4956 81.4533 93.189 82.1467 91.8556 82.68C91.6423 82.7867 91.269 83 90.7356 83.32C90.2023 83.64 89.8023 83.8533 89.5356 83.96C87.7756 84.6533 86.469 85.0533 85.6156 85.16C81.0823 85.7467 77.989 85.8533 76.3356 85.48C74.6823 85.1067 72.8156 83.9867 70.7356 82.12C69.4556 80.84 68.549 79.6667 68.0156 78.6C67.4823 77.5333 67.0556 76.0933 66.7356 74.28C66.0956 71.3467 65.4556 69.8533 64.8156 69.8C64.3356 69.8 63.7756 70.3333 63.1356 71.4C62.2823 72.9467 60.7623 74.92 58.5756 77.32C56.389 79.72 54.6023 81.4 53.2156 82.36C52.2556 83 51.1756 83.52 49.9756 83.92C48.7756 84.32 47.4823 84.6 46.0956 84.76C44.1756 84.92 42.8956 84.9333 42.2556 84.8C41.6156 84.6667 41.029 84.1733 40.4956 83.32C38.8423 80.7067 38.269 76.8 38.7756 71.6C39.2823 66.4 40.709 61.9867 43.0556 58.36C44.4423 56.3333 46.3356 54.1867 48.7356 51.92C51.1356 49.6533 53.6956 47.7733 56.4156 46.28C58.1223 45.2667 61.0823 44.76 65.2956 44.76C66.629 44.7067 67.749 44.5067 68.6556 44.16C69.5623 43.8133 70.309 43.28 70.8956 42.56C71.4823 41.84 71.949 41.12 72.2956 40.4C72.6423 39.68 73.0956 38.72 73.6556 37.52C74.2156 36.32 74.7623 35.2933 75.2956 34.44C83.509 21.48 87.9356 14.52 88.5756 13.56C88.7356 13.24 89.0556 12.68 89.5356 11.88C92.8956 6.17333 95.3756 3.08 96.9756 2.59999C98.3623 2.17333 99.349 3.15999 99.9356 5.56C100.576 7.96 100.309 10.7867 99.1356 14.04C97.9623 17.2933 96.5356 20.1867 94.8556 22.72C93.1756 25.2533 91.1623 28.16 88.8156 31.44C86.469 34.72 84.9223 37.0533 84.1756 38.44C83.5356 39.5067 82.829 41.12 82.0556 43.28C81.2823 45.44 80.7356 46.8933 80.4156 47.64C75.7756 57.72 73.909 66.2 74.8156 73.08C75.1356 75.64 75.789 77.4667 76.7756 78.56C77.7623 79.6533 79.189 80.2 81.0556 80.2C82.389 80.2 84.0956 79.9067 86.1756 79.32C86.9756 79.0533 87.4556 78.8667 87.6156 78.76C91.7223 76.6267 94.949 74.6267 97.2956 72.76ZM55.6956 69.56C63.269 59.96 66.949 54.3867 66.7356 52.84C66.469 51.72 65.4423 51.1733 63.6556 51.2C61.869 51.2267 60.149 51.8267 58.4956 53C56.469 54.3867 54.2423 56.44 51.8156 59.16C49.389 61.88 47.829 64.0667 47.1356 65.72C46.3356 67.48 45.9356 69.6667 45.9356 72.28C45.9356 75.5333 46.5756 77.08 47.8556 76.92C49.349 76.76 51.9623 74.3067 55.6956 69.56ZM151.954 74.28C153.128 73.32 154.154 72.92 155.034 73.08C155.914 73.24 156.354 74.0933 156.354 75.64C156.354 76.12 156.248 76.6 156.034 77.08C155.821 77.56 155.581 77.96 155.314 78.28C155.048 78.6 154.648 78.9867 154.114 79.44C153.581 79.8933 153.168 80.2267 152.874 80.44C152.581 80.6533 152.128 80.96 151.514 81.36C150.901 81.76 150.514 82.0133 150.354 82.12C146.568 84.7333 144.621 86.12 144.514 86.28C144.194 86.6 143.408 86.9467 142.154 87.32C140.901 87.6933 139.928 87.88 139.234 87.88C138.328 88.1467 137.528 88.28 136.834 88.28C136.141 88.28 135.354 88.16 134.474 87.92C133.594 87.68 132.954 87.48 132.554 87.32C132.154 87.16 131.821 87.0267 131.554 86.92C130.114 86.2267 128.141 84.7067 125.634 82.36L122.514 79.4L118.514 82.36C115.741 84.2267 112.728 85.3733 109.474 85.8C106.754 86.0667 104.168 85.7733 101.714 84.92C99.261 84.0667 97.3277 82.5867 95.9144 80.48C94.501 78.3733 94.0877 75.8533 94.6744 72.92C95.3144 69.8267 96.8477 66.4267 99.2744 62.72C101.701 59.0133 104.274 55.8533 106.994 53.24C109.074 51.2667 110.728 50.28 111.954 50.28C112.541 50.28 113.341 50.8133 114.354 51.88C115.048 52.6267 115.381 53.24 115.354 53.72C115.328 54.2 114.914 55.1867 114.114 56.68C107.554 69.5333 105.848 76.52 108.994 77.64L109.634 77.72C111.821 78.04 114.834 76.2267 118.674 72.28C122.514 68.3333 125.181 64.3333 126.674 60.28C127.794 57.56 129.154 55.1067 130.754 52.92C132.141 51 133.154 49.92 133.794 49.68C134.434 49.44 135.634 49.7733 137.394 50.68C138.888 51.48 139.674 52.3867 139.754 53.4C139.834 54.4133 139.288 56.04 138.114 58.28C137.528 59.1867 137.048 60.2 136.674 61.32C136.301 62.3867 136.008 63.3467 135.794 64.2C135.688 64.4667 135.554 64.96 135.394 65.68C135.234 66.4 135.074 67 134.914 67.48C134.594 68.8133 134.301 69.9067 134.034 70.76C133.501 73 133.234 75.12 133.234 77.12C133.234 79.12 133.554 80.44 134.194 81.08C134.728 81.6133 135.874 81.9333 137.634 82.04C137.901 81.9333 138.621 81.68 139.794 81.28C140.968 80.88 141.768 80.5733 142.194 80.36C146.301 78.2267 149.554 76.2 151.954 74.28ZM194.729 75.16C195.903 74.2 196.916 73.8 197.769 73.96C198.623 74.12 199.076 74.9733 199.129 76.52C199.129 76.8933 199.063 77.28 198.929 77.68C198.796 78.08 198.583 78.4667 198.289 78.84C197.996 79.2133 197.716 79.5467 197.449 79.84C197.183 80.1333 196.823 80.4533 196.369 80.8C195.916 81.1467 195.543 81.4133 195.249 81.6C194.956 81.7867 194.569 82.04 194.089 82.36C193.609 82.68 193.289 82.8933 193.129 83C191.849 83.8533 190.543 84.5733 189.209 85.16C188.356 85.5333 186.916 86.0533 184.889 86.72C182.863 87.3867 180.276 88.1333 177.129 88.96C173.983 89.7867 170.916 90.1067 167.929 89.92C164.943 89.7333 162.703 88.8933 161.209 87.4C160.623 86.8133 159.956 85.96 159.209 84.84C158.463 83.72 157.809 82.6267 157.249 81.56C156.689 80.4933 156.276 79.6133 156.009 78.92C155.316 77.0533 154.996 74.4667 155.049 71.16C155.529 61.08 159.849 52.44 168.009 45.24C169.929 43.64 171.343 42.6667 172.249 42.32C173.156 41.9733 174.863 41.8 177.369 41.8C181.956 41.8 185.463 42.8133 187.889 44.84C190.316 46.8667 191.236 49.5333 190.649 52.84C190.276 54.4933 189.916 55.52 189.569 55.92C189.223 56.32 188.436 56.6 187.209 56.76C185.556 56.92 183.996 56.5867 182.529 55.76C181.063 54.9333 180.489 54.04 180.809 53.08C181.129 52.28 180.956 51.4667 180.289 50.64C179.623 49.8133 178.809 49.4 177.849 49.4C176.089 49.4 173.409 51.2533 169.809 54.96C166.209 58.6667 164.409 61.4533 164.409 63.32C164.409 64.0133 164.036 65.0267 163.289 66.36C162.489 67.5333 162.116 69.56 162.169 72.44C162.276 75.2667 162.729 77.2667 163.529 78.44C164.809 80.36 166.956 81.68 169.969 82.4C172.983 83.12 175.743 83.24 178.249 82.76C179.583 82.5467 181.023 82.12 182.569 81.48C185.396 80.36 187.983 78.8933 190.329 77.08C192.143 75.7467 193.396 75.24 194.089 75.56C194.143 75.56 194.236 75.5067 194.369 75.4C194.503 75.2933 194.623 75.2133 194.729 75.16ZM246.638 75.24C247.651 74.44 248.518 74.1067 249.238 74.24C249.958 74.3733 250.318 75.08 250.318 76.36C250.318 76.6267 250.264 76.9067 250.158 77.2C250.051 77.4933 249.931 77.76 249.798 78C249.664 78.24 249.464 78.4933 249.198 78.76C248.931 79.0267 248.691 79.2667 248.478 79.48C248.264 79.6933 247.998 79.92 247.678 80.16C247.358 80.4 247.091 80.5867 246.878 80.72C246.664 80.8533 246.398 81.0267 246.078 81.24C245.758 81.4533 245.518 81.6133 245.358 81.72C244.344 82.4133 243.278 83 242.158 83.48C242.051 83.5333 241.411 83.8533 240.238 84.44L239.838 84.92C238.398 86.3067 236.318 87.16 233.598 87.48C231.891 87.6933 230.571 87.7067 229.638 87.52C228.704 87.3333 227.411 86.8667 225.758 86.12C223.304 84.9467 221.678 83.9867 220.878 83.24C220.344 82.8133 219.891 82.6267 219.518 82.68C219.144 82.7333 218.451 83.16 217.438 83.96C214.184 86.3067 210.304 87.6267 205.798 87.92C201.291 88.2133 198.344 87.32 196.958 85.24C196.104 83.9067 195.718 81.32 195.798 77.48C195.878 73.64 196.371 70.8933 197.278 69.24C198.078 67.8 198.691 66.7333 199.118 66.04C199.598 65.3467 200.051 64.7067 200.478 64.12C200.904 63.48 201.624 62.5467 202.638 61.32C205.998 57.16 208.638 54.3067 210.558 52.76C212.051 51.5867 213.811 50.5867 215.838 49.76C217.864 48.9333 219.984 48.3867 222.198 48.12C224.411 47.8533 226.371 48.1467 228.078 49C230.158 50.0667 231.438 51.8933 231.918 54.48C232.398 57.0667 232.344 59.5733 231.758 62C231.171 64.4267 230.344 66.7067 229.278 68.84C228.371 70.8667 227.691 73.08 227.238 75.48C226.784 77.88 226.798 79.4533 227.278 80.2C228.291 82.2267 231.624 82.36 237.278 80.6C237.491 80.5467 237.704 80.52 237.918 80.52C238.238 80.4133 238.478 80.3067 238.638 80.2C242.051 78.44 244.718 76.7867 246.638 75.24ZM222.478 60.2C223.064 59.88 223.384 59.6133 223.438 59.4C223.491 59.1867 223.358 58.92 223.038 58.6C222.398 57.9067 221.491 57.4533 220.318 57.24C219.144 57.0267 217.998 57.08 216.878 57.4C215.758 57.6667 214.064 58.7333 211.798 60.6C209.531 62.4667 207.998 64.0667 207.197 65.4C206.131 66.9467 205.224 68.3333 204.478 69.56C203.571 70.84 202.958 72.7067 202.638 75.16C202.318 77.6133 202.451 79.2133 203.038 79.96C203.571 80.6 204.744 80.92 206.558 80.92C208.371 80.92 210.078 80.6267 211.678 80.04C213.224 79.2933 214.371 78.1733 215.118 76.68C216.398 74.1733 217.438 72.1467 218.238 70.6C219.624 68.2 220.318 66.5733 220.318 65.72C220.318 65.1867 220.544 64.64 220.998 64.08C221.451 63.52 221.571 62.92 221.358 62.28C221.091 61.4267 221.464 60.7333 222.478 60.2ZM285.998 75.32C287.224 74.4667 288.264 74.1867 289.118 74.48C289.971 74.7733 290.344 75.6667 290.238 77.16C290.184 77.5333 290.064 77.92 289.878 78.32C289.691 78.72 289.438 79.08 289.118 79.4C288.798 79.72 288.491 80.0133 288.198 80.28C287.904 80.5467 287.518 80.8267 287.038 81.12C286.558 81.4133 286.158 81.64 285.837 81.8C285.518 81.96 285.104 82.1733 284.598 82.44C284.091 82.7067 283.758 82.8933 283.598 83C282.264 83.6933 280.878 84.2533 279.438 84.68C279.384 84.7333 278.731 85.1467 277.478 85.92C276.224 86.6933 274.798 87.5467 273.198 88.48C271.598 89.4133 270.291 90.04 269.278 90.36C267.891 90.84 266.451 91.2133 264.958 91.48C263.464 91.7467 261.891 91.92 260.238 92C258.584 92.08 256.998 91.9067 255.478 91.48C253.958 91.0533 252.691 90.4133 251.678 89.56C250.451 88.44 249.451 86.9067 248.678 84.96C247.904 83.0133 247.398 80.9067 247.158 78.64C246.918 76.3733 246.798 74.2533 246.798 72.28C246.798 70.3067 246.878 68.4133 247.038 66.6C247.091 66.3333 247.398 64.0533 247.958 59.76C248.518 55.4667 249.051 51.2533 249.558 47.12L250.318 40.92C249.678 40.5467 248.478 40.28 246.718 40.12C245.651 40.0667 244.557 40.0667 243.437 40.12C240.824 40.12 238.984 40.04 237.917 39.88C237.704 39.8267 237.397 39.8 236.997 39.8C236.597 39.8 236.197 39.8 235.797 39.8C235.397 39.8 234.997 39.8 234.597 39.8C234.197 39.8 233.877 39.76 233.637 39.68C233.397 39.6 233.251 39.48 233.197 39.32C233.091 38.4667 233.437 37.8533 234.237 37.48C234.291 37.4267 234.651 37.2 235.317 36.8C235.984 36.4 236.677 36.0133 237.397 35.64C238.117 35.2667 239.091 34.9333 240.317 34.64C241.544 34.3467 242.797 34.2267 244.077 34.28C248.078 34.6533 250.571 34.7733 251.558 34.64C252.544 34.5067 253.518 33.9333 254.478 32.92C255.918 31.5867 257.838 28.0933 260.238 22.44C260.344 22.2267 260.504 21.9067 260.718 21.48C261.624 19.3467 262.371 17.6667 262.958 16.44C263.544 15.2133 264.371 13.6533 265.438 11.76C266.504 9.86666 267.678 8.28 268.957 7C270.238 5.72 271.571 4.73333 272.958 4.03999C277.438 1.90666 279.678 2.04 279.678 4.43999C279.678 5.82666 278.638 8.94666 276.558 13.8C275.971 15.1333 275.544 16.1733 275.278 16.92C274.958 17.88 274.691 19.0267 274.478 20.36C274.264 21.6933 273.758 23.0267 272.958 24.36C271.678 26.6 270.611 28.4933 269.758 30.04C268.744 31.8533 268.371 32.92 268.638 33.24C268.904 33.6667 271.598 34.1467 276.718 34.68C280.291 35.0533 282.464 35.3733 283.238 35.64C284.011 35.9067 284.344 36.4133 284.238 37.16C284.131 38.1733 283.544 38.6 282.478 38.44C282.051 38.3867 281.198 38.36 279.918 38.36C278.638 38.4133 277.198 38.4933 275.598 38.6C273.998 38.7067 272.344 38.8667 270.638 39.08C268.984 39.2933 267.598 39.4533 266.478 39.56C265.891 39.6667 265.118 41.3733 264.158 44.68C263.198 47.9867 262.144 52 260.998 56.72C259.851 61.44 259.011 64.6 258.478 66.2C255.758 74.36 256.104 79.96 259.518 83C261.064 84.3867 262.504 85.0533 263.838 85C264.638 85 265.518 84.7067 266.478 84.12C266.638 83.9067 267.184 83.5867 268.118 83.16C269.051 82.7333 270.011 82.3467 270.998 82C271.984 81.6533 272.998 81.2933 274.038 80.92C275.078 80.5467 275.624 80.36 275.678 80.36C279.944 78.6533 283.384 76.9733 285.998 75.32ZM304.011 36.44C302.517 36.8133 301.051 36.28 299.611 34.84C298.597 33.8267 298.064 33.16 298.011 32.84C297.957 32.52 298.331 32.04 299.131 31.4C300.251 30.6 301.677 30.2 303.411 30.2C305.144 30.2 306.331 30.6 306.971 31.4C307.664 32.3067 307.704 33.2933 307.091 34.36C306.477 35.4267 305.451 36.12 304.011 36.44ZM318.251 74.76C318.624 75.4 318.637 76.0133 318.291 76.6C317.944 77.1867 316.971 78.1467 315.371 79.48C312.864 81.6133 309.904 83.56 306.491 85.32C303.931 86.6 301.277 87.12 298.531 86.88C295.784 86.64 293.197 85.8533 290.771 84.52C288.344 83.1867 286.251 81.4533 284.491 79.32C281.984 76.3333 281.237 72.36 282.251 67.4C282.357 67.0267 282.571 65.7467 282.891 63.56C283.211 61.3733 283.544 59.44 283.891 57.76C284.237 56.08 284.624 54.9733 285.051 54.44C285.531 53.8533 286.317 53.4533 287.411 53.24C288.504 53.0267 289.637 53.0133 290.811 53.2C291.984 53.3867 293.104 53.7333 294.171 54.24C295.237 54.7467 295.971 55.4267 296.371 56.28C296.771 57.1333 296.757 58.0933 296.331 59.16C295.104 61.72 294.491 63.5067 294.491 64.52C294.491 65.48 293.957 66.68 292.891 68.12C291.984 69.1867 291.437 70.48 291.251 72C291.064 73.52 291.317 74.52 292.011 75C292.597 75.2133 292.891 75.88 292.891 77C292.891 77.96 293.584 79.0533 294.971 80.28C295.931 81.1867 296.691 81.6933 297.251 81.8C297.811 81.9067 298.837 81.7733 300.331 81.4C302.517 80.6 305.317 78.9733 308.731 76.52C311.451 74.5467 313.517 73.4267 314.931 73.16C316.344 72.8933 317.451 73.4267 318.251 74.76ZM358.409 69.64C359.209 70.0667 359.609 71 359.609 72.44C359.663 74.0933 358.729 75.64 356.809 77.08C356.116 77.56 355.316 78.04 354.409 78.52C354.249 78.5733 354.063 78.68 353.849 78.84C353.103 79.2667 352.463 79.5067 351.929 79.56C350.329 79.6667 348.783 79.0267 347.289 77.64C346.916 77.32 346.516 76.76 346.089 75.96L345.849 75.56C345.369 74.76 344.916 74.2533 344.489 74.04C344.063 73.8267 343.529 73.88 342.889 74.2C342.089 74.6267 341.183 75.9333 340.169 78.12C339.689 79.24 339.289 80.0133 338.969 80.44C337.956 81.9333 337.076 82.7867 336.329 83C335.369 83.48 334.063 84.2267 332.409 85.24C330.383 86.4667 328.463 87.1333 326.649 87.24C324.569 87.4 323.023 87.6133 322.009 87.88C321.743 87.9333 321.476 87.96 321.209 87.96C320.623 87.96 320.116 87.8533 319.689 87.64C319.049 87.3733 318.116 86.6533 316.889 85.48C315.556 84.2533 314.649 83.1733 314.169 82.24C313.689 81.3067 313.209 79.6667 312.729 77.32C311.929 73.48 311.743 70.4 312.169 68.08C312.596 65.76 313.769 63.0533 315.689 59.96C318.143 56.0133 320.463 53.16 322.649 51.4C324.836 49.64 327.529 48.3867 330.729 47.64C332.276 47.32 333.636 46.76 334.809 45.96C336.676 44.7333 338.329 44.28 339.769 44.6C341.156 44.8667 342.756 45.96 344.569 47.88C345.529 48.9467 346.223 49.8 346.649 50.44C347.076 51.08 347.369 51.6933 347.529 52.28C347.689 52.8667 347.769 53.72 347.769 54.84C347.769 59.5867 347.929 63.2667 348.249 65.88C348.409 67.4267 348.769 68.6133 349.329 69.44C349.889 70.2667 350.863 71.2667 352.249 72.44L352.489 72.28C353.449 71.64 354.143 71.1333 354.569 70.76C356.169 69.5333 357.449 69.16 358.409 69.64ZM339.929 55.88C339.929 53.8 339.716 52.6533 339.289 52.44C339.183 52.5467 339.076 52.68 338.969 52.84C338.703 53.32 338.729 54.4133 339.049 56.12C339.263 57.3467 339.476 58.12 339.689 58.44C339.849 58.0133 339.929 57.16 339.929 55.88ZM337.609 68.2C337.823 66.9733 337.796 66.0933 337.529 65.56C337.316 65.0267 336.649 64.2 335.529 63.08C333.769 61.3733 332.889 59.96 332.889 58.84C332.889 58.0933 332.649 57.2133 332.169 56.2C331.689 55.1867 331.209 54.52 330.729 54.2C330.356 53.9333 330.036 53.8 329.769 53.8C329.556 53.8 329.369 53.8533 329.209 53.96C328.676 54.2267 327.583 55.2133 325.929 56.92C324.489 58.36 323.143 60.2 321.889 62.44C320.636 64.68 319.716 66.7867 319.129 68.76C318.543 70.6267 318.436 71.9867 318.809 72.84C319.236 73.64 319.476 75 319.529 76.92C319.689 78.36 319.903 79.4267 320.169 80.12C320.436 80.7067 320.836 81.1067 321.369 81.32C321.956 81.5867 322.916 81.72 324.249 81.72C324.889 81.72 325.423 81.6933 325.849 81.64C326.276 81.64 326.676 81.5867 327.049 81.48C327.423 81.3733 327.769 81.24 328.089 81.08C328.463 80.8667 328.836 80.6267 329.209 80.36C329.583 80.0933 330.036 79.7467 330.569 79.32C332.596 77.72 333.743 76.44 334.009 75.48C334.329 74.4667 334.969 73.4 335.929 72.28C336.783 71.3733 337.343 70.0133 337.609 68.2ZM351.845 73.96C352.698 72.52 354.352 69.2267 356.805 64.08C359.258 58.9333 361.365 55.32 363.125 53.24C363.392 52.8667 363.685 52.52 364.005 52.2C364.645 51.5067 365.525 50.9867 366.645 50.64C367.765 50.2933 368.778 50.3333 369.685 50.76C370.005 50.9733 370.232 51.5333 370.365 52.44C370.498 53.3467 370.698 53.8267 370.965 53.88C371.338 53.9333 372.245 53.4533 373.685 52.44C376.138 50.7333 380.005 49.32 385.285 48.2C387.418 47.6667 388.805 47.4533 389.445 47.56C390.085 47.6667 390.885 48.1467 391.845 49C393.072 50.2267 393.712 51.72 393.765 53.48C393.818 55.24 393.232 56.8933 392.005 58.44C391.098 59.7733 389.925 62.4133 388.485 66.36C387.045 70.3067 386.325 73.0267 386.325 74.52C386.325 75.5867 386.685 76.7467 387.405 78C388.125 79.2533 389.005 80.2933 390.045 81.12C391.085 81.9467 392.032 82.36 392.885 82.36C394.165 82.36 396.858 81.2933 400.965 79.16C405.072 77.0267 408.298 75 410.645 73.08C412.405 71.7467 413.658 71.12 414.405 71.2C415.152 71.28 415.525 72.0667 415.525 73.56C415.525 74.2 415.245 74.9333 414.685 75.76C414.125 76.5867 413.392 77.4533 412.485 78.36C411.525 79.2133 410.405 80.08 409.125 80.96C407.845 81.84 406.538 82.5467 405.205 83.08C401.685 84.7333 399.152 85.9333 397.605 86.68C394.938 87.9067 392.578 88.2533 390.525 87.72C388.472 87.1867 386.058 85.5333 383.285 82.76C381.045 80.52 379.725 78.9867 379.325 78.16C378.925 77.3333 378.725 75.7467 378.725 73.4C378.725 69.9867 379.338 66.44 380.565 62.76C381.632 59.08 382.058 57.08 381.845 56.76C381.525 56.44 379.365 58.16 375.365 61.92C371.365 65.68 367.445 69.6533 363.605 73.84C359.765 78.0267 357.845 80.44 357.845 81.08C357.845 81.6133 357.512 82.2 356.845 82.84C356.178 83.48 355.365 84 354.405 84.4C353.445 84.8 352.592 84.92 351.845 84.76C350.618 84.6 349.765 83.64 349.285 81.88C348.912 80.7067 348.858 79.6667 349.125 78.76C349.392 77.8533 350.298 76.2533 351.845 73.96ZM420.737 80.92C420.15 80.6 420.07 79.4 420.497 77.32C420.924 75.24 421.644 73.8533 422.657 73.16C423.617 72.3067 425.044 71.9333 426.937 72.04C428.83 72.1467 430.577 72.6 432.177 73.4C433.83 74.3067 434.737 75.0533 434.897 75.64C435.057 76.2267 434.71 77.5867 433.857 79.72C432.844 81.96 431.817 83.4267 430.777 84.12C429.737 84.8133 428.07 85.1067 425.777 85C423.164 84.8933 421.857 84.28 421.857 83.16C421.857 82.04 421.484 81.2933 420.737 80.92Z" fill="white"/>
</svg>
