<svg width="174" height="32" viewBox="0 0 174 32" fill="none" xmlns="http://www.w3.org/2000/svg">
<path d="M16.0298 27H11.2275V16.0796H5.04102V27H0.23877V2.01465H5.04102V11.9097H11.2275V2.01465H16.0298V27ZM26.4546 7.53467C27.8901 7.53467 29.1035 7.88786 30.0947 8.59424C31.0973 9.30062 31.855 10.3032 32.3677 11.6021C32.8804 12.8895 33.1367 14.4162 33.1367 16.1821V18.7456H24.0107C24.0335 20.4204 24.3411 21.6566 24.9336 22.4541C25.526 23.2402 26.4318 23.6333 27.6509 23.6333C28.4598 23.6333 29.2231 23.5308 29.9409 23.3257C30.6701 23.1092 31.4448 22.7446 32.2651 22.2319V26.0259C31.5018 26.4816 30.6872 26.812 29.8213 27.0171C28.9554 27.2336 28.0212 27.3418 27.0186 27.3418C25.264 27.3418 23.8341 26.9487 22.729 26.1626C21.6239 25.3651 20.8149 24.2371 20.3022 22.7788C19.7896 21.3091 19.5332 19.5659 19.5332 17.5493C19.5332 15.396 19.7896 13.5788 20.3022 12.0977C20.8263 10.6051 21.6011 9.47152 22.6265 8.69678C23.6519 7.92204 24.9279 7.53467 26.4546 7.53467ZM26.5571 11.1064C25.8052 11.1064 25.207 11.4482 24.7627 12.1318C24.3184 12.804 24.0791 13.9092 24.0449 15.4473H28.9155C28.9155 14.5472 28.8244 13.7725 28.6421 13.123C28.4598 12.4736 28.1921 11.978 27.8389 11.6362C27.4857 11.283 27.0584 11.1064 26.5571 11.1064ZM40.7759 27H36.23V0.408203H40.7759V27ZM49.2524 27H44.7065V0.408203H49.2524V27ZM67.043 17.3784C67.043 18.7114 66.9062 19.9761 66.6328 21.1724C66.3708 22.3687 65.9492 23.4282 65.3682 24.3511C64.7985 25.2739 64.0465 26.0031 63.1123 26.5386C62.1895 27.0741 61.0615 27.3418 59.7285 27.3418C58.4867 27.3418 57.41 27.0798 56.4985 26.5557C55.5871 26.0316 54.8351 25.3138 54.2427 24.4023C53.6502 23.4795 53.2059 22.4199 52.9097 21.2236C52.6248 20.016 52.4824 18.7342 52.4824 17.3784C52.4824 15.453 52.7331 13.7497 53.2344 12.2686C53.7471 10.776 54.5389 9.60824 55.6099 8.76514C56.6922 7.92204 58.0879 7.50049 59.7969 7.50049C61.2666 7.50049 62.5426 7.88216 63.625 8.64551C64.7188 9.40885 65.5618 10.5254 66.1543 11.9951C66.7467 13.4535 67.043 15.2479 67.043 17.3784ZM57.0967 17.4468C57.0967 18.7684 57.1878 19.8792 57.3701 20.7793C57.5638 21.6794 57.8543 22.3573 58.2417 22.813C58.6405 23.2687 59.1475 23.4966 59.7627 23.4966C60.3893 23.4966 60.8906 23.2744 61.2666 22.8301C61.654 22.3743 61.9331 21.6908 62.104 20.7793C62.2863 19.8678 62.3774 18.7342 62.3774 17.3784C62.3774 16.034 62.2863 14.9175 62.104 14.0288C61.9331 13.1401 61.654 12.4736 61.2666 12.0293C60.8906 11.585 60.3893 11.3628 59.7627 11.3628C58.8285 11.3628 58.1506 11.8584 57.729 12.8496C57.3075 13.8408 57.0967 15.3732 57.0967 17.4468ZM75.3828 22.3516L75.5879 22.7275C75.3942 23.8896 75.172 25.0005 74.9214 26.0601C74.6821 27.1082 74.4201 28.1051 74.1353 29.0508C73.8504 30.0078 73.5314 30.9136 73.1782 31.7681H69.4697C69.6634 30.8566 69.8571 29.8312 70.0508 28.6919C70.2445 27.5526 70.4154 26.4246 70.5635 25.3081C70.7116 24.1802 70.8141 23.1947 70.8711 22.3516H75.3828ZM110.571 2.01465L105.666 27H100.18L97.873 15.1055C97.8047 14.6953 97.7306 14.2567 97.6509 13.7896C97.5825 13.3224 97.5085 12.8325 97.4287 12.3198C97.3604 11.8071 97.2977 11.2773 97.2407 10.7305C97.1838 10.1722 97.1268 9.59684 97.0698 9.00439C97.0243 9.44873 96.973 9.92725 96.916 10.4399C96.859 10.9412 96.7964 11.4596 96.728 11.9951C96.6597 12.5192 96.5856 13.0433 96.5059 13.5674C96.4261 14.0915 96.3407 14.5928 96.2495 15.0713L93.9424 27H88.4907L83.5518 2.01465H88.2344L90.5244 14.644C90.6156 15.1453 90.701 15.6865 90.7808 16.2676C90.8719 16.8372 90.9574 17.424 91.0371 18.0278C91.1283 18.6317 91.208 19.2241 91.2764 19.8052C91.3561 20.3862 91.4188 20.9274 91.4644 21.4287C91.5327 20.8477 91.6068 20.2495 91.6865 19.6343C91.7777 19.019 91.8688 18.4152 91.96 17.8228C92.0625 17.2303 92.1593 16.672 92.2505 16.1479C92.3416 15.6125 92.4271 15.134 92.5068 14.7124L95.0703 2.01465H99.0864L101.479 14.6782C101.57 15.134 101.661 15.6353 101.752 16.1821C101.855 16.7176 101.952 17.2816 102.043 17.874C102.134 18.4665 102.22 19.0646 102.299 19.6685C102.379 20.2609 102.453 20.8477 102.521 21.4287C102.578 20.7451 102.658 20.016 102.761 19.2412C102.863 18.4665 102.972 17.686 103.085 16.8999C103.211 16.1024 103.336 15.3504 103.461 14.644L105.786 2.01465H110.571ZM126.481 17.3784C126.481 18.7114 126.345 19.9761 126.071 21.1724C125.809 22.3687 125.388 23.4282 124.807 24.3511C124.237 25.2739 123.485 26.0031 122.551 26.5386C121.628 27.0741 120.5 27.3418 119.167 27.3418C117.925 27.3418 116.848 27.0798 115.937 26.5557C115.026 26.0316 114.274 25.3138 113.681 24.4023C113.089 23.4795 112.644 22.4199 112.348 21.2236C112.063 20.016 111.921 18.7342 111.921 17.3784C111.921 15.453 112.172 13.7497 112.673 12.2686C113.186 10.776 113.977 9.60824 115.048 8.76514C116.131 7.92204 117.526 7.50049 119.235 7.50049C120.705 7.50049 121.981 7.88216 123.063 8.64551C124.157 9.40885 125 10.5254 125.593 11.9951C126.185 13.4535 126.481 15.2479 126.481 17.3784ZM116.535 17.4468C116.535 18.7684 116.626 19.8792 116.809 20.7793C117.002 21.6794 117.293 22.3573 117.68 22.813C118.079 23.2687 118.586 23.4966 119.201 23.4966C119.828 23.4966 120.329 23.2744 120.705 22.8301C121.092 22.3743 121.372 21.6908 121.542 20.7793C121.725 19.8678 121.816 18.7342 121.816 17.3784C121.816 16.034 121.725 14.9175 121.542 14.0288C121.372 13.1401 121.092 12.4736 120.705 12.0293C120.329 11.585 119.828 11.3628 119.201 11.3628C118.267 11.3628 117.589 11.8584 117.167 12.8496C116.746 13.8408 116.535 15.3732 116.535 17.4468ZM138.034 7.50049C138.285 7.50049 138.53 7.52327 138.769 7.56885C139.008 7.60303 139.287 7.66569 139.606 7.75684L139.196 12.6104C138.968 12.5192 138.718 12.4565 138.444 12.4224C138.182 12.3882 137.892 12.3711 137.573 12.3711C137.049 12.3711 136.582 12.485 136.171 12.7129C135.761 12.9408 135.414 13.2712 135.129 13.7041C134.855 14.1257 134.645 14.6383 134.497 15.2422C134.36 15.8346 134.292 16.5011 134.292 17.2417V27H129.746V7.85938H133.249L133.898 11.0039H134.121C134.371 10.4001 134.685 9.8304 135.061 9.29492C135.437 8.75944 135.875 8.3265 136.376 7.99609C136.878 7.66569 137.43 7.50049 138.034 7.50049ZM146.425 27H141.879V0.408203H146.425V27ZM155.329 27.3418C153.483 27.3418 152.076 26.4645 151.108 24.71C150.139 22.9554 149.655 20.5229 149.655 17.4126C149.655 14.2909 150.139 11.8584 151.108 10.1152C152.076 8.37207 153.432 7.50049 155.175 7.50049C155.768 7.50049 156.315 7.60303 156.816 7.80811C157.329 8.01318 157.796 8.3265 158.217 8.74805C158.65 9.1582 159.026 9.6766 159.345 10.3032H159.516C159.482 9.56266 159.448 8.93034 159.414 8.40625C159.391 7.87077 159.379 7.42074 159.379 7.05615V0.408203H163.925V27H160.285L159.653 24.8979H159.379C159.015 25.4676 158.633 25.9347 158.234 26.2993C157.847 26.6525 157.42 26.9146 156.953 27.0854C156.486 27.2563 155.944 27.3418 155.329 27.3418ZM156.679 23.5308C157.591 23.5308 158.269 23.0864 158.713 22.1978C159.157 21.3091 159.379 19.9134 159.379 18.0107V16.917C159.379 15.0257 159.163 13.6471 158.73 12.7812C158.308 11.904 157.625 11.4653 156.679 11.4653C155.859 11.4653 155.249 11.9666 154.851 12.9692C154.463 13.9604 154.27 15.4302 154.27 17.3784C154.27 19.4406 154.475 20.9844 154.885 22.0098C155.295 23.0238 155.893 23.5308 156.679 23.5308ZM172.299 18.8823H168.488L167.702 2.01465H173.034L172.299 18.8823ZM167.668 24.522C167.668 23.5877 167.896 22.8757 168.352 22.3857C168.819 21.8958 169.502 21.6509 170.402 21.6509C171.245 21.6509 171.901 21.8958 172.368 22.3857C172.835 22.8643 173.068 23.5763 173.068 24.522C173.068 25.4448 172.823 26.1569 172.333 26.6582C171.855 27.1481 171.211 27.3931 170.402 27.3931C169.548 27.3931 168.876 27.1481 168.386 26.6582C167.907 26.1569 167.668 25.4448 167.668 24.522Z" fill="#00BB85"/>
</svg>
