<svg width="300" height="91" viewBox="0 0 300 91" fill="none" xmlns="http://www.w3.org/2000/svg">
<path d="M57.28 71.76C58.4533 70.7467 59.48 70.3333 60.36 70.52C61.24 70.7067 61.68 71.5467 61.68 73.04C61.68 73.4667 61.6133 73.88 61.48 74.28C61.3467 74.68 61.1467 75.0667 60.88 75.44C60.6133 75.8133 60.3333 76.1467 60.04 76.44C59.7467 76.7333 59.3733 77.04 58.92 77.36C58.4667 77.68 58.1067 77.9467 57.84 78.16C57.5733 78.3733 57.2 78.64 56.72 78.96C56.24 79.28 55.92 79.4933 55.76 79.6C55.7067 79.6 55.6267 79.6267 55.52 79.68C55.4133 79.7333 55.36 79.7867 55.36 79.84C55.2 79.9467 54.9867 80.0933 54.72 80.28C54.4533 80.4667 54.2667 80.5867 54.16 80.64C52.3467 81.92 50.72 82.8 49.28 83.28C47.84 83.6533 46.0533 83.9467 43.92 84.16C38.48 84.7467 34.4267 83.4933 31.76 80.4C29.0933 77.3067 27.2 71.6533 26.08 63.44C25.76 60.8267 25.4133 59.52 25.04 59.52C24.72 59.52 22.8267 61.0133 19.36 64C17.3867 65.8133 15.9733 67.2533 15.12 68.32C14.6933 68.7467 14.32 69.3067 14 70C13.68 70.6933 13.36 71.52 13.04 72.48C12.72 73.44 12.48 74.08 12.32 74.4C12.16 74.7733 11.7867 75.6533 11.2 77.04L10 80C9.78667 80.48 9.65333 81.2667 9.6 82.36C9.54667 83.4533 9.34667 84.32 9 84.96C8.65333 85.6 8 86 7.04 86.16C5.17333 86.4267 3.57333 85.6 2.24 83.68C1.38667 82.5067 0.933333 81.6267 0.88 81.04C0.826666 80.4533 1.12 79.36 1.76 77.76C1.92 77.44 2.05333 77.12 2.16 76.8C2.26667 76.5333 2.44 76.04 2.68 75.32C2.92 74.6 3.08 74.12 3.16 73.88C3.24 73.64 3.38667 73.2133 3.6 72.6C3.81333 71.9867 3.98667 71.52 4.12 71.2C4.25333 70.88 4.42667 70.4533 4.64 69.92C4.85333 69.3867 5.05333 68.9333 5.24 68.56C5.42667 68.1867 5.64 67.76 5.88 67.28C6.12 66.8 6.37333 66.32 6.64 65.84C7.65333 64.0267 8.41333 61.24 8.92 57.48C9.42667 53.72 9.76 51.5733 9.92 51.04C10.8267 47.2533 12.6133 41.84 15.28 34.8C15.76 33.4667 16.32 31.4533 16.96 28.76C17.6 26.0667 18.24 23.56 18.88 21.24C19.52 18.92 20.32 16.5333 21.28 14.08C22.24 11.6267 23.5333 9.54667 25.16 7.84C26.7867 6.13333 28.6667 5.01333 30.8 4.48C32.6133 4.05333 34.0933 4.14666 35.24 4.76C36.3867 5.37333 37.1733 6.29333 37.6 7.52C38.0267 8.74666 38.2533 10.2 38.28 11.88C38.3067 13.56 38.2267 15.0667 38.04 16.4C37.8533 17.7333 37.6 19.0133 37.28 20.24C36.6933 22.2133 35.76 24.5067 34.48 27.12C33.2 29.68 32.32 31.52 31.84 32.64C31.0933 34.72 30.0533 36.8267 28.72 38.96C28.08 39.8667 27.1333 41.3733 25.88 43.48C24.6267 45.5867 23.6 47.12 22.8 48.08C21.68 49.5733 20.4533 51.04 19.12 52.48C18.96 52.64 18.64 52.9467 18.16 53.4C17.68 53.8533 17.2667 54.28 16.92 54.68C16.5733 55.08 16.3467 55.4667 16.24 55.84C16.1867 56 16.2267 56.1867 16.36 56.4C16.4933 56.6133 16.64 56.6933 16.8 56.64C16.9067 56.64 17.04 56.5867 17.2 56.48C17.6267 56.16 18.2133 55.6267 18.96 54.88C19.7067 54.1333 20.4133 53.5467 21.08 53.12C21.7467 52.6933 22.4533 52.4267 23.2 52.32C23.6267 52.2667 24.0533 52.2133 24.48 52.16C26.7733 51.8933 28.6267 52.1067 30.04 52.8C31.4533 53.4933 32.64 54.7467 33.6 56.56C34.4533 58.4267 34.88 60.56 34.88 62.96C34.88 65.0933 35.2267 67.6 35.92 70.48C36.56 73.36 37.28 75.52 38.08 76.96C38.56 77.8133 39.0933 78.32 39.68 78.48C40.2667 78.64 41.4667 78.6133 43.28 78.4C45.4667 78.1333 47.2533 77.7333 48.64 77.2C52.2667 75.28 55.1467 73.4667 57.28 71.76ZM26.24 22.88C26.1333 23.0933 25.9733 23.4 25.76 23.8C25.5467 24.2 25.36 24.5733 25.2 24.92C25.04 25.2667 24.88 25.6 24.72 25.92C23.5467 28.3733 22.6133 30.9333 21.92 33.6C21.6533 34.6133 21.3333 35.64 20.96 36.68C20.5867 37.72 20.12 38.96 19.56 40.4C19 41.84 18.6133 42.8267 18.4 43.36C18.08 44.2133 18.1333 44.7733 18.56 45.04C18.7733 45.2 19.0667 45.0933 19.44 44.72C20.2933 43.8667 21.0133 42.92 21.6 41.88C22.1867 40.84 22.76 39.6267 23.32 38.24C23.88 36.8533 24.3467 35.7867 24.72 35.04C26.2667 32.2133 27.5733 28.6667 28.64 24.4C28.7467 24.1333 28.96 23.64 29.28 22.92C29.6 22.2 29.8667 21.56 30.08 21C30.2933 20.44 30.44 19.8133 30.52 19.12C30.6 18.4267 30.4533 17.9733 30.08 17.76C29.7067 17.44 29.2533 17.6 28.72 18.24C28.2933 18.6667 27.7333 19.6533 27.04 21.2C26.8267 21.7333 26.56 22.2933 26.24 22.88ZM104.441 68.64C105.241 69.0667 105.641 70 105.641 71.44C105.694 73.0933 104.761 74.64 102.841 76.08C102.147 76.56 101.347 77.04 100.441 77.52C100.281 77.5733 100.094 77.68 99.8806 77.84C99.134 78.2667 98.494 78.5067 97.9606 78.56C96.3606 78.6667 94.814 78.0267 93.3206 76.64C92.9473 76.32 92.5473 75.76 92.1206 74.96L91.8806 74.56C91.4006 73.76 90.9473 73.2533 90.5206 73.04C90.094 72.8267 89.5606 72.88 88.9206 73.2C88.1206 73.6267 87.214 74.9333 86.2006 77.12C85.7206 78.24 85.3206 79.0133 85.0006 79.44C83.9873 80.9333 83.1073 81.7867 82.3606 82C81.4006 82.48 80.094 83.2267 78.4406 84.24C76.414 85.4667 74.494 86.1333 72.6806 86.24C70.6006 86.4 69.054 86.6133 68.0406 86.88C67.774 86.9333 67.5073 86.96 67.2406 86.96C66.654 86.96 66.1473 86.8533 65.7206 86.64C65.0806 86.3733 64.1473 85.6533 62.9206 84.48C61.5873 83.2533 60.6806 82.1733 60.2006 81.24C59.7206 80.3067 59.2406 78.6667 58.7606 76.32C57.9606 72.48 57.774 69.4 58.2006 67.08C58.6273 64.76 59.8006 62.0533 61.7206 58.96C64.174 55.0133 66.494 52.16 68.6806 50.4C70.8673 48.64 73.5606 47.3867 76.7606 46.64C78.3073 46.32 79.6673 45.76 80.8406 44.96C82.7073 43.7333 84.3606 43.28 85.8006 43.6C87.1873 43.8667 88.7873 44.96 90.6006 46.88C91.5606 47.9467 92.254 48.8 92.6806 49.44C93.1073 50.08 93.4006 50.6933 93.5606 51.28C93.7206 51.8667 93.8006 52.72 93.8006 53.84C93.8006 58.5867 93.9606 62.2667 94.2806 64.88C94.4406 66.4267 94.8006 67.6133 95.3606 68.44C95.9206 69.2667 96.894 70.2667 98.2806 71.44L98.5206 71.28C99.4806 70.64 100.174 70.1333 100.601 69.76C102.201 68.5333 103.481 68.16 104.441 68.64ZM85.9606 54.88C85.9606 52.8 85.7473 51.6533 85.3206 51.44C85.214 51.5467 85.1073 51.68 85.0006 51.84C84.734 52.32 84.7606 53.4133 85.0806 55.12C85.294 56.3467 85.5073 57.12 85.7206 57.44C85.8806 57.0133 85.9606 56.16 85.9606 54.88ZM83.6406 67.2C83.854 65.9733 83.8273 65.0933 83.5606 64.56C83.3473 64.0267 82.6806 63.2 81.5606 62.08C79.8006 60.3733 78.9206 58.96 78.9206 57.84C78.9206 57.0933 78.6806 56.2133 78.2006 55.2C77.7206 54.1867 77.2406 53.52 76.7606 53.2C76.3873 52.9333 76.0673 52.8 75.8006 52.8C75.5873 52.8 75.4006 52.8533 75.2406 52.96C74.7073 53.2267 73.614 54.2133 71.9606 55.92C70.5206 57.36 69.174 59.2 67.9206 61.44C66.6673 63.68 65.7473 65.7867 65.1606 67.76C64.574 69.6267 64.4673 70.9867 64.8406 71.84C65.2673 72.64 65.5073 74 65.5606 75.92C65.7206 77.36 65.934 78.4267 66.2006 79.12C66.4673 79.7067 66.8673 80.1067 67.4006 80.32C67.9873 80.5867 68.9473 80.72 70.2806 80.72C70.9206 80.72 71.454 80.6933 71.8806 80.64C72.3073 80.64 72.7073 80.5867 73.0806 80.48C73.454 80.3733 73.8006 80.24 74.1206 80.08C74.494 79.8667 74.8673 79.6267 75.2406 79.36C75.614 79.0933 76.0673 78.7467 76.6006 78.32C78.6273 76.72 79.774 75.44 80.0406 74.48C80.3606 73.4667 81.0006 72.4 81.9606 71.28C82.814 70.3733 83.374 69.0133 83.6406 67.2ZM151.396 68.48C151.45 68.8 151.476 69.4133 151.476 70.32C151.476 72.3467 150.61 73.68 148.876 74.32C147.143 74.96 143.956 75.1467 139.316 74.88L131.556 74.48L128.996 79.36C127.29 82.6667 125.396 85.08 123.316 86.6C121.236 88.12 118.463 89.1733 114.996 89.76C111.37 90.3467 108.436 90.2133 106.196 89.36C104.436 88.6667 102.93 87.6267 101.676 86.24C100.423 84.8533 99.5296 83.32 98.9962 81.64C98.4629 79.96 98.1162 78.16 97.9562 76.24C97.7962 74.32 97.9029 72.48 98.2762 70.72C98.7562 67.7333 99.7162 63.4267 101.156 57.8C102.596 52.1733 103.583 48.0533 104.116 45.44C104.916 40.9067 105.876 37.4133 106.996 34.96C108.543 31.44 109.77 28.72 110.676 26.8C111.53 24.9867 112.596 22.8533 113.876 20.4C114.57 19.0667 115.396 17.0933 116.356 14.48C116.996 12.7733 117.516 11.4933 117.916 10.64C118.316 9.78666 118.89 8.70666 119.636 7.4C120.383 6.09333 121.276 5 122.316 4.12C123.356 3.23999 124.57 2.45333 125.956 1.76C127.45 1.01333 128.93 0.626663 130.396 0.599998C131.863 0.573327 133.21 1.06666 134.436 2.08C135.716 3.41333 136.436 5.27999 136.596 7.68C136.756 10.08 136.61 12.2533 136.156 14.2C135.703 16.1467 135.103 18.08 134.356 20C132.223 25.3333 130.81 29.28 130.116 31.84C129.53 34.1333 128.783 36.08 127.876 37.68C123.716 45.04 121.556 48.88 121.396 49.2C119.156 53.2 116.17 57.7067 112.436 62.72C110.41 65.4933 109.103 68.7067 108.516 72.36C107.93 76.0133 108.41 78.16 109.956 78.8C110.01 78.9067 110.276 79.0667 110.756 79.28C111.236 79.4933 111.69 79.7067 112.116 79.92C112.596 80.1333 113.023 80.3733 113.396 80.64C114.196 81.0667 114.876 81.2533 115.436 81.2C115.996 81.1467 116.756 80.8267 117.716 80.24C118.73 79.4933 120.076 77.5067 121.756 74.28C123.436 71.0533 124.276 68.72 124.276 67.28C124.276 66 124.81 64.7733 125.876 63.6C126.943 62.4267 128.063 61.84 129.236 61.84C130.676 61.84 132.543 63.0667 134.836 65.52C136.01 66.6933 137.023 67.5067 137.876 67.96C138.73 68.4133 139.41 68.64 139.916 68.64C140.423 68.64 141.423 68.5333 142.916 68.32C144.356 68.1067 145.743 67.9733 147.076 67.92C148.516 67.76 149.57 67.7333 150.236 67.84C150.903 67.9467 151.29 68.16 151.396 68.48ZM113.396 39.12C112.33 42.2133 111.636 44.76 111.316 46.76C110.996 48.76 111.076 49.92 111.556 50.24C112.09 50.24 112.996 48.8 114.276 45.92C114.916 44.64 116.343 41.7733 118.556 37.32C120.77 32.8667 122.223 29.84 122.916 28.24C124.996 23.1733 126.036 20.3467 126.036 19.76C126.036 18.0533 124.57 18.8 121.636 22C119.77 24.24 118.836 25.68 118.836 26.32C118.836 27.3333 118.116 29.0667 116.676 31.52C115.556 33.4933 114.463 36.0267 113.396 39.12ZM196.474 68.48C196.528 68.8 196.554 69.4133 196.554 70.32C196.554 72.3467 195.688 73.68 193.954 74.32C192.221 74.96 189.034 75.1467 184.394 74.88L176.634 74.48L174.074 79.36C172.368 82.6667 170.474 85.08 168.394 86.6C166.314 88.12 163.541 89.1733 160.074 89.76C156.448 90.3467 153.514 90.2133 151.274 89.36C149.514 88.6667 148.008 87.6267 146.754 86.24C145.501 84.8533 144.608 83.32 144.074 81.64C143.541 79.96 143.194 78.16 143.034 76.24C142.874 74.32 142.981 72.48 143.354 70.72C143.834 67.7333 144.794 63.4267 146.234 57.8C147.674 52.1733 148.661 48.0533 149.194 45.44C149.994 40.9067 150.954 37.4133 152.074 34.96C153.621 31.44 154.848 28.72 155.754 26.8C156.608 24.9867 157.674 22.8533 158.954 20.4C159.648 19.0667 160.474 17.0933 161.434 14.48C162.074 12.7733 162.594 11.4933 162.994 10.64C163.394 9.78666 163.968 8.70666 164.714 7.4C165.461 6.09333 166.354 5 167.394 4.12C168.434 3.23999 169.648 2.45333 171.034 1.76C172.528 1.01333 174.008 0.626663 175.474 0.599998C176.941 0.573327 178.288 1.06666 179.514 2.08C180.794 3.41333 181.514 5.27999 181.674 7.68C181.834 10.08 181.688 12.2533 181.234 14.2C180.781 16.1467 180.181 18.08 179.434 20C177.301 25.3333 175.888 29.28 175.194 31.84C174.608 34.1333 173.861 36.08 172.954 37.68C168.794 45.04 166.634 48.88 166.474 49.2C164.234 53.2 161.248 57.7067 157.514 62.72C155.488 65.4933 154.181 68.7067 153.594 72.36C153.008 76.0133 153.488 78.16 155.034 78.8C155.088 78.9067 155.354 79.0667 155.834 79.28C156.314 79.4933 156.768 79.7067 157.194 79.92C157.674 80.1333 158.101 80.3733 158.474 80.64C159.274 81.0667 159.954 81.2533 160.514 81.2C161.074 81.1467 161.834 80.8267 162.794 80.24C163.808 79.4933 165.154 77.5067 166.834 74.28C168.514 71.0533 169.354 68.72 169.354 67.28C169.354 66 169.888 64.7733 170.954 63.6C172.021 62.4267 173.141 61.84 174.314 61.84C175.754 61.84 177.621 63.0667 179.914 65.52C181.088 66.6933 182.101 67.5067 182.954 67.96C183.808 68.4133 184.488 68.64 184.994 68.64C185.501 68.64 186.501 68.5333 187.994 68.32C189.434 68.1067 190.821 67.9733 192.154 67.92C193.594 67.76 194.648 67.7333 195.314 67.84C195.981 67.9467 196.368 68.16 196.474 68.48ZM158.474 39.12C157.408 42.2133 156.714 44.76 156.394 46.76C156.074 48.76 156.154 49.92 156.634 50.24C157.168 50.24 158.074 48.8 159.354 45.92C159.994 44.64 161.421 41.7733 163.634 37.32C165.848 32.8667 167.301 29.84 167.994 28.24C170.074 23.1733 171.114 20.3467 171.114 19.76C171.114 18.0533 169.648 18.8 166.714 22C164.848 24.24 163.914 25.68 163.914 26.32C163.914 27.3333 163.194 29.0667 161.754 31.52C160.634 33.4933 159.541 36.0267 158.474 39.12ZM210.433 35.44C208.939 35.8133 207.473 35.28 206.033 33.84C205.019 32.8267 204.486 32.16 204.433 31.84C204.379 31.52 204.753 31.04 205.553 30.4C206.673 29.6 208.099 29.2 209.833 29.2C211.566 29.2 212.753 29.6 213.393 30.4C214.086 31.3067 214.126 32.2933 213.513 33.36C212.899 34.4267 211.873 35.12 210.433 35.44ZM224.673 73.76C225.046 74.4 225.059 75.0133 224.713 75.6C224.366 76.1867 223.393 77.1467 221.793 78.48C219.286 80.6133 216.326 82.56 212.913 84.32C210.353 85.6 207.699 86.12 204.953 85.88C202.206 85.64 199.619 84.8533 197.192 83.52C194.766 82.1867 192.673 80.4533 190.912 78.32C188.406 75.3333 187.659 71.36 188.673 66.4C188.779 66.0267 188.992 64.7467 189.312 62.56C189.632 60.3733 189.966 58.44 190.312 56.76C190.659 55.08 191.046 53.9733 191.473 53.44C191.953 52.8533 192.739 52.4533 193.833 52.24C194.926 52.0267 196.059 52.0133 197.233 52.2C198.406 52.3867 199.526 52.7333 200.593 53.24C201.659 53.7467 202.393 54.4267 202.793 55.28C203.193 56.1333 203.179 57.0933 202.753 58.16C201.526 60.72 200.913 62.5067 200.913 63.52C200.913 64.48 200.379 65.68 199.313 67.12C198.406 68.1867 197.859 69.48 197.673 71C197.486 72.52 197.739 73.52 198.433 74C199.019 74.2133 199.313 74.88 199.313 76C199.313 76.96 200.006 78.0533 201.393 79.28C202.353 80.1867 203.113 80.6933 203.673 80.8C204.233 80.9067 205.259 80.7733 206.753 80.4C208.939 79.6 211.739 77.9733 215.153 75.52C217.873 73.5467 219.939 72.4267 221.353 72.16C222.766 71.8933 223.873 72.4267 224.673 73.76ZM255.631 75.04C256.805 74.08 257.831 73.6933 258.711 73.88C259.591 74.0667 260.031 74.9067 260.031 76.4C260.085 76.88 259.991 77.36 259.751 77.84C259.511 78.32 259.258 78.7333 258.991 79.08C258.725 79.4267 258.338 79.8133 257.831 80.24C257.325 80.6667 256.911 80.9867 256.591 81.2C256.271 81.4133 255.805 81.72 255.191 82.12C254.578 82.52 254.218 82.7733 254.111 82.88C252.831 83.7333 251.525 84.4533 250.191 85.04C250.085 85.0933 249.938 85.16 249.751 85.24C249.565 85.32 249.365 85.4 249.151 85.48C248.938 85.56 248.725 85.64 248.511 85.72C248.298 85.8 248.125 85.8667 247.991 85.92L247.791 86C244.538 87.3333 241.045 88.1067 237.311 88.32C233.471 88.5333 230.671 88.1867 228.911 87.28C228.698 87.1733 227.845 86.8 226.351 86.16C224.858 85.52 223.791 84.96 223.151 84.48C221.925 83.68 220.751 81.9467 219.631 79.28C217.551 74.48 216.511 70.24 216.511 66.56C216.511 64.32 216.911 61.3867 217.711 57.76C217.765 57.5467 217.858 57.0933 217.991 56.4C218.125 55.7067 218.245 55.1867 218.351 54.84C218.458 54.4933 218.591 54.0133 218.751 53.4C218.911 52.7867 219.071 52.2667 219.231 51.84C219.391 51.4133 219.578 50.9733 219.791 50.52C220.005 50.0667 220.218 49.6533 220.431 49.28C221.551 47.7333 222.458 46.6133 223.151 45.92C226.031 42.9333 229.685 41.6 234.111 41.92C238.698 42.2933 241.178 43.8133 241.551 46.48C241.871 48.56 241.751 50.7067 241.191 52.92C240.631 55.1333 239.938 56.96 239.111 58.4C238.285 59.84 237.138 61.7067 235.671 64C234.205 66.2933 233.151 68.0533 232.511 69.28C230.165 73.7067 228.991 76.3467 228.991 77.2C228.991 77.8933 229.658 78.88 230.991 80.16C231.845 80.96 232.605 81.44 233.271 81.6C233.938 81.76 235.151 81.68 236.911 81.36C239.685 80.9867 242.698 80.32 245.951 79.36C247.178 78.9333 248.965 78.2133 251.311 77.2C253.658 76.1867 255.098 75.4667 255.631 75.04ZM224.591 69.36C225.071 69.36 226.405 67.28 228.591 63.12C230.725 58.96 231.791 56.4533 231.791 55.6C231.791 54.5867 231.245 53.9333 230.151 53.64C229.058 53.3467 228.191 53.6 227.551 54.4C227.018 55.04 226.485 56 225.951 57.28C225.418 58.56 224.991 59.8667 224.671 61.2C224.405 62.5333 224.165 63.8133 223.951 65.04C223.738 66.2667 223.685 67.2933 223.791 68.12C223.898 68.9467 224.165 69.36 224.591 69.36ZM295.247 68.88C296.42 67.8667 297.447 67.4533 298.327 67.64C299.207 67.8267 299.647 68.6933 299.647 70.24C299.647 70.56 299.594 70.9067 299.487 71.28C299.38 71.6533 299.234 71.9867 299.047 72.28C298.86 72.5733 298.62 72.88 298.327 73.2C298.034 73.52 297.74 73.8 297.447 74.04C297.154 74.28 296.82 74.5333 296.447 74.8C296.074 75.0667 295.754 75.2933 295.487 75.48C295.22 75.6667 294.9 75.8933 294.527 76.16C294.154 76.4267 293.887 76.6133 293.727 76.72C292.447 77.5733 291.114 78.2933 289.727 78.88C289.62 78.9333 289.354 79.0667 288.927 79.28C287.487 80.7733 286.207 81.7867 285.087 82.32C284.02 82.7467 282.607 83.0133 280.847 83.12C279.034 83.6533 277.78 83.6 277.087 82.96C276.874 82.96 276.247 82.9067 275.207 82.8C274.167 82.6933 273.46 82.6267 273.087 82.6C272.714 82.5733 272.14 82.56 271.367 82.56C270.594 82.56 269.927 82.64 269.367 82.8C268.807 82.96 268.26 83.1733 267.727 83.44C267.034 83.8667 266.154 84.0533 265.087 84C264.02 83.9467 262.18 83.7333 259.567 83.36C257.7 83.0933 256.127 82.9067 254.847 82.8C254.58 82.8 254.287 82.8 253.967 82.8C253.647 82.8 253.3 82.7867 252.927 82.76C252.554 82.7333 252.26 82.64 252.047 82.48C251.46 82.1067 250.74 80.6667 249.887 78.16C249.407 76.72 249.114 75.2267 249.007 73.68C248.9 73.04 248.9 72.5333 249.007 72.16C249.274 70.8267 249.7 70 250.287 69.68C250.5 69.5733 250.9 69.4667 251.487 69.36C252.074 69.2533 252.5 69.0667 252.767 68.8C253.247 68.4267 253.647 67.8133 253.967 66.96C254.287 66.0533 254.474 65.12 254.527 64.16C254.58 63.3067 254.66 62.7467 254.767 62.48C254.98 62.16 255.394 61.8133 256.007 61.44C256.62 61.0667 256.954 60.8533 257.007 60.8C257.647 60.2667 258.207 59.5467 258.687 58.64C258.9 58.16 259.327 56.6667 259.967 54.16C260.554 52.1867 261.034 50.16 261.407 48.08C261.78 46.0533 262.047 44.32 262.207 42.88C262.474 39.5733 262.834 37.6267 263.287 37.04C263.74 36.4533 264.594 36.1733 265.847 36.2C267.1 36.2267 268.18 36.5867 269.087 37.28C269.514 37.5467 269.9 37.9867 270.247 38.6C270.594 39.2133 270.847 39.76 271.007 40.24C271.167 40.72 271.367 41.3867 271.607 42.24C271.847 43.0933 272.02 43.6533 272.127 43.92C273.087 46.8 273.78 49.4667 274.207 51.92C274.367 52.88 274.554 54.28 274.767 56.12C274.98 57.96 275.22 59.6267 275.487 61.12C275.754 62.6133 276.127 64 276.607 65.28C277.46 67.6267 277.754 69.7333 277.487 71.6C277.327 72.7733 277.247 73.8667 277.247 74.88C277.247 75.8933 277.58 76.72 278.247 77.36C278.914 78 279.94 78.2667 281.327 78.16C281.914 78.1067 282.5 77.9733 283.087 77.76C283.674 77.5467 284.167 77.3333 284.567 77.12C284.967 76.9067 285.474 76.56 286.087 76.08C286.7 75.6 287.114 75.2667 287.327 75.08C287.54 74.8933 287.994 74.48 288.687 73.84C289.487 73.0933 290.727 72.12 292.407 70.92C294.087 69.72 295.034 69.04 295.247 68.88ZM266.047 74.32C268.447 73.7867 269.86 72.6 270.287 70.76C270.714 68.92 270.26 65.9467 268.927 61.84C267.594 57.9467 266.767 56 266.447 56C266.074 56 265.754 56.7467 265.487 58.24C265.167 59.6267 264.767 60.64 264.287 61.28C263.647 62.1867 262.634 64.12 261.247 67.08C259.86 70.04 259.274 71.68 259.487 72C259.754 72.3733 260.287 72.7733 261.087 73.2C261.887 73.6267 262.754 73.9467 263.687 74.16C264.62 74.3733 265.407 74.4267 266.047 74.32Z" fill="white"/>
</svg>
