<svg width="354" height="119" viewBox="0 0 354 119" fill="none" xmlns="http://www.w3.org/2000/svg">
<path d="M57.16 73.4C58.3333 72.44 59.36 72.0533 60.24 72.24C61.12 72.4267 61.56 73.2667 61.56 74.76C61.56 75.24 61.4533 75.72 61.24 76.2C61.0267 76.68 60.7867 77.0933 60.52 77.44C60.2533 77.7867 59.8533 78.1867 59.32 78.64C58.7867 79.0933 58.3733 79.4267 58.08 79.64C57.7867 79.8533 57.3333 80.16 56.72 80.56C56.1067 80.96 55.72 81.2133 55.56 81.32C54.3333 82.1733 53.0267 82.8667 51.64 83.4C50.6267 83.88 48.7733 84.3867 46.08 84.92C43.3867 85.4533 41.2667 85.72 39.72 85.72C38.44 85.72 36.6533 85.28 34.36 84.4C32.0667 83.52 30.1067 82.7067 28.48 81.96C26.8533 81.2133 26.04 80.92 26.04 81.08C26.04 81.08 25.8533 81.08 25.48 81.08C25.1067 81.08 24.6933 81.0533 24.24 81C23.7867 80.9467 23.1333 81.2 22.28 81.76C21.4267 82.32 20.5467 83.1867 19.64 84.36C18.3067 86.0133 17.1067 88.2667 16.04 91.12C14.9733 93.9733 14.2267 95.7733 13.8 96.52C13.2667 97.5867 12.72 98.8133 12.16 100.2C11.6 101.587 11.0533 102.76 10.52 103.72C9.98667 104.68 9.26667 105.693 8.36 106.76C7.56 107.72 6.93333 108.307 6.48 108.52C6.02667 108.733 5.26667 108.627 4.2 108.2C2.92 107.72 2 106.48 1.44 104.48C0.879999 102.48 0.786666 100.733 1.16 99.24C1.37333 98.3333 2 97.12 3.04 95.6C4.08 94.08 4.73333 92.9733 5 92.28C5.32 91.4267 5.66667 90.1467 6.04 88.44C6.41333 86.7333 6.73333 85.5333 7 84.84C7.37333 83.72 8.06667 82.1333 9.08 80.08C10.0933 78.0267 10.7867 76.4933 11.16 75.48C11.6933 73.9867 12.08 72.1467 12.32 69.96C12.56 67.7733 12.8533 65.6933 13.2 63.72C13.5467 61.7467 14.1733 59.9867 15.08 58.44C15.1867 58.2267 15.3467 57.92 15.56 57.52C15.7733 57.12 15.9733 56.7467 16.16 56.4C16.3467 56.0533 16.5733 55.6533 16.84 55.2C17.1067 54.7467 17.36 54.3467 17.6 54C17.84 53.6533 18.1067 53.2667 18.4 52.84C18.6933 52.4133 18.9867 52.04 19.28 51.72C19.5733 51.4 19.88 51.0933 20.2 50.8C20.52 50.5067 20.8533 50.2533 21.2 50.04C21.5467 49.8267 21.88 49.6667 22.2 49.56C24.12 49.0267 25.5067 49.3867 26.36 50.64C27.2133 51.8933 27.16 53.2933 26.2 54.84C24.8133 57.1333 24.52 58.2 25.32 58.04C26.12 57.7733 27.4267 56.7333 29.24 54.92C31.3733 52.7867 33.3733 51.16 35.24 50.04C37.1067 48.92 39.2667 48.1467 41.72 47.72C44.0667 47.2933 45.2933 47 45.4 46.84C45.6133 46.7867 45.8267 46.92 46.04 47.24C46.2533 47.56 46.4667 48.0133 46.68 48.6C46.84 49.1867 47 49.8533 47.16 50.6C47.2667 51.4 47.3733 52.2 47.48 53C47.5867 53.8 47.64 54.5733 47.64 55.32C47.5867 62.7333 46.52 67.56 44.44 69.8C43.16 71.1333 42.1733 72.4133 41.48 73.64C41.2667 74.12 41.0133 74.44 40.72 74.6C40.4267 74.76 40.1867 74.8267 40 74.8C39.8133 74.7733 39.5333 74.8133 39.16 74.92C38.7867 75.0267 38.4667 75.2933 38.2 75.72C37.4533 76.52 36.6533 76.92 35.8 76.92C35.1067 76.9733 34.2133 77.3333 33.12 78C32.0267 78.6667 31.48 79.2133 31.48 79.64C31.48 79.8 31.76 80.0133 32.32 80.28C32.88 80.5467 33.56 80.8 34.36 81.04C35.16 81.28 35.9867 81.48 36.84 81.64C37.6933 81.8 38.4133 81.88 39 81.88C39.9067 81.88 41 81.7467 42.28 81.48C42.76 81.2667 43.3467 81.04 44.04 80.8C44.7333 80.56 45.3733 80.3333 45.96 80.12C46.5467 79.9067 47.0267 79.6933 47.4 79.48C51.5067 77.3467 54.76 75.32 57.16 73.4ZM25.56 70.04C25.6667 71.0533 26.0933 72.0267 26.84 72.96C27.5867 73.8933 28.3067 74.36 29 74.36C30.2267 74.36 32.12 73.2533 34.68 71.04C37.24 68.8267 38.84 66.9733 39.48 65.48C40.1733 63.7733 40.56 61.9067 40.64 59.88C40.72 57.8533 40.44 56.2533 39.8 55.08C39.16 53.96 38.5333 53.4933 37.92 53.68C37.3067 53.8667 35.9333 55 33.8 57.08C31.7733 58.8933 29.8933 61.1867 28.16 63.96C26.4267 66.7333 25.56 68.76 25.56 70.04ZM106.341 72.04C107.461 71.0267 108.461 70.6133 109.341 70.8C110.221 70.9867 110.687 71.8267 110.741 73.32C110.741 73.7467 110.674 74.16 110.541 74.56C110.407 74.96 110.194 75.3333 109.901 75.68C109.607 76.0267 109.314 76.36 109.021 76.68C108.727 77 108.367 77.32 107.941 77.64C107.514 77.96 107.154 78.2267 106.861 78.44C106.567 78.6533 106.181 78.9067 105.701 79.2C105.221 79.4933 104.901 79.72 104.741 79.88C103.461 80.7333 102.154 81.4267 100.821 81.96C100.714 82.0133 100.554 82.0933 100.341 82.2C100.234 82.4667 100.021 82.68 99.7006 82.84C99.3806 83 98.9006 83.16 98.2606 83.32C97.034 84.0133 95.2206 84.4933 92.8206 84.76C90.4206 85.0267 88.234 85.0933 86.2606 84.96C84.2873 84.8267 83.0073 84.6 82.4206 84.28C81.9406 83.96 81.4073 83.2933 80.8206 82.28C80.234 81.2667 79.7273 80.2533 79.3006 79.24C78.874 78.2267 78.6073 77.4533 78.5006 76.92C78.1273 75.3733 77.994 73.72 78.1006 71.96C78.2606 70.1467 78.554 67.32 78.9806 63.48V62.36C78.9806 62.0933 78.8873 61.8933 78.7006 61.76C78.514 61.6267 78.2606 61.5333 77.9406 61.48C77.6206 61.48 77.194 61.48 76.6606 61.48C76.0206 61.48 75.3006 61.3733 74.5006 61.16C73.7006 60.9467 72.914 60.7467 72.1406 60.56C71.3673 60.3733 70.6873 60.28 70.1006 60.28C70.154 60.28 69.9673 61.12 69.5406 62.8C69.114 64.48 68.5673 66.2533 67.9006 68.12C67.234 69.9867 66.634 71.08 66.1006 71.4C64.1806 72.52 62.154 73.32 60.0206 73.8C57.2473 74.44 58.5006 68.3867 63.7806 55.64C63.8873 55.32 64.154 54.6533 64.5806 53.64C65.0073 52.6267 65.3006 51.92 65.4606 51.52C65.6206 51.12 65.874 50.48 66.2206 49.6C66.5673 48.72 66.8206 48 66.9806 47.44C67.1406 46.88 67.314 46.2 67.5006 45.4C67.6873 44.6 67.8206 43.84 67.9006 43.12C67.9806 42.4 68.0206 41.6667 68.0206 40.92C68.0206 40.0667 68.5673 38.5467 69.6606 36.36C70.754 34.1733 71.6206 32.84 72.2606 32.36C73.114 31.88 74.274 31.7067 75.7406 31.84C77.2073 31.9733 78.1806 32.3067 78.6606 32.84C79.3006 33.64 79.3006 36.7333 78.6606 42.12C78.1806 45.64 77.9673 47.9067 78.0206 48.92C78.074 49.9867 78.3673 50.84 78.9006 51.48C79.5406 52.0133 80.1006 52.2667 80.5806 52.24C81.0606 52.2133 81.9673 51.8 83.3006 51C85.274 49.88 86.7006 49.3467 87.5806 49.4C88.4606 49.4533 89.274 50.0667 90.0206 51.24C90.6073 52.0933 90.874 52.8667 90.8206 53.56C90.7673 54.2533 90.3673 55.5867 89.6206 57.56C88.554 60.3867 87.594 63.6133 86.7406 67.24C86.1006 70.12 85.9006 72.2533 86.1406 73.64C86.3806 75.0267 87.2473 76.6533 88.7406 78.52C89.3806 79.4267 89.8873 79.9333 90.2606 80.04C90.4206 80.0933 90.7006 80.0533 91.1006 79.92C91.5006 79.7867 91.9273 79.6267 92.3806 79.44C92.834 79.2533 93.1406 79.1333 93.3006 79.08C94.954 78.6533 96.0473 78.3067 96.5806 78.04C100.687 75.9067 103.941 73.9067 106.341 72.04ZM151.706 69.64C152.506 70.0667 152.906 71 152.906 72.44C152.96 74.0933 152.026 75.64 150.106 77.08C149.413 77.56 148.613 78.04 147.706 78.52C147.546 78.5733 147.36 78.68 147.146 78.84C146.4 79.2667 145.76 79.5067 145.226 79.56C143.626 79.6667 142.08 79.0267 140.586 77.64C140.213 77.32 139.813 76.76 139.386 75.96L139.146 75.56C138.666 74.76 138.213 74.2533 137.786 74.04C137.36 73.8267 136.826 73.88 136.186 74.2C135.386 74.6267 134.48 75.9333 133.466 78.12C132.986 79.24 132.586 80.0133 132.266 80.44C131.253 81.9333 130.373 82.7867 129.626 83C128.666 83.48 127.36 84.2267 125.706 85.24C123.68 86.4667 121.76 87.1333 119.946 87.24C117.866 87.4 116.32 87.6133 115.306 87.88C115.04 87.9333 114.773 87.96 114.506 87.96C113.92 87.96 113.413 87.8533 112.986 87.64C112.346 87.3733 111.413 86.6533 110.186 85.48C108.853 84.2533 107.946 83.1733 107.466 82.24C106.986 81.3067 106.506 79.6667 106.026 77.32C105.226 73.48 105.04 70.4 105.466 68.08C105.893 65.76 107.066 63.0533 108.986 59.96C111.44 56.0133 113.76 53.16 115.946 51.4C118.133 49.64 120.826 48.3867 124.026 47.64C125.573 47.32 126.933 46.76 128.106 45.96C129.973 44.7333 131.626 44.28 133.066 44.6C134.453 44.8667 136.053 45.96 137.866 47.88C138.826 48.9467 139.52 49.8 139.946 50.44C140.373 51.08 140.666 51.6933 140.826 52.28C140.986 52.8667 141.066 53.72 141.066 54.84C141.066 59.5867 141.226 63.2667 141.546 65.88C141.706 67.4267 142.066 68.6133 142.626 69.44C143.186 70.2667 144.16 71.2667 145.546 72.44L145.786 72.28C146.746 71.64 147.44 71.1333 147.866 70.76C149.466 69.5333 150.746 69.16 151.706 69.64ZM133.226 55.88C133.226 53.8 133.013 52.6533 132.586 52.44C132.48 52.5467 132.373 52.68 132.266 52.84C132 53.32 132.026 54.4133 132.346 56.12C132.56 57.3467 132.773 58.12 132.986 58.44C133.146 58.0133 133.226 57.16 133.226 55.88ZM130.906 68.2C131.12 66.9733 131.093 66.0933 130.826 65.56C130.613 65.0267 129.946 64.2 128.826 63.08C127.066 61.3733 126.186 59.96 126.186 58.84C126.186 58.0933 125.946 57.2133 125.466 56.2C124.986 55.1867 124.506 54.52 124.026 54.2C123.653 53.9333 123.333 53.8 123.066 53.8C122.853 53.8 122.666 53.8533 122.506 53.96C121.973 54.2267 120.88 55.2133 119.226 56.92C117.786 58.36 116.44 60.2 115.186 62.44C113.933 64.68 113.013 66.7867 112.426 68.76C111.84 70.6267 111.733 71.9867 112.106 72.84C112.533 73.64 112.773 75 112.826 76.92C112.986 78.36 113.2 79.4267 113.466 80.12C113.733 80.7067 114.133 81.1067 114.666 81.32C115.253 81.5867 116.213 81.72 117.546 81.72C118.186 81.72 118.72 81.6933 119.146 81.64C119.573 81.64 119.973 81.5867 120.346 81.48C120.72 81.3733 121.066 81.24 121.386 81.08C121.76 80.8667 122.133 80.6267 122.506 80.36C122.88 80.0933 123.333 79.7467 123.866 79.32C125.893 77.72 127.04 76.44 127.306 75.48C127.626 74.4667 128.266 73.4 129.226 72.28C130.08 71.3733 130.64 70.0133 130.906 68.2ZM167.942 21.32C167.142 21.32 165.835 20.6267 164.022 19.24C162.209 17.8533 161.302 16.84 161.302 16.2C161.302 15.72 162.502 15.48 164.902 15.48C167.089 15.48 168.795 15.9733 170.022 16.96C171.249 17.9467 171.435 19 170.582 20.12C169.782 20.92 168.902 21.32 167.942 21.32ZM169.062 74.68C170.235 73.72 171.262 73.3333 172.142 73.52C173.022 73.7067 173.489 74.5467 173.542 76.04C173.542 76.52 173.422 77 173.182 77.48C172.942 77.96 172.689 78.3733 172.422 78.72C172.155 79.0667 171.769 79.4533 171.262 79.88C170.755 80.3067 170.355 80.6267 170.062 80.84C169.769 81.0533 169.315 81.3733 168.702 81.8C168.089 82.2267 167.702 82.4667 167.542 82.52C166.262 83.4267 164.955 84.1467 163.622 84.68C163.462 84.7333 162.755 85.1067 161.502 85.8C160.249 86.4933 159.142 87.08 158.182 87.56C157.329 88.4133 156.662 89.1067 156.182 89.64C154.209 91.72 151.995 93.9067 149.542 96.2C147.035 98.4933 145.302 100.973 144.342 103.64C143.062 107 142.049 109.333 141.302 110.64C140.555 111.947 139.302 113.427 137.542 115.08C136.155 116.52 135.049 117.413 134.222 117.76C133.395 118.107 132.022 118.28 130.102 118.28C127.382 118.28 125.075 117.627 123.182 116.32C121.289 115.013 120.342 113.373 120.342 111.4C120.342 110.44 120.649 109.493 121.262 108.56C121.875 107.627 123.035 106.307 124.742 104.6C125.862 103.587 127.462 102.093 129.542 100.12C135.302 94.5733 139.062 90.8933 140.822 89.08C142.582 87.2667 143.835 85.8267 144.582 84.76C145.275 83.6933 145.835 82.28 146.262 80.52C146.262 80.3067 146.275 80.16 146.302 80.08C146.329 80 146.369 79.8533 146.422 79.64C146.475 79.4267 146.502 79.24 146.502 79.08C146.982 77.2133 147.755 74.4667 148.822 70.84C149.889 67.2133 150.662 64.4933 151.142 62.68C151.249 62.0933 151.489 60.6933 151.862 58.48C152.235 56.2667 152.662 54.3333 153.142 52.68C153.622 51.0267 154.235 49.8 154.982 49C155.889 48.04 156.342 47.08 156.342 46.12C156.342 45.32 156.582 44.7333 157.062 44.36C157.595 44.04 158.609 42.28 160.102 39.08C161.702 35.9333 163.169 33.72 164.502 32.44C165.942 31.1067 167.489 30.52 169.142 30.68C169.835 30.7867 170.329 30.88 170.622 30.96C170.915 31.04 171.155 31.2133 171.342 31.48C171.529 31.7467 171.649 32.0667 171.702 32.44C171.755 32.8133 171.729 33.5067 171.622 34.52C171.302 38.3067 169.809 43.2933 167.142 49.48C166.929 49.96 165.862 51.9733 163.942 55.52C162.022 59.0667 160.929 61.7467 160.662 63.56C160.502 64.36 159.769 66.28 158.462 69.32C157.155 72.36 155.982 75.1867 154.942 77.8C153.902 80.4133 153.569 81.88 153.942 82.2C154.635 82.84 156.915 82.08 160.782 79.92C164.649 77.76 167.409 76.0133 169.062 74.68ZM130.102 111.4C131.115 111.56 132.689 110.053 134.822 106.88C136.955 103.707 137.755 101.853 137.222 101.32C136.582 100.733 134.875 101.96 132.102 105C129.009 108.307 127.862 110.28 128.662 110.92C128.929 111.133 129.409 111.293 130.102 111.4ZM207.194 76.04C208.367 75.08 209.394 74.6933 210.274 74.88C211.154 75.0667 211.594 75.9067 211.594 77.4C211.647 77.88 211.554 78.36 211.314 78.84C211.074 79.32 210.82 79.7333 210.554 80.08C210.287 80.4267 209.9 80.8133 209.394 81.24C208.887 81.6667 208.474 81.9867 208.154 82.2C207.834 82.4133 207.367 82.72 206.754 83.12C206.14 83.52 205.78 83.7733 205.674 83.88C204.394 84.7333 203.087 85.4533 201.754 86.04C201.647 86.0933 201.5 86.16 201.314 86.24C201.127 86.32 200.927 86.4 200.714 86.48C200.5 86.56 200.287 86.64 200.074 86.72C199.86 86.8 199.687 86.8667 199.554 86.92L199.354 87C196.1 88.3333 192.607 89.1067 188.874 89.32C185.034 89.5333 182.234 89.1867 180.474 88.28C180.26 88.1733 179.407 87.8 177.914 87.16C176.42 86.52 175.354 85.96 174.714 85.48C173.487 84.68 172.314 82.9467 171.194 80.28C169.114 75.48 168.074 71.24 168.074 67.56C168.074 65.32 168.474 62.3867 169.274 58.76C169.327 58.5467 169.42 58.0933 169.554 57.4C169.687 56.7067 169.807 56.1867 169.914 55.84C170.02 55.4933 170.154 55.0133 170.314 54.4C170.474 53.7867 170.634 53.2667 170.794 52.84C170.954 52.4133 171.14 51.9733 171.354 51.52C171.567 51.0667 171.78 50.6533 171.994 50.28C173.114 48.7333 174.02 47.6133 174.714 46.92C177.594 43.9333 181.247 42.6 185.674 42.92C190.26 43.2933 192.74 44.8133 193.114 47.48C193.434 49.56 193.314 51.7067 192.754 53.92C192.194 56.1333 191.5 57.96 190.674 59.4C189.847 60.84 188.7 62.7067 187.234 65C185.767 67.2933 184.714 69.0533 184.074 70.28C181.727 74.7067 180.554 77.3467 180.554 78.2C180.554 78.8933 181.22 79.88 182.554 81.16C183.407 81.96 184.167 82.44 184.834 82.6C185.5 82.76 186.714 82.68 188.474 82.36C191.247 81.9867 194.26 81.32 197.514 80.36C198.74 79.9333 200.527 79.2133 202.874 78.2C205.22 77.1867 206.66 76.4667 207.194 76.04ZM176.154 70.36C176.634 70.36 177.967 68.28 180.154 64.12C182.287 59.96 183.354 57.4533 183.354 56.6C183.354 55.5867 182.807 54.9333 181.714 54.64C180.62 54.3467 179.754 54.6 179.114 55.4C178.58 56.04 178.047 57 177.514 58.28C176.98 59.56 176.554 60.8667 176.234 62.2C175.967 63.5333 175.727 64.8133 175.514 66.04C175.3 67.2667 175.247 68.2933 175.354 69.12C175.46 69.9467 175.727 70.36 176.154 70.36ZM248.729 75.16C249.903 74.2 250.916 73.8 251.769 73.96C252.623 74.12 253.076 74.9733 253.129 76.52C253.129 76.8933 253.063 77.28 252.929 77.68C252.796 78.08 252.583 78.4667 252.289 78.84C251.996 79.2133 251.716 79.5467 251.449 79.84C251.183 80.1333 250.823 80.4533 250.369 80.8C249.916 81.1467 249.543 81.4133 249.249 81.6C248.956 81.7867 248.569 82.04 248.089 82.36C247.609 82.68 247.289 82.8933 247.129 83C245.849 83.8533 244.543 84.5733 243.209 85.16C242.356 85.5333 240.916 86.0533 238.889 86.72C236.863 87.3867 234.276 88.1333 231.129 88.96C227.983 89.7867 224.916 90.1067 221.929 89.92C218.943 89.7333 216.703 88.8933 215.209 87.4C214.623 86.8133 213.956 85.96 213.209 84.84C212.463 83.72 211.809 82.6267 211.249 81.56C210.689 80.4933 210.276 79.6133 210.009 78.92C209.316 77.0533 208.996 74.4667 209.049 71.16C209.529 61.08 213.849 52.44 222.009 45.24C223.929 43.64 225.343 42.6667 226.249 42.32C227.156 41.9733 228.863 41.8 231.369 41.8C235.956 41.8 239.463 42.8133 241.889 44.84C244.316 46.8667 245.236 49.5333 244.649 52.84C244.276 54.4933 243.916 55.52 243.569 55.92C243.223 56.32 242.436 56.6 241.209 56.76C239.556 56.92 237.996 56.5867 236.529 55.76C235.063 54.9333 234.489 54.04 234.809 53.08C235.129 52.28 234.956 51.4667 234.289 50.64C233.623 49.8133 232.809 49.4 231.849 49.4C230.089 49.4 227.409 51.2533 223.809 54.96C220.209 58.6667 218.409 61.4533 218.409 63.32C218.409 64.0133 218.036 65.0267 217.289 66.36C216.489 67.5333 216.116 69.56 216.169 72.44C216.276 75.2667 216.729 77.2667 217.529 78.44C218.809 80.36 220.956 81.68 223.969 82.4C226.983 83.12 229.743 83.24 232.249 82.76C233.583 82.5467 235.023 82.12 236.569 81.48C239.396 80.36 241.983 78.8933 244.329 77.08C246.143 75.7467 247.396 75.24 248.089 75.56C248.143 75.56 248.236 75.5067 248.369 75.4C248.503 75.2933 248.623 75.2133 248.729 75.16ZM289.998 75.32C291.224 74.4667 292.264 74.1867 293.118 74.48C293.971 74.7733 294.344 75.6667 294.238 77.16C294.184 77.5333 294.064 77.92 293.878 78.32C293.691 78.72 293.438 79.08 293.118 79.4C292.798 79.72 292.491 80.0133 292.198 80.28C291.904 80.5467 291.518 80.8267 291.038 81.12C290.558 81.4133 290.158 81.64 289.837 81.8C289.518 81.96 289.104 82.1733 288.598 82.44C288.091 82.7067 287.758 82.8933 287.598 83C286.264 83.6933 284.878 84.2533 283.438 84.68C283.384 84.7333 282.731 85.1467 281.478 85.92C280.224 86.6933 278.798 87.5467 277.198 88.48C275.598 89.4133 274.291 90.04 273.278 90.36C271.891 90.84 270.451 91.2133 268.958 91.48C267.464 91.7467 265.891 91.92 264.238 92C262.584 92.08 260.998 91.9067 259.478 91.48C257.958 91.0533 256.691 90.4133 255.678 89.56C254.451 88.44 253.451 86.9067 252.678 84.96C251.904 83.0133 251.398 80.9067 251.158 78.64C250.918 76.3733 250.798 74.2533 250.798 72.28C250.798 70.3067 250.878 68.4133 251.038 66.6C251.091 66.3333 251.398 64.0533 251.958 59.76C252.518 55.4667 253.051 51.2533 253.558 47.12L254.318 40.92C253.678 40.5467 252.478 40.28 250.718 40.12C249.651 40.0667 248.557 40.0667 247.437 40.12C244.824 40.12 242.984 40.04 241.917 39.88C241.704 39.8267 241.397 39.8 240.997 39.8C240.597 39.8 240.197 39.8 239.797 39.8C239.397 39.8 238.997 39.8 238.597 39.8C238.197 39.8 237.877 39.76 237.637 39.68C237.397 39.6 237.251 39.48 237.197 39.32C237.091 38.4667 237.437 37.8533 238.237 37.48C238.291 37.4267 238.651 37.2 239.317 36.8C239.984 36.4 240.677 36.0133 241.397 35.64C242.117 35.2667 243.091 34.9333 244.317 34.64C245.544 34.3467 246.797 34.2267 248.077 34.28C252.078 34.6533 254.571 34.7733 255.558 34.64C256.544 34.5067 257.518 33.9333 258.478 32.92C259.918 31.5867 261.838 28.0933 264.238 22.44C264.344 22.2267 264.504 21.9067 264.718 21.48C265.624 19.3467 266.371 17.6667 266.958 16.44C267.544 15.2133 268.371 13.6533 269.438 11.76C270.504 9.86666 271.678 8.28 272.957 7C274.238 5.72 275.571 4.73333 276.958 4.03999C281.438 1.90666 283.678 2.04 283.678 4.43999C283.678 5.82666 282.638 8.94666 280.558 13.8C279.971 15.1333 279.544 16.1733 279.278 16.92C278.958 17.88 278.691 19.0267 278.478 20.36C278.264 21.6933 277.758 23.0267 276.958 24.36C275.678 26.6 274.611 28.4933 273.758 30.04C272.744 31.8533 272.371 32.92 272.638 33.24C272.904 33.6667 275.598 34.1467 280.718 34.68C284.291 35.0533 286.464 35.3733 287.238 35.64C288.011 35.9067 288.344 36.4133 288.238 37.16C288.131 38.1733 287.544 38.6 286.478 38.44C286.051 38.3867 285.198 38.36 283.918 38.36C282.638 38.4133 281.198 38.4933 279.598 38.6C277.998 38.7067 276.344 38.8667 274.638 39.08C272.984 39.2933 271.598 39.4533 270.478 39.56C269.891 39.6667 269.118 41.3733 268.158 44.68C267.198 47.9867 266.144 52 264.998 56.72C263.851 61.44 263.011 64.6 262.478 66.2C259.758 74.36 260.104 79.96 263.518 83C265.064 84.3867 266.504 85.0533 267.838 85C268.638 85 269.518 84.7067 270.478 84.12C270.638 83.9067 271.184 83.5867 272.118 83.16C273.051 82.7333 274.011 82.3467 274.998 82C275.984 81.6533 276.998 81.2933 278.038 80.92C279.078 80.5467 279.624 80.36 279.678 80.36C283.944 78.6533 287.384 76.9733 289.998 75.32ZM330.091 69.88C331.264 68.8667 332.291 68.4533 333.171 68.64C334.051 68.8267 334.491 69.6933 334.491 71.24C334.491 71.56 334.437 71.9067 334.331 72.28C334.224 72.6533 334.077 72.9867 333.891 73.28C333.704 73.5733 333.464 73.88 333.171 74.2C332.877 74.52 332.584 74.8 332.291 75.04C331.997 75.28 331.664 75.5333 331.291 75.8C330.917 76.0667 330.597 76.2933 330.331 76.48C330.064 76.6667 329.744 76.8933 329.371 77.16C328.997 77.4267 328.731 77.6133 328.571 77.72C327.291 78.5733 325.957 79.2933 324.571 79.88C324.464 79.9333 324.197 80.0667 323.771 80.28C322.331 81.7733 321.051 82.7867 319.931 83.32C318.864 83.7467 317.451 84.0133 315.691 84.12C313.877 84.6533 312.624 84.6 311.931 83.96C311.717 83.96 311.091 83.9067 310.051 83.8C309.011 83.6933 308.304 83.6267 307.931 83.6C307.557 83.5733 306.984 83.56 306.211 83.56C305.437 83.56 304.771 83.64 304.211 83.8C303.651 83.96 303.104 84.1733 302.571 84.44C301.877 84.8667 300.997 85.0533 299.931 85C298.864 84.9467 297.024 84.7333 294.411 84.36C292.544 84.0933 290.971 83.9067 289.691 83.8C289.424 83.8 289.131 83.8 288.811 83.8C288.491 83.8 288.144 83.7867 287.771 83.76C287.397 83.7333 287.104 83.64 286.891 83.48C286.304 83.1067 285.584 81.6667 284.731 79.16C284.251 77.72 283.957 76.2267 283.851 74.68C283.744 74.04 283.744 73.5333 283.851 73.16C284.117 71.8267 284.544 71 285.131 70.68C285.344 70.5733 285.744 70.4667 286.331 70.36C286.917 70.2533 287.344 70.0667 287.611 69.8C288.091 69.4267 288.491 68.8133 288.811 67.96C289.131 67.0533 289.317 66.12 289.371 65.16C289.424 64.3067 289.504 63.7467 289.611 63.48C289.824 63.16 290.237 62.8133 290.851 62.44C291.464 62.0667 291.797 61.8533 291.851 61.8C292.491 61.2667 293.051 60.5467 293.531 59.64C293.744 59.16 294.171 57.6667 294.811 55.16C295.397 53.1867 295.877 51.16 296.251 49.08C296.624 47.0533 296.891 45.32 297.051 43.88C297.317 40.5733 297.677 38.6267 298.131 38.04C298.584 37.4533 299.437 37.1733 300.691 37.2C301.944 37.2267 303.024 37.5867 303.931 38.28C304.357 38.5467 304.744 38.9867 305.091 39.6C305.437 40.2133 305.691 40.76 305.851 41.24C306.011 41.72 306.211 42.3867 306.451 43.24C306.691 44.0933 306.864 44.6533 306.971 44.92C307.931 47.8 308.624 50.4667 309.051 52.92C309.211 53.88 309.397 55.28 309.611 57.12C309.824 58.96 310.064 60.6267 310.331 62.12C310.597 63.6133 310.971 65 311.451 66.28C312.304 68.6267 312.597 70.7333 312.331 72.6C312.171 73.7733 312.091 74.8667 312.091 75.88C312.091 76.8933 312.424 77.72 313.091 78.36C313.757 79 314.784 79.2667 316.171 79.16C316.757 79.1067 317.344 78.9733 317.931 78.76C318.517 78.5467 319.011 78.3333 319.411 78.12C319.811 77.9067 320.317 77.56 320.931 77.08C321.544 76.6 321.957 76.2667 322.171 76.08C322.384 75.8933 322.837 75.48 323.531 74.84C324.331 74.0933 325.571 73.12 327.251 71.92C328.931 70.72 329.877 70.04 330.091 69.88ZM300.891 75.32C303.291 74.7867 304.704 73.6 305.131 71.76C305.557 69.92 305.104 66.9467 303.771 62.84C302.437 58.9467 301.611 57 301.291 57C300.917 57 300.597 57.7467 300.331 59.24C300.011 60.6267 299.611 61.64 299.131 62.28C298.491 63.1867 297.477 65.12 296.091 68.08C294.704 71.04 294.117 72.68 294.331 73C294.597 73.3733 295.131 73.7733 295.931 74.2C296.731 74.6267 297.597 74.9467 298.531 75.16C299.464 75.3733 300.251 75.4267 300.891 75.32ZM338.799 80.92C338.213 80.6 338.133 79.4 338.559 77.32C338.986 75.24 339.706 73.8533 340.719 73.16C341.679 72.3067 343.106 71.9333 344.999 72.04C346.893 72.1467 348.639 72.6 350.239 73.4C351.893 74.3067 352.799 75.0533 352.959 75.64C353.119 76.2267 352.773 77.5867 351.919 79.72C350.906 81.96 349.879 83.4267 348.839 84.12C347.799 84.8133 346.133 85.1067 343.839 85C341.226 84.8933 339.919 84.28 339.919 83.16C339.919 82.04 339.546 81.2933 338.799 80.92Z" fill="#24C292"/>
</svg>
