<svg width="344" height="36" viewBox="0 0 344 36" fill="none" xmlns="http://www.w3.org/2000/svg">
<path d="M9.28809 7.72266C11.6807 7.72266 13.4865 8.25244 14.7056 9.31201C15.936 10.3716 16.5513 12.0236 16.5513 14.2681V27H13.6973L12.9282 24.3169H12.7915C12.256 25.0005 11.7035 25.5645 11.1338 26.0088C10.5641 26.4531 9.90332 26.7835 9.15137 27C8.41081 27.2279 7.50505 27.3418 6.43408 27.3418C5.30615 27.3418 4.29785 27.1367 3.40918 26.7266C2.52051 26.305 1.81982 25.667 1.30713 24.8125C0.794434 23.958 0.538086 22.8757 0.538086 21.5654C0.538086 19.6172 1.26156 18.1532 2.7085 17.1733C4.16683 16.1935 6.36572 15.6523 9.30518 15.5498L12.5864 15.4302V14.439C12.5864 13.1287 12.2788 12.1945 11.6636 11.6362C11.0597 11.078 10.2052 10.7988 9.1001 10.7988C8.15446 10.7988 7.2373 10.9355 6.34863 11.209C5.45996 11.4824 4.59408 11.8185 3.75098 12.2173L2.45215 9.38037C3.375 8.89046 4.42318 8.4917 5.59668 8.18408C6.78158 7.87646 8.01204 7.72266 9.28809 7.72266ZM12.5693 17.9595L10.1255 18.0449C8.12028 18.1133 6.71322 18.4551 5.9043 19.0703C5.09538 19.6855 4.69092 20.5286 4.69092 21.5996C4.69092 22.5339 4.97005 23.2174 5.52832 23.6504C6.08659 24.0719 6.82145 24.2827 7.73291 24.2827C9.12288 24.2827 10.2736 23.8896 11.1851 23.1035C12.1079 22.306 12.5693 21.1382 12.5693 19.6001V17.9595ZM43.9805 21.5996C43.9805 22.8415 43.6785 23.8896 43.0747 24.7441C42.4709 25.5986 41.5879 26.248 40.4258 26.6924C39.2751 27.1253 37.8623 27.3418 36.1875 27.3418C34.8659 27.3418 33.7266 27.245 32.7695 27.0513C31.8239 26.869 30.9295 26.5841 30.0864 26.1968V22.7275C30.9865 23.1491 31.9948 23.5137 33.1113 23.8213C34.2393 24.1289 35.3045 24.2827 36.3071 24.2827C37.6287 24.2827 38.5801 24.0776 39.1611 23.6675C39.7422 23.2459 40.0327 22.6877 40.0327 21.9927C40.0327 21.5825 39.9131 21.2179 39.6738 20.8989C39.446 20.5685 39.013 20.2324 38.375 19.8906C37.7484 19.5374 36.8255 19.1159 35.6064 18.626C34.4102 18.1475 33.4019 17.6689 32.5815 17.1904C31.7612 16.7119 31.1403 16.1366 30.7188 15.4644C30.2972 14.7808 30.0864 13.9092 30.0864 12.8496C30.0864 11.1748 30.7472 9.90446 32.0688 9.03857C33.4019 8.1613 35.1621 7.72266 37.3496 7.72266C38.5117 7.72266 39.6055 7.84229 40.6309 8.08154C41.6676 8.30941 42.6816 8.64551 43.6729 9.08984L42.4082 12.1147C41.5537 11.7388 40.6935 11.4312 39.8276 11.1919C38.9731 10.9412 38.1016 10.8159 37.2129 10.8159C36.1761 10.8159 35.3843 10.9754 34.8374 11.2944C34.3019 11.6134 34.0342 12.0692 34.0342 12.6616C34.0342 13.106 34.1652 13.4819 34.4272 13.7896C34.6893 14.0972 35.1393 14.4048 35.7773 14.7124C36.4268 15.02 37.3268 15.4017 38.4775 15.8574C39.6055 16.2904 40.5796 16.7461 41.3999 17.2246C42.2316 17.6917 42.8696 18.2671 43.314 18.9507C43.7583 19.6343 43.9805 20.5173 43.9805 21.5996ZM65.0693 17.498C65.0693 19.0703 64.8643 20.466 64.4541 21.6851C64.0439 22.9041 63.4458 23.9352 62.6597 24.7783C61.8735 25.61 60.9279 26.248 59.8228 26.6924C58.7176 27.1253 57.4701 27.3418 56.0801 27.3418C54.7812 27.3418 53.5907 27.1253 52.5083 26.6924C51.4259 26.248 50.486 25.61 49.6885 24.7783C48.9023 23.9352 48.2928 22.9041 47.8599 21.6851C47.4269 20.466 47.2104 19.0703 47.2104 17.498C47.2104 15.4131 47.5693 13.6471 48.2871 12.2002C49.0163 10.7419 50.0531 9.63102 51.3975 8.86768C52.7419 8.10433 54.3426 7.72266 56.1997 7.72266C57.9429 7.72266 59.481 8.10433 60.814 8.86768C62.147 9.63102 63.1895 10.7419 63.9414 12.2002C64.6934 13.6585 65.0693 15.4245 65.0693 17.498ZM51.3462 17.498C51.3462 18.8766 51.5114 20.0558 51.8418 21.0356C52.1836 22.0155 52.7077 22.7674 53.4141 23.2915C54.1204 23.8042 55.0319 24.0605 56.1484 24.0605C57.265 24.0605 58.1764 23.8042 58.8828 23.2915C59.5892 22.7674 60.1076 22.0155 60.438 21.0356C60.7684 20.0558 60.9336 18.8766 60.9336 17.498C60.9336 16.1195 60.7684 14.9517 60.438 13.9946C60.1076 13.0262 59.5892 12.2913 58.8828 11.79C58.1764 11.2773 57.2593 11.021 56.1313 11.021C54.4679 11.021 53.2546 11.5793 52.4912 12.6958C51.7279 13.8123 51.3462 15.4131 51.3462 17.498ZM79.1343 11.1406H74.5371V27H70.521V11.1406H67.4277V9.20947L70.521 8.03027V6.71436C70.521 5.10791 70.7716 3.83187 71.2729 2.88623C71.7856 1.94059 72.5148 1.2627 73.4604 0.852539C74.4175 0.43099 75.5568 0.220215 76.8784 0.220215C77.7443 0.220215 78.5361 0.294271 79.2539 0.442383C79.9717 0.579102 80.5755 0.738607 81.0654 0.920898L80.0229 3.96289C79.6356 3.83757 79.2026 3.72363 78.7241 3.62109C78.2456 3.50716 77.7329 3.4502 77.186 3.4502C76.2746 3.4502 75.6024 3.73503 75.1694 4.30469C74.7479 4.87435 74.5371 5.70605 74.5371 6.7998V8.08154H79.1343V11.1406ZM89.4053 24.0947C89.9294 24.0947 90.4478 24.0492 90.9604 23.958C91.4731 23.8555 91.9403 23.7358 92.3618 23.5991V26.6411C91.9175 26.8348 91.3421 27 90.6357 27.1367C89.9294 27.2734 89.1945 27.3418 88.4312 27.3418C87.3602 27.3418 86.3975 27.1652 85.543 26.812C84.6885 26.4474 84.0106 25.8265 83.5093 24.9492C83.008 24.0719 82.7573 22.8586 82.7573 21.3091V11.1406H80.1768V9.34619L82.9453 7.92773L84.2612 3.87744H86.7905V8.08154H92.208V11.1406H86.7905V21.2578C86.7905 22.2148 87.0298 22.9269 87.5083 23.394C87.9868 23.8612 88.6191 24.0947 89.4053 24.0947ZM111.673 26.9829L109.281 18.1816C109.167 17.7487 109.03 17.2246 108.871 16.6094C108.711 15.9941 108.552 15.3618 108.392 14.7124C108.233 14.0516 108.084 13.4421 107.948 12.8838C107.822 12.3255 107.726 11.8926 107.657 11.585H107.521C107.464 11.8926 107.372 12.3255 107.247 12.8838C107.122 13.4421 106.979 14.0516 106.82 14.7124C106.66 15.3732 106.501 16.0169 106.341 16.6436C106.193 17.2702 106.056 17.8057 105.931 18.25L103.419 26.9829H99.0098L93.7119 8.06445H97.7793L100.24 17.4639C100.4 18.1019 100.554 18.7912 100.702 19.5317C100.861 20.2723 100.998 20.9787 101.112 21.6509C101.226 22.3231 101.311 22.8757 101.368 23.3086H101.505C101.55 23.001 101.613 22.6136 101.693 22.1465C101.773 21.668 101.864 21.1724 101.966 20.6597C102.069 20.1356 102.171 19.6457 102.274 19.1899C102.376 18.7228 102.473 18.3468 102.564 18.062L105.47 8.06445H109.862L112.647 18.062C112.773 18.495 112.91 19.0418 113.058 19.7026C113.206 20.3521 113.337 21.0072 113.451 21.668C113.576 22.3174 113.656 22.8586 113.69 23.2915H113.827C113.872 22.9041 113.952 22.38 114.066 21.7192C114.191 21.047 114.334 20.335 114.493 19.583C114.653 18.8197 114.818 18.1133 114.989 17.4639L117.501 8.06445H121.5L116.168 26.9829H111.673ZM132.164 7.72266C134.557 7.72266 136.362 8.25244 137.582 9.31201C138.812 10.3716 139.427 12.0236 139.427 14.2681V27H136.573L135.804 24.3169H135.667C135.132 25.0005 134.579 25.5645 134.01 26.0088C133.44 26.4531 132.779 26.7835 132.027 27C131.287 27.2279 130.381 27.3418 129.31 27.3418C128.182 27.3418 127.174 27.1367 126.285 26.7266C125.396 26.305 124.696 25.667 124.183 24.8125C123.67 23.958 123.414 22.8757 123.414 21.5654C123.414 19.6172 124.138 18.1532 125.584 17.1733C127.043 16.1935 129.242 15.6523 132.181 15.5498L135.462 15.4302V14.439C135.462 13.1287 135.155 12.1945 134.54 11.6362C133.936 11.078 133.081 10.7988 131.976 10.7988C131.03 10.7988 130.113 10.9355 129.225 11.209C128.336 11.4824 127.47 11.8185 126.627 12.2173L125.328 9.38037C126.251 8.89046 127.299 8.4917 128.473 8.18408C129.658 7.87646 130.888 7.72266 132.164 7.72266ZM135.445 17.9595L133.001 18.0449C130.996 18.1133 129.589 18.4551 128.78 19.0703C127.971 19.6855 127.567 20.5286 127.567 21.5996C127.567 22.5339 127.846 23.2174 128.404 23.6504C128.963 24.0719 129.697 24.2827 130.609 24.2827C131.999 24.2827 133.15 23.8896 134.061 23.1035C134.984 22.306 135.445 21.1382 135.445 19.6001V17.9595ZM154.637 7.72266C154.956 7.72266 155.304 7.73975 155.68 7.77393C156.056 7.80811 156.38 7.85368 156.654 7.91064L156.278 11.6704C156.039 11.6021 155.742 11.5508 155.389 11.5166C155.047 11.4824 154.74 11.4653 154.466 11.4653C153.749 11.4653 153.065 11.585 152.416 11.8242C151.766 12.0521 151.191 12.4053 150.689 12.8838C150.188 13.3509 149.795 13.9377 149.51 14.644C149.225 15.3504 149.083 16.1707 149.083 17.105V27H145.05V8.08154H148.194L148.741 11.4141H148.929C149.305 10.7419 149.772 10.1266 150.331 9.56836C150.889 9.01009 151.527 8.56576 152.245 8.23535C152.974 7.89355 153.771 7.72266 154.637 7.72266ZM167.694 7.72266C169.38 7.72266 170.827 8.07015 172.035 8.76514C173.242 9.46012 174.171 10.4456 174.82 11.7217C175.47 12.9977 175.794 14.5244 175.794 16.3018V18.4551H163.165C163.211 20.2894 163.701 21.7021 164.635 22.6934C165.58 23.6846 166.902 24.1802 168.6 24.1802C169.807 24.1802 170.89 24.0662 171.847 23.8384C172.815 23.5991 173.812 23.2516 174.837 22.7959V26.0601C173.892 26.5044 172.929 26.8291 171.949 27.0342C170.969 27.2393 169.796 27.3418 168.429 27.3418C166.572 27.3418 164.937 26.9829 163.524 26.2651C162.123 25.536 161.023 24.4536 160.226 23.0181C159.439 21.5825 159.046 19.7995 159.046 17.6689C159.046 15.5498 159.405 13.7497 160.123 12.2686C160.841 10.7874 161.849 9.65951 163.148 8.88477C164.447 8.11003 165.962 7.72266 167.694 7.72266ZM167.694 10.7476C166.429 10.7476 165.404 11.1577 164.618 11.978C163.843 12.7983 163.387 14.0003 163.25 15.584H171.864C171.852 14.6383 171.693 13.8009 171.385 13.0718C171.089 12.3426 170.633 11.7729 170.018 11.3628C169.414 10.9526 168.639 10.7476 167.694 10.7476ZM196.952 7.72266C198.638 7.72266 200.085 8.07015 201.292 8.76514C202.5 9.46012 203.429 10.4456 204.078 11.7217C204.728 12.9977 205.052 14.5244 205.052 16.3018V18.4551H192.423C192.468 20.2894 192.958 21.7021 193.893 22.6934C194.838 23.6846 196.16 24.1802 197.857 24.1802C199.065 24.1802 200.147 24.0662 201.104 23.8384C202.073 23.5991 203.07 23.2516 204.095 22.7959V26.0601C203.15 26.5044 202.187 26.8291 201.207 27.0342C200.227 27.2393 199.054 27.3418 197.687 27.3418C195.829 27.3418 194.194 26.9829 192.782 26.2651C191.38 25.536 190.281 24.4536 189.483 23.0181C188.697 21.5825 188.304 19.7995 188.304 17.6689C188.304 15.5498 188.663 13.7497 189.381 12.2686C190.099 10.7874 191.107 9.65951 192.406 8.88477C193.705 8.11003 195.22 7.72266 196.952 7.72266ZM196.952 10.7476C195.687 10.7476 194.662 11.1577 193.875 11.978C193.101 12.7983 192.645 14.0003 192.508 15.584H201.122C201.11 14.6383 200.951 13.8009 200.643 13.0718C200.347 12.3426 199.891 11.7729 199.276 11.3628C198.672 10.9526 197.897 10.7476 196.952 10.7476ZM219.442 7.72266C221.572 7.72266 223.23 8.27523 224.415 9.38037C225.611 10.4741 226.209 12.2344 226.209 14.6611V27H222.193V15.4131C222.193 13.9434 221.891 12.8439 221.288 12.1147C220.684 11.3742 219.75 11.0039 218.485 11.0039C216.651 11.0039 215.375 11.5679 214.657 12.6958C213.95 13.8237 213.597 15.4587 213.597 17.6006V27H209.581V8.08154H212.708L213.272 10.645H213.495C213.905 9.98421 214.412 9.44303 215.016 9.02148C215.631 8.58854 216.314 8.26383 217.066 8.04736C217.83 7.83089 218.622 7.72266 219.442 7.72266ZM237.232 35.4082C234.669 35.4082 232.704 34.9468 231.336 34.0239C229.969 33.1011 229.286 31.8079 229.286 30.1445C229.286 28.9824 229.65 27.9969 230.379 27.188C231.109 26.3905 232.151 25.8379 233.507 25.5303C232.994 25.3024 232.55 24.9492 232.174 24.4707C231.809 23.9808 231.627 23.4396 231.627 22.8472C231.627 22.1408 231.826 21.5369 232.225 21.0356C232.624 20.5343 233.222 20.0501 234.02 19.583C233.028 19.1615 232.231 18.4779 231.627 17.5322C231.035 16.5752 230.738 15.453 230.738 14.1655C230.738 12.7983 231.029 11.6362 231.61 10.6792C232.191 9.71077 233.04 8.97591 234.156 8.47461C235.273 7.96191 236.623 7.70557 238.207 7.70557C238.548 7.70557 238.919 7.72835 239.317 7.77393C239.728 7.80811 240.104 7.85368 240.445 7.91064C240.799 7.95622 241.066 8.00749 241.249 8.06445H247.794V10.3032L244.581 10.9014C244.889 11.3343 245.134 11.8299 245.316 12.3882C245.498 12.9351 245.589 13.5332 245.589 14.1826C245.589 16.1423 244.911 17.686 243.556 18.814C242.211 19.9305 240.354 20.4888 237.984 20.4888C237.415 20.466 236.862 20.4204 236.327 20.3521C235.917 20.6027 235.603 20.8818 235.387 21.1895C235.17 21.4857 235.062 21.8218 235.062 22.1978C235.062 22.5054 235.17 22.756 235.387 22.9497C235.603 23.132 235.922 23.2687 236.344 23.3599C236.777 23.451 237.301 23.4966 237.916 23.4966H241.18C243.254 23.4966 244.837 23.9352 245.931 24.8125C247.025 25.6898 247.572 26.9772 247.572 28.6748C247.572 30.8281 246.683 32.4858 244.906 33.6479C243.128 34.8215 240.571 35.4082 237.232 35.4082ZM237.386 32.5884C238.788 32.5884 239.967 32.4517 240.924 32.1782C241.881 31.9048 242.604 31.5117 243.094 30.999C243.584 30.4977 243.829 29.8996 243.829 29.2046C243.829 28.5894 243.675 28.1165 243.368 27.7861C243.06 27.4557 242.599 27.2279 241.983 27.1025C241.368 26.9772 240.605 26.9146 239.693 26.9146H236.72C235.979 26.9146 235.324 27.0285 234.754 27.2563C234.185 27.4956 233.74 27.8374 233.421 28.2817C233.114 28.7261 232.96 29.2616 232.96 29.8882C232.96 30.7541 233.342 31.4206 234.105 31.8877C234.88 32.3548 235.973 32.5884 237.386 32.5884ZM238.172 17.8569C239.346 17.8569 240.217 17.5379 240.787 16.8999C241.357 16.2505 241.642 15.339 241.642 14.1655C241.642 12.8895 241.345 11.9325 240.753 11.2944C240.172 10.6564 239.306 10.3374 238.155 10.3374C237.027 10.3374 236.167 10.6621 235.575 11.3115C234.994 11.9609 234.703 12.9237 234.703 14.1997C234.703 15.3504 234.994 16.2505 235.575 16.8999C236.167 17.5379 237.033 17.8569 238.172 17.8569ZM255.262 8.08154V27H251.246V8.08154H255.262ZM253.28 0.835449C253.895 0.835449 254.425 1.00065 254.869 1.33105C255.325 1.66146 255.553 2.23112 255.553 3.04004C255.553 3.83757 255.325 4.40723 254.869 4.74902C254.425 5.07943 253.895 5.24463 253.28 5.24463C252.642 5.24463 252.101 5.07943 251.656 4.74902C251.223 4.40723 251.007 3.83757 251.007 3.04004C251.007 2.23112 251.223 1.66146 251.656 1.33105C252.101 1.00065 252.642 0.835449 253.28 0.835449ZM270.882 7.72266C273.013 7.72266 274.671 8.27523 275.855 9.38037C277.052 10.4741 277.65 12.2344 277.65 14.6611V27H273.634V15.4131C273.634 13.9434 273.332 12.8439 272.728 12.1147C272.124 11.3742 271.19 11.0039 269.925 11.0039C268.091 11.0039 266.815 11.5679 266.097 12.6958C265.391 13.8237 265.038 15.4587 265.038 17.6006V27H261.021V8.08154H264.149L264.713 10.645H264.935C265.345 9.98421 265.852 9.44303 266.456 9.02148C267.071 8.58854 267.755 8.26383 268.507 8.04736C269.27 7.83089 270.062 7.72266 270.882 7.72266ZM290.809 7.72266C292.495 7.72266 293.942 8.07015 295.15 8.76514C296.358 9.46012 297.286 10.4456 297.936 11.7217C298.585 12.9977 298.91 14.5244 298.91 16.3018V18.4551H286.28C286.326 20.2894 286.816 21.7021 287.75 22.6934C288.696 23.6846 290.017 24.1802 291.715 24.1802C292.923 24.1802 294.005 24.0662 294.962 23.8384C295.93 23.5991 296.927 23.2516 297.953 22.7959V26.0601C297.007 26.5044 296.044 26.8291 295.064 27.0342C294.085 27.2393 292.911 27.3418 291.544 27.3418C289.687 27.3418 288.052 26.9829 286.639 26.2651C285.238 25.536 284.138 24.4536 283.341 23.0181C282.555 21.5825 282.162 19.7995 282.162 17.6689C282.162 15.5498 282.521 13.7497 283.238 12.2686C283.956 10.7874 284.964 9.65951 286.263 8.88477C287.562 8.11003 289.077 7.72266 290.809 7.72266ZM290.809 10.7476C289.544 10.7476 288.519 11.1577 287.733 11.978C286.958 12.7983 286.502 14.0003 286.366 15.584H294.979C294.968 14.6383 294.808 13.8009 294.5 13.0718C294.204 12.3426 293.749 11.7729 293.133 11.3628C292.529 10.9526 291.755 10.7476 290.809 10.7476ZM310.975 7.72266C312.661 7.72266 314.108 8.07015 315.316 8.76514C316.524 9.46012 317.452 10.4456 318.102 11.7217C318.751 12.9977 319.076 14.5244 319.076 16.3018V18.4551H306.446C306.492 20.2894 306.982 21.7021 307.916 22.6934C308.862 23.6846 310.183 24.1802 311.881 24.1802C313.089 24.1802 314.171 24.0662 315.128 23.8384C316.096 23.5991 317.093 23.2516 318.119 22.7959V26.0601C317.173 26.5044 316.21 26.8291 315.23 27.0342C314.251 27.2393 313.077 27.3418 311.71 27.3418C309.853 27.3418 308.218 26.9829 306.805 26.2651C305.404 25.536 304.304 24.4536 303.507 23.0181C302.721 21.5825 302.328 19.7995 302.328 17.6689C302.328 15.5498 302.687 13.7497 303.404 12.2686C304.122 10.7874 305.13 9.65951 306.429 8.88477C307.728 8.11003 309.243 7.72266 310.975 7.72266ZM310.975 10.7476C309.71 10.7476 308.685 11.1577 307.899 11.978C307.124 12.7983 306.668 14.0003 306.532 15.584H315.145C315.134 14.6383 314.974 13.8009 314.667 13.0718C314.37 12.3426 313.915 11.7729 313.299 11.3628C312.695 10.9526 311.921 10.7476 310.975 10.7476ZM333.192 7.72266C333.511 7.72266 333.858 7.73975 334.234 7.77393C334.61 7.80811 334.935 7.85368 335.208 7.91064L334.833 11.6704C334.593 11.6021 334.297 11.5508 333.944 11.5166C333.602 11.4824 333.294 11.4653 333.021 11.4653C332.303 11.4653 331.62 11.585 330.97 11.8242C330.321 12.0521 329.745 12.4053 329.244 12.8838C328.743 13.3509 328.35 13.9377 328.065 14.644C327.78 15.3504 327.638 16.1707 327.638 17.105V27H323.604V8.08154H326.749L327.296 11.4141H327.484C327.86 10.7419 328.327 10.1266 328.885 9.56836C329.444 9.01009 330.082 8.56576 330.799 8.23535C331.528 7.89355 332.326 7.72266 333.192 7.72266ZM338.131 24.8809C338.131 23.9466 338.37 23.2915 338.849 22.9155C339.339 22.5282 339.931 22.3345 340.626 22.3345C341.321 22.3345 341.913 22.5282 342.403 22.9155C342.905 23.2915 343.155 23.9466 343.155 24.8809C343.155 25.7923 342.905 26.4531 342.403 26.8633C341.913 27.262 341.321 27.4614 340.626 27.4614C339.931 27.4614 339.339 27.262 338.849 26.8633C338.37 26.4531 338.131 25.7923 338.131 24.8809Z" fill="#00BB85" fill-opacity="0.89"/>
</svg>
